<?xml version="1.0" encoding="UTF-8"?> <svg xmlns="http://www.w3.org/2000/svg" xml:space="preserve" width="369.82" height="165.59" style="shape-rendering:geometricPrecision; text-rendering:geometricPrecision; image-rendering:optimizeQuality; fill-rule:evenodd; clip-rule:evenodd" viewBox="0 0 239890.64 107412.52"> <defs> <style> .fil2 {fill:#FEFEFE} .fil6 {fill:#FCBB55} .fil8 {fill:#FCBB55} .fil11 {fill:#F05F65} .fil7 {fill:#F05F65} .fil10 {fill:#C0A0CB} .fil4 {fill:#7FA75E} .fil12 {fill:#28654C} .fil3 {fill:#749846} .fil9 {fill:#359BA3} .fil0 {fill:#FEFEFE;fill-rule:nonzero} .fil13 {fill:#FCBB55;fill-rule:nonzero} .fil1 {fill:#359BA3;fill-rule:nonzero} .fil5 {fill:#749846;fill-rule:nonzero} </style> </defs> <g id="Layer_x0020_1"> <g id="_1801875784336"> <path d="m163772.49 45097.39-28.44-29.91-10561.64-16299.09c-39.23-61.54-91.45-113.27-152.99-155.68l-82.38-6370.72c-1.23-108.36-44.62-212.56-121.11-289.05-76.98-76.74-180.2-119.64-287.09-119.64-222.61 0-400.85 182.9-397.91 408.7l82.38 6368.76c-62.76 42.66-115.72 95.62-155.19 158.13l-10214.97 16418.49c-128.96 208.15-135.82 469.5-15.94 685.98 116.7 214.77 339.31 347.89 581.54 347.89h20884.98c364.08 0 657.05-300.82 652.15-670.29-1.96-169.41-68.89-334.9-183.39-453.56zm-20159.03-218.2 9029.82-14504.45 2598.3 4000.92-6577.15 10503.54h-5050.97zm12083.9 0-2776.3-4281.88 3118.8-4983.06 6008.11 9264.94h-6350.62z" class="fil0"></path> <path d="m158318.95 24166.32 868.14-1150.82c108.36-145.63 124.79-342.01 43.39-505.78-81.89-164.75-248.36-269.44-428.56-269.44h-5173.56l10.54 830.88 38.98 3020.97h5173.8c180.2 0 343.97-104.69 421.69-269.44 76.74-164.02 55.65-360.15-56.63-505.78l-897.81-1150.58z" class="fil1"></path> <path d="m181680.62 41493.4 44.13 3632.18c4.17 349.86-276.31 634.25-626.16 634.25h-14052.11c-346.67 0-633.03-277.53-643.57-623.71l-83.11-2645.37c-4.9-165 54.43-325.58 164.51-446.21l6554.11-7167.03c1811.31-1936.59 2837.34-3392.65 2791.99-5063.23-37.76-1390.11-1292.53-2497.78-2679.94-2419.08-1118.95 63.5-2096.93 592.82-2949.87 1664.21-207.9 260.61-584.24 310.14-857.6 114.74-754.14-540.6-2162.64-1547.51-2902.8-2077.07-282.93-203.25-349.86-589.39-160.59-877.22 1407.76-2140.57 3816.3-3835.43 7480.6-3835.43 3961.44 0 7484.52 2586.04 7536.74 6885.33 31.63 2619.14-615.37 4600.6-3631.69 7791.72l-3547.11 3727.55.74 67.18h6917.2c351.33 0 640.38 284.89 644.55 637.19zM219622.26 41493.4l44.13 3632.18c4.17 349.86-276.31 634.25-625.92 634.25h-14052.11c-346.91 0-633.03-277.53-643.57-623.71l-82.13-2645.37c-5.64-165 53.2-325.58 163.77-446.21l6553.62-7167.03c1811.31-1936.59 2838.32-3392.65 2793.21-5063.23-38.74-1390.11-1293.76-2497.78-2680.92-2419.08-1119.2 63.5-2097.18 592.82-2950.12 1664.21-207.41 260.61-583.99 310.14-857.6 114.74-754.14-540.6-2162.64-1547.51-2902.8-2077.07-282.43-203.25-349.37-589.39-160.59-877.22 1407.76-2140.57 3816.79-3835.43 7480.6-3835.43 3961.44 0 7485.75 2586.04 7537.72 6885.33 31.63 2619.14-616.11 4600.6-3632.43 7791.72l-3547.11 3727.55.49 67.18h6917.45c352.06 0 640.14 284.89 644.3 637.19zM184054.6 34206.49c-87.28-7153.79 3381.62-11822.06 9022.47-11822.06 5506.25 0 9219.09 4432.66 9308.58 11822.06 87.53 7220.48-3381.13 11889.23-9021 11889.23-5507.23 0-9220.32-4467.23-9310.05-11889.23zm12757.38 0c-49.03-4063.92-1289.59-6750.49-3673.37-6750.49-2115.32 0-3531.66 2216.08-3476.99 6750.49 49.52 4063.68 1291.55 6817.91 3641.74 6817.91 2181.51 0 3564.76-2217.06 3508.62-6817.91zM230762.75 22985.34c270.42-273.61 480.78-495.24 752.42-314.55l2795.17 1858.63c271.4 180.69 473.18 304.99 256.94 627.88-433.95 647.74-2522.79 2787.82-4101.43 5323.85l122.58-1.47c4952.91 0 8172.22 2939.58 8227.39 7712.53 53.45 4663.61-3011.17 8138.88-8084.21 8138.88-7136.87 0-9566.5-5694.3-8497.56-11026.97 868.63-4333.12 5422.16-9174.72 8528.7-12318.77zm3039.85 15206.86c-41.19-5252.5-6476.39-5551.12-6431.28 0 12.99 4810.22 6445.5 4876.9 6431.28 0zM231040.03 10744.78h-2690.98c-115.23 0-216.73 103.46-215.01 218.2l15.45 1154.5c1.47 126.26 105.67 217.96 221.14 217.96h1073.6l53.94 4029.6c7.36 573.45-344.46 871.58-665.14 871.58-310.14 0-449.15-102.97-588.65-240.76-92.67-91.69-219.18-80.42-309.4 0l-769.59 768.36c-68.16 80.17-77.96 194.91-19.37 286.6 198.1 241 756.59 837.25 1754.68 837.25 1341.32 0 2453.9-917.42 2432.57-2511.51l-72.32-5413.58c-1.23-114.74-94.64-218.2-220.9-218.2zM236859.61 15725.64c1005.19-343.97 1731.14-1310.43 1715.94-2446.05-18.63-1387.9-1191.77-2534.8-2602.72-2534.8h-2993.76c-126.02 0-216.48 103.22-215.01 218.2l19.61 1468.07h.98-.98l1110.62 1754.43-869.12.25c-126.51 0-216.73 103.46-215.5 217.96l55.65 4151.94c1.23 114.74 94.64 217.71 220.65 217.71h1353.82c114.49 0 216.24-102.97 214.52-217.71l-35.79-2695.14h335.64l1777.72 2809.88c23.54 45.6 93.16 102.97 184.61 102.97h1525.69c195.15 0 272.38-183.39 190.99-332.45l-1773.55-2715.25zm-50.5-2446.05c7.11 516.33-400.61 905.9-893.89 905.9h-61.78l-1145.68-1754.43h1184.41c492.79 0 910.56 367.02 916.93 848.53zM215295.27 18555.63c1.96 114.49 95.13 218.2 221.14 218.2h3810.17c114.74 0 216.24-103.71 215.01-218.2l-15.45-1154.5c-1.72-126.51-105.91-217.96-220.9-217.96h-2192.79l-82.87-6220.43c-1.72-114.49-94.39-217.96-220.65-217.96h-1399.43c-114.49 0-216.48 103.46-215.01 217.96l100.76 7592.89zM225639.94 12431.06c114.74 0 217.22-91.69 215.5-218.2l-17.16-1249.87c-1.23-114.98-105.91-218.2-220.9-218.2h-4736.67c-114.49 0-216.48 103.22-215.01 218.2l16.43 1249.87c1.96 126.51 106.16 218.2 221.14 218.2h4736.67zM225724.52 18773.58c114.49 0 216.48-91.69 215.26-218.2l-16.67-1249.87c-1.72-114.49-106.65-217.96-221.14-217.96h-4736.67c-114.49 0-216.73 103.46-215.26 217.96l16.67 1249.87c1.72 126.51 106.16 218.2 220.9 218.2h4736.91zM225682.11 15602.32c114.98 0 217.22-91.69 215.5-217.96l-16.67-1250.12c-1.72-114.74-106.4-217.96-221.14-217.96h-4736.91c-114.25 0-216.48 103.22-215.01 217.96l16.43 1250.12c1.96 126.26 106.4 217.96 221.14 217.96h4736.67zM144933.45 13943.99c-911.29-367.02-1259.43-688.19-1264.83-1112.58-4.17-309.65 301.8-584.73 714.42-584.73 699.71 0 1545.55 630.58 1649.5 687.94 104.2 80.42 309.16-22.8 388.1-148.82l572.96-883.59c45.11-79.93 64.72-286.36-74.04-366.77-347.16-252.28-1272.92-860.3-2465.91-860.3-1766.2 0-2633.85 1147.15-2618.9 2282.52 18.39 1376.38 1267.52 2144.74 2259.23 2534.8 783.81 309.65 1189.81 676.67 1196.43 1158.42 5.39 401.1-323.62 687.94-782.09 687.94-757.08 0-1590.9-607.53-1637.24-630.58-80.91-57.37-299.11-80.42-388.84 68.65l-526.38 952.24c-89.49 160.59-54.67 206.43 61.78 320.68 266.99 264.05 1101.05 883.34 2592.42 883.34 1685.78 0 2690.49-1192.75 2675.04-2373.97-20.84-1559.77-1452.38-2259.72-2351.66-2615.22zM170695.82 10789.89h-2683.87c-115.23 0-205.7 103.22-203.74 217.96l100.76 7592.64c1.96 114.98 94.64 217.96 209.62 217.96h2683.87c2213.63 0 4001.65-1800.52 3971.99-4025.68-29.42-2202.35-1865.25-4002.88-4078.63-4002.88zm-30.4 6331.25h-986.81l-61.78-4645.46h986.56c1295.72 0 2250.16 1020.88 2267.81 2317.09 17.41 1307.24-910.31 2328.37-2205.79 2328.37zM197004.92 10789.89h-1376.62c-126.02 0-216.24 103.22-214.52 218.2l58.6 4415.74h-11.28l-3547.84-4576.33c-93.16-91.94-174.32-172.11-289.05-172.11h-1089.78c-114.49 0-216.48 91.69-214.77 206.43l102.73 7719.15c1.47 114.49 117.19 217.47 231.93 217.47h1364.86c126.02 0 216.48-102.97 215.01-217.47l-61.54-4622.17h11.52l3608.15 4828.36c93.41 91.94 173.82 126.26 288.81 126.26h1032.41c114.25 0 216.48-68.89 215.01-206.68l-102.73-7718.66c-1.72-114.98-106.65-218.2-220.9-218.2zM166010.88 10789.89h-2691.22c-114.74 0-216.48 103.22-214.77 218.2l15.45 1154.26c1.47 126.26 105.67 218.2 220.65 218.2h1074.09l53.45 4029.35c7.6 573.45-343.73 871.82-664.9 871.82-309.89 0-448.9-103.46-588.41-241-92.92-91.45-218.94-80.17-309.89 0l-769.34 768.36c-67.91 80.42-77.47 195.4-19.37 286.85 198.59 241 756.84 837.5 1754.68 837.5 1342.06 0 2453.65-917.67 2432.81-2512l-72.08-5413.33c-1.96-114.98-95.13-218.2-221.14-218.2zM151840.84 10789.89h-2993.52c-126.26 0-216.24 103.22-215.01 217.71l19.61 1468.07h.74l-.74.49 1110.13 1754.43-868.88.25c-126.02 0-216.48 103.22-214.77 217.96l54.92 4151.69c1.96 114.98 94.64 218.2 220.9 218.2h1353.33c114.74 0 216.73-103.22 215.01-218.2l-35.79-2695.14h1433.75c1399.18 0 2542.16-1158.67 2523.53-2580.65-18.63-1387.9-1192.26-2534.8-2603.21-2534.8zm-57.37 3440.7h-61.29l-1146.41-1754.92h1184.41c493.04 0 911.29 367.51 917.42 849.02 7.11 515.84-401.1 905.9-894.13 905.9zM187194.97 15770.75c1005.19-343.97 1730.89-1310.67 1715.69-2446.3-18.39-1387.66-1191.77-2534.56-2602.72-2534.56h-2993.52c-125.77 0-216.24 103.46-214.52 217.96l19.61 1468.07h.49-.49l1110.13 1754.92h-869.12c-126.02 0-216.48 103.22-214.77 218.2l54.92 4151.69c1.96 114.49 94.64 217.71 220.65 217.71h1353.58c114.98 0 216.97-103.22 215.26-217.71l-35.79-2695.39h334.9l1777.97 2809.88c23.54 45.85 93.16 103.22 184.61 103.22h1525.69c195.15 0 273.12-183.63 190.74-332.2l-1773.31-2715.49zm-50.5-2446.3c7.11 516.33-400.61 906.39-893.64 906.39h-61.78l-1145.68-1754.92h1184.17c492.79 0 910.56 366.77 916.93 848.53zM160854 18818.45c114.98 0 216.97-91.45 215.26-217.96l-16.67-1250.12c-1.47-114.49-106.16-217.96-220.65-217.96h-4737.4c-114.49 0-216.24 103.46-214.77 217.96l16.67 1250.12c1.72 126.51 105.91 217.96 220.65 217.96H160854zM160812.07 15647.18c114.49 0 216.73-91.69 215.01-218.2l-16.67-1249.63c-1.47-114.74-106.16-218.2-220.9-218.2h-4737.16c-114.74 0-216.24 103.46-214.77 218.2l16.43 1249.63c1.96 126.51 106.16 218.2 220.9 218.2h4737.16zM181227.31 18818.45c114.49 0 216.97-91.45 215.01-217.96l-16.67-1250.12c-1.23-114.49-106.4-217.96-220.9-217.96h-4736.91c-114.49 0-216.48 103.46-214.77 217.96l16.43 1250.12c1.72 126.51 106.4 217.96 221.14 217.96h4736.67zM181185.14 15647.18c114.49 0 216.97-91.69 215.01-218.2l-16.43-1249.63c-1.72-114.74-106.65-218.2-221.14-218.2h-4736.91c-114.25 0-216.48 103.46-215.01 218.2l16.92 1249.63c1.47 126.51 106.16 218.2 220.65 218.2h4736.91zM203902.75 18818.45c114.25 0 216.24-91.45 214.52-217.96l-16.43-1250.12c-1.72-114.49-106.16-217.96-220.9-217.96h-4736.91c-114.74 0-216.73 103.46-215.01 217.96l16.67 1250.12c1.72 126.51 105.91 217.96 220.41 217.96h4737.65zM203860.34 15647.18c114.49 0 216.48-91.69 214.77-218.2l-16.67-1249.63c-1.72-114.74-105.91-218.2-220.65-218.2h-4736.91c-114.98 0-216.73 103.46-215.01 218.2l16.67 1249.63c1.72 126.51 105.91 218.2 220.41 218.2h4737.4zM208901.51 13943.99c-910.8-367.02-1259.43-688.19-1265.07-1112.58-3.92-309.65 302.05-584.73 714.91-584.73 699.47 0 1545.06 630.58 1649.25 687.94 103.95 80.42 309.65-22.8 387.86-148.82l573.21-883.59c44.87-79.93 65.21-286.36-73.55-366.77-347.16-252.28-1273.16-860.3-2465.91-860.3-1766.2 0-2634.34 1147.15-2619.14 2282.52 18.39 1376.38 1267.28 2144.74 2258.99 2534.8 783.81 309.65 1190.3 676.67 1196.67 1158.42 5.15 401.1-323.38 687.94-782.58 687.94-756.84 0-1590.41-607.53-1636.99-630.58-80.91-57.37-299.35-80.42-389.08 68.65l-526.38 952.24c-89.49 160.59-54.43 206.43 61.78 320.68 267.23 264.05 1101.54 883.34 2592.42 883.34 1686.03 0 2691.22-1192.75 2675.04-2373.97-20.59-1559.77-1452.38-2259.72-2351.42-2615.22zM160769.9 12475.92c114.49 0 216.73-91.69 215.01-218.2l-16.92-1249.87c-.98-114.74-105.91-217.71-220.65-217.71h-4736.91c-114.98 0-216.73 102.97-215.01 217.71l16.67 1249.87c1.72 126.51 106.16 218.2 220.41 218.2h4737.4zM181142.72 12475.92c114.74 0 217.22-91.69 215.5-218.2l-16.67-1249.87c-1.72-114.74-106.16-217.71-221.14-217.71h-4736.91c-114.49 0-216.48 102.97-215.26 217.71l17.16 1249.87c1.47 126.51 105.91 218.2 220.65 218.2h4736.67zM203817.92 12475.92c114.74 0 216.48-91.69 214.77-218.2l-16.67-1249.87c-1.23-114.74-105.91-217.71-220.16-217.71h-4737.65c-114.49 0-216.24 102.97-214.52 217.71l16.43 1249.87c1.96 126.51 106.16 218.2 220.9 218.2h4736.91z" class="fil0"></path> <path d="M141515.05 5559.95h98025.73c192.46 0 349.86 154.95 349.86 344.46v1020.64c0 189.76-157.4 344.71-349.86 344.71h-98025.73c-192.46 0-349.86-154.95-349.86-344.71V5904.41c0-189.52 157.4-344.46 349.86-344.46z" class="fil2"></path> </g> <g id="_1801875774688"> <path d="m216106.05 84203.83 166.72 12511.96h1421.49c915.46 0 1915.51-88.02 2785.12-411.15 647.25-241 1241.54-609 1721.82-1151.8 478.08-541.58 796.8-1204.27 1003.23-1927.03 265.27-926.74 342.99-1939.29 330.24-2912.61-11.28-857.36-117.68-1706.87-356.72-2527.2-205.21-704.86-526.87-1329.31-987.05-1866.96-485.68-568.79-1086.59-969.15-1740.46-1244.48-912.03-383.93-2030.98-470.72-2992.04-470.72h-1352.35zm13798.36 5957.61c24.52 1831.17-163.28 3713.58-779.88 5412.6-540.35 1490.14-1348.19 2779.73-2462.97 3795.22-1130.72 1030.94-2462.97 1708.09-3874.16 2123.9-1679.41 495.49-3483.61 651.9-5222.1 651.9h-5212.54c-535.94 0-1046.14-157.89-1481.07-520.74-532.51-444.74-747.77-1121.65-757.82-1839.01l-247.62-18617.41c-9.81-717.61 187.55-1394.77 708.05-1838.77 425.37-363.1 931.4-521.23 1467.34-521.23h5598.19c1726.48 0 3543.67 165 5213.77 710.25 1372.46 448.66 2672.34 1139.06 3778.55 2170.97 1059.13 987.54 1864.02 2205.79 2412.95 3616.98 597.72 1535.49 837.5 3197.99 859.32 4855.33z" class="fil3"></path> <path d="M191638.17 88842.18a93755.6 93755.6 0 0 1 8.58 524.91l148.82 11178.24c4.41 333.68-95.86 650.92-296.16 921.35-198.34 256.2-460.92 416.3-744.09 526.38-274.83 107.63-581.54 160.83-872.56 196.38-385.9 47.07-783.07 56.88-1170.93 56.88-384.18 0-776.7-10.05-1159.16-56.88-292.98-35.55-601.15-89.24-859.07-193.44-300.09-104.93-596.01-298.13-786.26-583.01-173.09-247.87-270.91-551.39-275.08-867.65l-255.22-19191.59c-10.54-780.13 251.3-1482.29 847.55-1957.68 515.84-411.15 1129.74-588.16 1776.5-588.16h2535.05c450.13 0 919.87 27.7 1361.67 130.92 405.02 94.64 789.2 252.52 1142 485.43 365.55 241 678.63 561.93 945.62 916.2 283.66 376.33 532.26 791.41 749.48 1190.79l4620.95 7801.28c269.69 471.22 532.26 936.55 799.99 1398.94a75794.8 75794.8 0 0 1 266.99 468.03c-4.66-244.92-8.34-489.11-11.52-734.28l-133.37-10023.74c-4.66-347.65 110.82-674.46 321.91-938.75 191.23-241 455.28-404.77 732.32-516.82 289.3-116.46 605.32-170.64 913.5-201.77 380.01-38.98 770.32-43.64 1152.29-43.64 372.17 0 751.93 5.88 1122.87 43.64 307.93 31.14 626.41 87.77 923.06 216.48 288.32 132.64 548.69 313.82 721.78 573.21 175.05 251.79 270.91 549.18 275.57 867.65l254.98 19191.35c5.39 385.9-64.48 760.02-226.29 1124.84-162.79 337.6-376.33 613.17-647 835.78-267.97 220.16-574.92 371.43-904.18 462.63-299.35 83.36-603.85 122.83-913.99 122.83h-2019.46c-435.42 0-878.69-35.55-1313.62-139.75-438.12-114-835.54-315.29-1192.75-590.37-374.62-288.07-690.15-651.66-965.23-1042.46-321.66-456.01-611.7-946.84-878.2-1424.68L191731.84 89004a21069.93 21069.93 0 0 1-93.65-161.81zM149021.64 96570.4h8781.22c317.25 0 631.31 84.83 881.63 256.94 259.39 166.22 454.3 414.34 590.61 705.35 121.85 258.9 187.06 544.52 227.27 826.47 45.6 319.21 56.88 649.21 57.86 971.36.98 322.4-7.36 653.38-51.73 972.59-37.27 266.01-100.76 531.04-203.74 793.12-135.82 322.64-330 594.54-602.63 769.83-249.58 174.56-558.99 269.44-881.87 269.44H144524c-597.72 0-1165.53-160.1-1646.31-521.47-590.86-444-823.77-1121.65-826.22-1839.01l-61.05-19393.86c-1.23-366.28 137.05-707.8 396.68-985.09 236.1-239.78 528.58-384.92 834.56-477.34 303.03-91.2 635.97-133.37 950.52-166.22 430.52-45.11 869.61-55.9 1303.07-55.9 437.87 0 884.57 9.56 1319.5 56.63 309.65 33.34 636.46 75.76 935.08 165.49 308.91 92.67 603.85 238.79 839.46 479.06 259.39 275.57 400.61 617.09 401.59 983.37l50.75 16189.25z" class="fil4"></path> <path d="M210030.02 61767.18c26.23 1977.78-184.12 4007.29-868.63 5838.21-602.87 1611.99-1500.44 2998.17-2732.66 4088.2-1256 1111.11-2731.67 1838.28-4288.99 2284.49-1862.55 533-3860.19 701.18-5785.01 701.18h-5781.58c-586.93 0-1147.39-167.7-1626.45-556.53-587.18-476.61-828.67-1207.21-839.21-1986.36l-266.99-20059.25c-10.3-778.66 211.83-1509.51 786.75-1986.12 468.76-389.08 1024.32-556.78 1611.5-556.78h6209.4c1911.09 0 3922.95 176.77 5773 764.44 1515.15 480.78 2955.02 1221.68 4182.59 2334.01 1170.19 1060.11 2062.85 2371.52 2674.06 3897.21 662.69 1654.4 928.46 3446.59 952.24 5237.3zm-15302.48-6419.02 179.46 13480.87h1592.86c1018.92 0 2130.27-94.64 3098.69-444.98 718.35-258.9 1382.02-656.56 1918.69-1245.7 528.83-580.81 882.85-1293.51 1113.56-2074.87 293.71-995.88 380.75-2084.92 366.77-3132.53-12.26-923.06-129.69-1836.56-393.74-2718.19-228.25-762.23-585.71-1433.01-1093.45-2010.39-542.56-616.85-1212.12-1048.59-1937.08-1345-1016.72-415.81-2259.23-509.22-3329.15-509.22h-1516.62zM170195.18 69137.45h12222.91c915.22 0 1674.01 757.33 1685.78 1683.09l33.1 2507.59c12.26 925.51-726.19 1683.09-1641.41 1683.09h-12223.15c-915.46 0-1673.52-757.57-1686.03-1683.09l-32.85-2507.59c-12.26-925.76 726.19-1683.09 1641.65-1683.09zM169938.98 49673.96h12223.4c914.97 0 1673.77 757.08 1686.03 1683.09l32.85 2507.34c11.77 925.76-726.68 1683.09-1641.65 1683.09h-12223.4c-915.46 0-1673.77-757.33-1686.03-1683.09l-33.1-2507.34c-12.01-926 726.68-1683.09 1641.9-1683.09zM170061.32 59217.42h12223.15c915.46 0 1674.01 757.33 1685.78 1682.84l33.34 2507.59c11.77 925.76-726.68 1683.09-1641.9 1683.09h-12223.15c-915.46 0-1673.52-757.33-1685.78-1683.09l-33.1-2507.59c-12.26-925.51 726.19-1682.84 1641.65-1682.84z" class="fil3"></path> <path d="M232207.28 55009.82c-79.68 0-150.53-13.97-214.28-40.7-61.78-28.19-113.27-65.46-155.44-113.27-41.19-45.85-71.1-100.76-90.47-164.51-19.61-65.46-28.44-129.2-28.44-194.66v-582.52c0-122.09 12.5-226.54 35.3-315.04 25.01-86.79 69.14-168.19 132.88-242.47 63.99-76.25 150.53-147.1 260.37-215.99 108.12-69.14 249.58-147.1 422.92-233.65l3138.9-1665.92c187.55-97.33 389.33-194.66 605.32-295.67 215.75-100.76 426.59-189.27 630.08-268.95v-10.54a28389.48 28389.48 0 0 1-745.07 31.87 27551.86 27551.86 0 0 1-764.93 10.54h-3513.76c-33.83 0-65.71-8.83-94.14-28.44-26.23-19.37-49.52-52.96-68.65-99.05-19.61-46.09-33.83-109.84-44.38-189.27-10.79-79.93-15.94-182.41-15.94-306.46 0-122.09 5.15-222.86 15.94-302.78 10.54-79.68 24.76-141.46 44.38-185.59 17.65-46.34 42.41-78.21 68.65-93.9 28.44-17.65 60.31-26.72 94.14-26.72h6032.63c163.04 0 285.38 47.81 366.77 143.42 81.15 93.65 122.09 210.6 122.09 350.59v730.85c0 131.17-10.79 242.72-33.59 333.18-23.29 90.22-60.31 169.9-111.8 240.51-51 70.85-123.81 138.03-215.75 200.06-90.47 62.03-205.21 125.77-339.8 191.23l-2455.61 1304.54c-148.33 76.25-295.43 150.53-438.85 224.82-143.42 74.53-286.85 147.1-430.27 214.28-143.18 69.14-284.89 136.31-423.16 201.77-139.5 67.42-277.78 131.17-416.05 192.95v5.39c242.72-10.54 495.98-19.37 757.82-24.76 263.8-5.39 515.1-7.11 754.14-7.11h3151.16c33.34 0 65.21 10.54 93.9 31.87 26.23 19.37 51 54.92 72.32 102.73 21.33 49.52 35.55 113.27 44.38 192.95 8.83 79.43 12.26 182.16 12.26 306.22 0 118.42-3.43 217.71-12.26 297.39-8.83 79.68-23.05 139.99-44.38 184.12-21.33 42.41-46.09 74.29-72.32 90.22-28.68 17.65-58.6 26.48-93.9 26.48h-6033.12zm30.16 6959.13c-123.81 40.45-223.1 66.93-295.67 77.72-72.32 10.54-127.49-3.68-164.75-40.7-35.3-38.98-58.35-106.16-67.18-203.74-8.83-95.37-12.26-229.97-12.26-398.4 0-176.77 1.72-315.04 7.11-412.13 5.15-99.29 15.69-173.58 31.87-226.78 15.69-51.24 37.02-86.54 65.46-107.87 26.48-21.08 63.5-38.98 107.87-51.24l1348.92-441.06v-2531.37l-1311.9-423.16c-49.52-13.97-89.98-31.87-121.85-54.67-33.83-21.33-58.6-58.6-77.96-108.12-19.61-49.52-32.12-120.38-38.98-212.32-7.11-92.18-10.54-212.32-10.54-361.13 0-159.36 5.15-283.42 15.94-373.64 10.54-90.22 35.3-152.25 74.29-185.84 40.7-35.3 97.09-47.81 169.9-37.27 72.57 10.79 168.19 37.27 290.28 77.96l5956.87 2067.51c58.6 19.61 106.16 44.38 141.71 72.57 37.27 26.72 63.74 70.85 83.11 131.17 19.37 61.78 31.87 145.14 37.27 253.26 5.15 106.16 6.86 247.62 6.86 424.88 0 203.49-1.72 366.28-6.86 486.66-5.39 122.09-17.9 215.99-37.27 283.17-19.37 67.42-47.81 115.23-84.83 145.39-39.23 28.19-90.47 54.67-155.93 74.29l-5951.48 2074.87zm4928.39-3080.55v-5.15l-2855.48-934.58v1883.39l2855.48-943.66zm716.87 7651.24c-101.01 0-185.84-3.68-258.41-12.5-70.85-8.83-127.49-21.33-170.15-38.98-44.13-17.65-75.76-38.74-95.37-65.46-21.33-24.76-31.87-54.92-31.87-84.83v-1678.18h-5411.86c-33.34 0-65.21-10.79-93.65-33.83-26.48-23.05-49.52-60.07-67.42-111.55-15.69-51.24-29.91-122.09-40.45-210.6-10.79-88.51-15.94-198.1-15.94-329.26 0-130.92 5.15-240.76 15.94-329.26 10.54-88.51 24.76-159.11 40.45-210.6 17.9-51.24 40.94-88.51 67.42-111.55 28.44-23.05 60.31-33.59 93.65-33.59h5411.86v-1678.18c0-33.83 10.54-63.74 31.87-88.51 19.61-23.05 51.24-44.38 95.37-62.03 42.66-15.94 99.29-29.91 170.15-38.98 72.57-8.83 157.4-12.26 258.41-12.26 102.48 0 191.23 3.43 263.8 12.26 72.57 9.07 130.92 23.05 173.58 38.98 44.38 17.65 74.04 38.98 93.65 62.03 19.61 24.76 28.44 54.67 28.44 88.51v4726.62c0 29.91-8.83 58.11-28.44 84.83s-49.28 47.81-93.65 65.46c-42.66 17.65-101.01 30.16-173.58 38.98-72.57 8.83-161.32 12.5-263.8 12.5zm-3651.79 6268.24c-410.9 0-779.15-60.07-1103.02-182.41-325.58-120.13-600.42-297.39-824.99-532.75-224.82-235.36-396.44-525.89-513.38-870.84-118.66-347.16-177.26-743.6-177.26-1193.24 0-421.2 53.2-800.23 157.89-1134.64 106.16-336.37 265.52-619.54 479.55-851.72 214.28-231.68 481.76-408.7 802.19-530.79 320.19-122.34 693.83-184.12 1122.14-184.12h4082.31c33.59 0 65.46 10.54 93.65 31.63 26.72 19.61 49.52 56.88 67.42 109.84 17.65 53.2 30.16 124.06 40.7 210.85 10.54 84.83 15.69 196.38 15.69 330.98 0 129.2-5.15 238.79-15.69 323.87-10.54 86.79-23.05 155.68-40.7 206.92-17.9 51.49-40.7 88.75-67.42 111.8-28.19 23.05-60.07 33.59-93.65 33.59h-3965.61c-267.23 0-497.45 33.59-693.83 99.05-194.91 65.71-357.7 159.36-485.19 283.42-127.24 122.09-224.57 268.95-288.56 440.57-63.5 171.86-95.37 363.1-95.37 573.7 0 214.28 33.59 407.23 99.29 575.17 65.21 170.15 160.83 313.57 286.6 431.99 127.49 116.95 283.17 208.88 467.54 272.63 185.59 63.74 396.44 95.62 631.8 95.62h4043.33c33.59 0 65.46 10.79 93.65 32.12 26.72 19.37 49.52 56.39 67.42 107.87 17.65 51.24 30.16 122.09 40.7 210.6 10.54 88.51 15.69 198.1 15.69 329.26 0 130.92-5.15 239.04-15.69 323.87-10.54 85.07-23.05 153.97-40.7 205.45-17.9 51.24-40.7 88.51-67.42 107.87-28.19 21.33-60.07 31.87-93.65 31.87h-4025.43zm-2326.41 6445.5c-37.27 0-69.14-7.11-95.62-21.33-26.48-13.97-47.81-45.85-65.21-97.33-16.18-52.96-28.68-127.24-35.55-228.25-7.11-101.01-10.54-237.08-10.54-408.94 0-145.14 3.43-260.37 10.54-346.91 6.86-86.79 19.37-155.93 38.98-205.21 19.37-49.77 42.41-85.07 72.57-106.4 30.16-19.61 65.21-37.27 106.16-51.49l1503.13-605.32c169.66-72.57 322.15-143.18 453.07-212.32 132.88-69.14 242.47-147.1 330.98-231.93 88.26-85.07 153.97-184.12 200.3-295.67 44.13-109.84 66.93-239.04 66.93-384.18v-426.59h-2565.2c-33.34 0-65.21-10.54-91.94-33.59-28.19-23.05-51.24-60.31-69.14-111.55-15.69-51.49-29.91-120.38-40.45-207.17-10.79-84.83-15.94-196.38-15.94-329.26 0-130.92 5.15-240.76 15.94-329.26 10.54-88.51 24.76-157.4 40.45-208.88 17.9-51.24 40.94-88.51 67.42-107.87 28.44-21.33 60.31-31.87 93.65-31.87h6096.87c152.25 0 261.84 38.98 329.51 116.7 67.18 77.96 100.76 173.58 100.76 286.85v1738.49c0 175.3-3.68 322.15-10.79 435.42a9318.73 9318.73 0 0 1-24.76 311.61c-38.98 268.95-104.2 511.42-198.1 727.42-92.18 215.99-214.28 400.12-364.57 550.4-150.78 150.78-327.55 265.52-533 345.44-205.45 79.68-440.81 118.66-708.05 118.66-223.1 0-428.31-28.44-612.68-85.07-185.84-58.35-350.35-141.71-495.49-253.01-145.14-109.84-270.91-246.15-377.07-409.19-108.12-162.79-193.19-348.63-260.37-555.55-47.56 100.76-105.91 194.66-175.05 283.17-69.14 88.26-154.21 171.62-253.26 249.34-99.05 78.21-210.6 152.25-338.09 221.39-125.53 69.14-268.95 136.31-428.31 202.02l-1325.87 568.06c-131.17 51.49-227.03 86.79-288.81 102.73-60.07 17.65-108.12 26.48-143.42 26.48zm4558.67-1763.01c221.14 0 408.7-49.77 559.23-150.53 152.5-101.01 260.37-265.76 322.15-493.77 17.65-69.14 29.91-147.1 40.45-235.61 11.03-88.51 16.18-210.6 16.18-366.28v-612.68h-1901.29v695.79c0 194.66 23.05 362.85 70.85 507.99 45.85 146.86 111.55 267.23 196.38 364.57 83.36 97.33 186.08 169.9 302.78 217.96 117.19 47.81 247.87 72.57 393.25 72.57zm-60.31 7360.71c-378.79 0-711.73-58.6-1001.76-177.26-292.49-116.7-536.68-288.56-735.02-515.1-200.06-224.82-350.35-500.88-454.79-828.43-104.69-327.55-155.93-713.44-155.93-1157.69v-561.19h-2140.33c-35.3 0-65.21-10.54-93.65-33.59-26.48-23.29-49.52-60.31-67.42-111.55-17.41-51.49-29.91-120.38-40.45-207.17-10.79-84.83-15.94-196.38-15.94-329.26 0-130.92 5.15-240.76 15.94-329.26 10.54-88.51 24.76-157.64 40.45-208.88 17.9-51.24 40.94-88.51 67.42-108.12 28.44-21.08 60.31-31.87 93.65-31.87h6038.27c163.04 0 285.38 42.66 366.77 127.73 81.15 84.83 122.09 196.38 122.09 334.41v1582.57c0 159.36-5.39 311.61-17.9 455.03-12.5 143.42-38.98 315.04-77.72 516.82-40.94 200.06-113.27 403.55-221.39 609-105.91 205.45-242.47 382.46-406.98 527.6-164.75 145.14-355.99 256.45-577.37 332.94-219.43 76-465.58 113.27-737.96 113.27zm-99.29-1423.45c235.61 0 430.27-42.41 582.52-125.53 152.25-83.36 265.27-186.08 338.09-308.18 72.82-122.09 118.42-249.58 138.03-382.22 19.61-134.6 28.44-272.87 28.44-416.3v-583.99h-2283.75v615.86c0 219.67 30.4 402.08 88.51 550.65 58.35 147.1 141.71 269.2 248.11 363.1 104.2 93.65 231.68 164.51 378.79 214.03 146.61 47.81 307.93 72.57 481.27 72.57zm-4066.13 7252.84c-123.81 40.45-223.1 67.18-295.67 77.72-72.32 10.54-127.49-3.43-164.75-40.7-35.3-38.98-58.35-106.16-67.18-203.49-8.83-95.62-12.26-230.21-12.26-398.4 0-177.01 1.72-315.04 7.11-412.37 5.15-99.05 15.69-173.58 31.87-226.78 15.69-51.24 37.02-86.54 65.46-107.87 26.48-21.08 63.5-38.74 107.87-51.24l1348.92-440.81v-2531.37l-1311.9-423.16c-49.52-14.22-89.98-31.87-121.85-54.92-33.83-21.33-58.6-58.35-77.96-108.12-19.61-49.52-32.12-120.38-38.98-212.32-7.11-92.18-10.54-212.32-10.54-361.13 0-159.36 5.15-283.17 15.94-373.64 10.54-90.22 35.3-152.25 74.29-185.59 40.7-35.55 97.09-48.05 169.9-37.51 72.57 10.79 168.19 37.51 290.28 78.21l5956.87 2067.51c58.6 19.61 106.16 44.13 141.71 72.57 37.27 26.72 63.74 70.85 83.11 131.17 19.37 61.78 31.87 144.89 37.27 253.01 5.15 106.16 6.86 247.87 6.86 424.88 0 203.49-1.72 366.28-6.86 486.66-5.39 122.09-17.9 215.99-37.27 283.42-19.37 67.18-47.81 114.98-84.83 145.14-39.23 28.19-90.47 54.92-155.93 74.29l-5951.48 2074.87zm4928.39-3080.3v-5.39l-2855.48-934.58v1883.63l2855.48-943.66zm-5261.33 9001.63c-37.27 0-69.14-7.11-95.62-21.08-26.48-14.46-47.81-46.34-65.21-97.58-16.18-52.96-28.68-127.24-35.55-228.25-7.11-101.01-10.54-237.32-10.54-408.94 0-145.39 3.43-260.37 10.54-346.91 6.86-86.79 19.37-155.93 38.98-205.45 19.37-49.52 42.41-85.07 72.57-106.16 30.16-19.61 65.21-37.27 106.16-51.24l1503.13-605.57c169.66-72.57 322.15-143.42 453.07-212.32 132.88-69.14 242.47-147.1 330.98-231.93 88.26-85.07 153.97-184.12 200.3-295.67 44.13-109.84 66.93-239.04 66.93-384.18v-426.59h-2565.2c-33.34 0-65.21-10.79-91.94-33.59-28.19-23.05-51.24-60.31-69.14-111.55-15.69-51.24-29.91-120.38-40.45-207.17-10.79-85.07-15.94-196.63-15.94-329.26 0-130.92 5.15-240.76 15.94-329.26 10.54-88.51 24.76-157.64 40.45-208.88 17.9-51.49 40.94-88.51 67.42-107.87 28.44-21.33 60.31-32.12 93.65-32.12h6096.87c152.25 0 261.84 38.98 329.51 116.95 67.18 77.96 100.76 173.33 100.76 286.85v1738.25c0 175.3-3.68 322.4-10.79 435.67a9298.48 9298.48 0 0 1-24.76 311.36c-38.98 269.2-104.2 511.67-198.1 727.66-92.18 215.99-214.28 400.12-364.57 550.65-150.78 150.29-327.55 265.52-533 345.2s-440.81 118.42-708.05 118.42c-223.1 0-428.31-28.19-612.68-84.83-185.84-58.6-350.35-141.71-495.49-253.26-145.14-109.84-270.91-245.9-377.07-408.94-108.12-162.79-193.19-348.63-260.37-555.8-47.56 101.01-105.91 194.66-175.05 283.17-69.14 88.51-154.21 171.62-253.26 249.83-99.05 77.72-210.6 152-338.09 221.14-125.53 68.89-268.95 136.31-428.31 201.77l-1325.87 568.3c-131.17 51.24-227.03 86.79-288.81 102.48-60.07 17.9-108.12 26.72-143.42 26.72zm4558.67-1763.01c221.14 0 408.7-49.52 559.23-150.53 152.5-101.01 260.37-265.52 322.15-494.02 17.65-68.89 29.91-146.86 40.45-235.36 11.03-88.51 16.18-210.85 16.18-366.53v-612.43h-1901.29v695.54c0 194.91 23.05 363.1 70.85 508.24 45.85 146.86 111.55 267.23 196.38 364.57 83.36 97.33 186.08 170.15 302.78 217.96 117.19 47.56 247.87 72.57 393.25 72.57zm-4531.95 7657.86c-38.98 0-72.82-8.83-101.01-28.19-29.91-19.61-53.2-54.92-72.32-109.84-19.61-52.96-33.83-125.53-44.38-219.43-10.79-93.9-15.94-210.6-15.94-352.31 0-224.82 8.83-386.14 26.48-485.19 15.94-99.05 42.41-169.9 77.96-212.32 33.34-42.66 76-76.25 123.81-100.76l3186.46-2028.77h-3186.46c-37.02 0-70.85-10.79-99.29-32.12-26.23-19.37-51-56.39-68.65-107.87-19.61-51.24-33.83-120.13-44.38-207.17-10.79-84.83-15.94-196.38-15.94-329.02 0-131.17 5.15-241 15.94-329.26 10.54-88.51 24.76-157.64 44.38-209.13 19.12-51.24 42.41-88.51 68.65-111.55 28.44-22.8 62.27-33.34 99.29-33.34h6325.12c38.98 0 70.85 10.54 99.05 33.34 26.72 23.05 49.52 60.31 67.42 111.55 17.65 51.49 30.16 120.62 40.7 209.13 10.54 88.26 15.69 198.1 15.69 329.26 0 132.64-5.15 244.19-15.69 329.02-10.54 87.04-23.05 155.93-40.7 207.17-17.9 51.49-40.7 88.51-67.42 107.87-28.19 21.33-60.07 32.12-99.05 32.12h-2858.92l2853.77 1964.79c44.13 25.01 81.4 53.2 111.31 88.51 30.16 33.59 53.2 79.93 70.85 134.6 15.69 54.92 28.19 125.77 35.3 212.32 7.11 87.04 10.54 196.63 10.54 331.22 0 138.03-5.15 251.3-15.69 341.52-10.54 90.47-24.76 161.32-44.38 215.99-17.65 53.2-42.41 90.22-68.89 109.84-28.44 21.08-58.6 31.87-93.9 31.87-58.6 0-118.42-15.94-182.16-45.85-62.03-32.12-159.61-90.47-295.67-177.26l-2413.2-1837.3-3034.21 2005.48c-141.22 76.25-236.83 122.34-283.17 138.03-45.85 15.94-83.11 23.05-111.31 23.05z" class="fil5"></path> <path d="m172472.56 87388.82-1510.98 4619.48H173998l-1525.44-4619.48zm4373.57 13427.91-1136.11-3480.91h-6398.42l-1083.65 3362.74c-64.72 222.86-160.59 452.34-303.52 657.54-195.15 296.16-482.25 493.53-810.28 623.22-300.82 116.7-638.18 163.04-957.14 188.04-400.61 31.14-805.63 36.53-1205.01 36.53-423.65 0-863.24-7.36-1284.2-56.63-466.31-54.92-917.18-214.28-1233.45-579.09-329.02-378.05-426.35-861.03-355.74-1348.68 53.2-361.87 168.68-734.04 286.11-1087.82l6443.29-18569.85c86.3-256.69 209.62-511.42 379.77-731.34 229.23-306.22 552.86-500.39 913.99-616.11 333.92-106.65 700.2-144.89 1049.81-162.55 455.77-22.8 917.67-23.29 1374.42-23.29 519.27 0 1042.7 0 1560.99 23.29 371.19 15.69 766.15 51.73 1123.61 154.7 373.88 108.36 714.91 297.64 964.01 604.1l17.16 21.82 16.92 22.56c168.68 232.67 292 494.26 376.58 769.59l6459.96 18541.9c118.17 359.17 233.4 736.24 287.09 1102.04 74.78 510.44-45.11 1014.51-416.54 1386.68l-35.3 34.08c-339.8 308.18-785.03 431.01-1230.75 471.95-440.57 40.21-894.87 42.66-1334.95 42.66-444.98 0-896.09.74-1340.09-23.05-315.04-17.65-648.72-50.5-951.5-143.67-338.33-104.2-641.61-282.19-846.81-556.53-149.31-185.84-258.65-420.22-330.24-663.92z" class="fil4"></path> <path d="M191638.17 88842.18a93755.6 93755.6 0 0 1 8.58 524.91l148.82 11178.24c4.41 333.68-95.86 650.92-296.16 921.35-198.34 256.2-460.92 416.3-744.09 526.38-274.83 107.63-581.54 160.83-872.56 196.38-385.9 47.07-783.07 56.88-1170.93 56.88-384.18 0-776.7-10.05-1159.16-56.88-292.98-35.55-601.15-89.24-859.07-193.44-300.09-104.93-596.01-298.13-786.26-583.01-173.09-247.87-270.91-551.39-275.08-867.65l-255.22-19191.59c-10.54-780.13 251.3-1482.29 847.55-1957.68 515.84-411.15 1129.74-588.16 1776.5-588.16h2535.05c450.13 0 919.87 27.7 1361.67 130.92 405.02 94.64 789.2 252.52 1142 485.43 365.55 241 678.63 561.93 945.62 916.2 283.66 376.33 532.26 791.41 749.48 1190.79l4620.95 7801.28c269.69 471.22 532.26 936.55 799.99 1398.94a75794.8 75794.8 0 0 1 266.99 468.03c-4.66-244.92-8.34-489.11-11.52-734.28l-133.37-10023.74c-4.66-347.65 110.82-674.46 321.91-938.75 191.23-241 455.28-404.77 732.32-516.82 289.3-116.46 605.32-170.64 913.5-201.77 380.01-38.98 770.32-43.64 1152.29-43.64 372.17 0 751.93 5.88 1122.87 43.64 307.93 31.14 626.41 87.77 923.06 216.48 288.32 132.64 548.69 313.82 721.78 573.21 175.05 251.79 270.91 549.18 275.57 867.65l254.98 19191.35c5.39 385.9-64.48 760.02-226.29 1124.84-162.79 337.6-376.33 613.17-647 835.78-267.97 220.16-574.92 371.43-904.18 462.63-299.35 83.36-603.85 122.83-913.99 122.83h-2019.46c-435.42 0-878.69-35.55-1313.62-139.75-438.12-114-835.54-315.29-1192.75-590.37-374.62-288.07-690.15-651.66-965.23-1042.46-321.66-456.01-611.7-946.84-878.2-1424.68L191731.84 89004a21069.93 21069.93 0 0 1-93.65-161.81zM149021.64 96570.4h8781.22c317.25 0 631.31 84.83 881.63 256.94 259.39 166.22 454.3 414.34 590.61 705.35 121.85 258.9 187.06 544.52 227.27 826.47 45.6 319.21 56.88 649.21 57.86 971.36.98 322.4-7.36 653.38-51.73 972.59-37.27 266.01-100.76 531.04-203.74 793.12-135.82 322.64-330 594.54-602.63 769.83-249.58 174.56-558.99 269.44-881.87 269.44H144524c-597.72 0-1165.53-160.1-1646.31-521.47-590.86-444-823.77-1121.65-826.22-1839.01l-61.05-19393.86c-1.23-366.28 137.05-707.8 396.68-985.09 236.1-239.78 528.58-384.92 834.56-477.34 303.03-91.2 635.97-133.37 950.52-166.22 430.52-45.11 869.61-55.9 1303.07-55.9 437.87 0 884.57 9.56 1319.5 56.63 309.65 33.34 636.46 75.76 935.08 165.49 308.91 92.67 603.85 238.79 839.46 479.06 259.39 275.57 400.61 617.09 401.59 983.37l50.75 16189.25zM157023.23 64982.08h-7559.05l109.35 8337.71c5.15 383.2-123.57 741.88-355.74 1031.92-229.97 286.85-551.63 458.22-902.96 569.04-320.19 90.22-643.57 140.24-958.86 176.28-448.66 50.01-911.54 60.8-1363.63 60.8-452.09 0-911.54-11.77-1361.91-60.8-319.21-35.06-647.49-84.83-972.83-176.28-332.69-104.44-637.19-259.63-887.02-518.78-277.04-303.03-429.29-678.87-434.68-1082.18l-289.3-22010.55c-5.15-403.06 137.29-779.15 406.49-1082.18 243.21-259.14 544.28-415.56 859.32-514.61 314.06-99.05 656.32-144.89 981.9-179.95 449.4-49.03 908.11-61.29 1360.44-61.29 452.09 0 915.46 10.79 1365.59 61.29 316.02 35.79 640.87 85.32 963.02 175.54 354.27 111.31 680.83 282.43 918.4 569.28 239.53 290.04 377.32 648.72 382.46 1031.92l98.56 7489.92h7559.05l-98.56-7489.92c-5.39-403.06 137.29-779.15 404.53-1080.22 235.85-254.24 526.62-411.39 855.89-519.02 327.79-92.67 648.96-143.42 966.21-177.5 456.26-50.01 922.57-61.29 1381.28-61.29 445.47 0 901 11.28 1345 61.29 323.62 36.04 663.18 82.13 976.26 179.71 318.23 99.29 623.22 254.98 874.52 515.84 276.31 304.01 428.31 679.12 433.7 1081.2l289.3 22010.55c5.15 402.08-137.05 776.94-405.51 1080.95-244.43 260.37-544.52 416.3-873.78 520-320.19 90.22-643.57 140.24-958.61 176.28-442.78 49.28-897.81 60.8-1343.53 60.8-458.71 0-925.51-11.52-1382.75-60.8-318.23-34.57-640.87-85.56-970.87-177.99-331.96-107.38-627.14-265.03-869.61-519.27-275.08-300.82-427.57-676.67-432.97-1079.97l-109.1-8337.71zM172472.56 87388.82l-1510.98 4619.48H173998l-1525.44-4619.48zm4373.57 13427.91-1136.11-3480.91h-6398.42l-1083.65 3362.74c-64.72 222.86-160.59 452.34-303.52 657.54-195.15 296.16-482.25 493.53-810.28 623.22-300.82 116.7-638.18 163.04-957.14 188.04-400.61 31.14-805.63 36.53-1205.01 36.53-423.65 0-863.24-7.36-1284.2-56.63-466.31-54.92-917.18-214.28-1233.45-579.09-329.02-378.05-426.35-861.03-355.74-1348.68 53.2-361.87 168.68-734.04 286.11-1087.82l6443.29-18569.85c86.3-256.69 209.62-511.42 379.77-731.34 229.23-306.22 552.86-500.39 913.99-616.11 333.92-106.65 700.2-144.89 1049.81-162.55 455.77-22.8 917.67-23.29 1374.42-23.29 519.27 0 1042.7 0 1560.99 23.29 371.19 15.69 766.15 51.73 1123.61 154.7 373.88 108.36 714.91 297.64 964.01 604.1l17.16 21.82 16.92 22.56c168.68 232.67 292 494.26 376.58 769.59l6459.96 18541.9c118.17 359.17 233.4 736.24 287.09 1102.04 74.78 510.44-45.11 1014.51-416.54 1386.68l-35.3 34.08c-339.8 308.18-785.03 431.01-1230.75 471.95-440.57 40.21-894.87 42.66-1334.95 42.66-444.98 0-896.09.74-1340.09-23.05-315.04-17.65-648.72-50.5-951.5-143.67-338.33-104.2-641.61-282.19-846.81-556.53-149.31-185.84-258.65-420.22-330.24-663.92zM142174.31 105628.18h96074.43c194.17 0 353.04 162.06 353.04 359.66v1065.26c0 197.61-158.87 359.42-353.04 359.42h-96074.43c-193.93 0-352.8-161.81-352.8-359.42v-1065.26c0-197.61 158.87-359.66 352.8-359.66zM215163.86 69137.45h12223.15c914.97 0 1673.77 757.33 1686.03 1683.09l32.85 2507.59c12.01 925.51-726.44 1683.09-1641.65 1683.09h-12223.4c-914.97 0-1673.52-757.57-1685.78-1683.09l-32.61-2507.59c-12.26-925.76 726.19-1683.09 1641.41-1683.09zM214907.9 49673.96h12223.4c914.97 0 1673.77 757.08 1685.54 1683.09l33.1 2507.34c12.01 925.76-726.44 1683.09-1641.41 1683.09h-12223.4c-915.46 0-1673.77-757.33-1686.03-1683.09l-32.85-2507.34c-12.26-926 726.44-1683.09 1641.65-1683.09zM215030 59217.42h12223.4c915.22 0 1673.77 757.33 1685.78 1682.84l33.1 2507.59c12.26 925.76-726.44 1683.09-1641.65 1683.09h-12223.64c-914.73 0-1673.52-757.33-1685.54-1683.09l-32.85-2507.59c-12.26-925.51 726.19-1682.84 1641.41-1682.84z" class="fil3"></path> </g> <path d="m38950.02 2035.64 43.39 10097.54c2.21 476.85-384.18 863-859.32 859.07l-2199.66-19.86c-474.65-4.41-864.96-397.66-866.67-874.52l-43.64-10097.78c-1.96-476.61 384.43-863.49 859.32-859.07l2199.66 19.86c474.4 4.41 865.2 397.91 866.92 874.76zM6330.76 30722.39l10052.92-5.15c474.65-.49 857.85 389.33 851.96 866.18l-27.95 2209.46c-6.37 476.61-399.38 867.16-874.27 867.16l-10053.41 5.64c-474.4.49-857.85-389.57-851.72-866.43l27.7-2209.22c6.37-476.85 399.38-867.41 874.76-867.65zM16027.2 10259.35l7344.53 6895.38c346.67 325.34 361.38 873.05 32.85 1217.02l-1523.48 1594.33c-328.77 343.73-881.38 358.93-1227.81 33.34l-7345.02-6895.14c-346.91-325.34-361.62-873.29-33.1-1217.26l1523.24-1593.84c329.02-344.22 882.12-359.42 1228.79-33.83zM9372.57 19288.44l9315.94 3796.93c439.59 178.97 648.72 685.25 464.11 1124.59l-853.92 2036.37c-184.37 439.1-695.05 652.15-1134.64 472.69l-9315.94-3796.69c-439.83-178.97-648.96-685.25-464.6-1124.59l854.17-2036.13c184.37-439.59 695.05-652.64 1134.89-473.18zM26446.64 3840.57l4085.5 9226.45c193.19 435.18-5.64 945.37-442.29 1133.42l-2021.66 871.09c-436.4 188.04-951.01-14.46-1143.71-450.13l-4085.99-9226.2c-193.44-435.42 5.88-945.62 442.04-1133.66l2021.66-871.09c436.4-188.04 951.5 14.22 1144.45 450.13zM50238.83 4996.55l-3709.16 9385.56c-175.05 443.02-676.91 656.81-1116.26 474.89l-2033.43-842.16c-439.1-181.92-654.85-693.09-479.55-1136.11l3708.92-9385.56c175.05-443.27 676.91-657.3 1116.01-475.38l2033.43 842.4c439.1 181.92 655.09 693.09 480.04 1136.36zM60722.26 13256.05l-7316.83 6924.8c-345.69 327.06-890.7 307.2-1211.38-44.38l-1487.69-1628.17c-320.44-351.08-300.82-905.9 44.87-1232.96l7316.58-6925.29c345.2-326.81 890.45-306.95 1211.38 44.38l1486.95 1627.92c321.42 351.33 301.31 906.64-43.89 1233.69zM7550.96 41676.55l9409.59-3554.46c444.25-168.19 939.73 61.54 1100.56 510.2l747.28 2078.3c161.08 448.17-70.36 952.73-514.86 1120.18l-9409.59 3554.95c-444.25 168.19-939.49-61.54-1100.81-509.95l-746.79-2078.3c-161.57-448.66 70.36-952.97 514.61-1120.91zM12438.66 51383.04l7597.06-6613.68c358.44-312.35 902.22-269.69 1208.44 94.64l1419.04 1688.97c305.97 364.32 263.07 917.91-95.86 1230.26l-7596.81 6613.93c-358.44 312.35-901.98 269.93-1208.19-94.64l-1418.79-1688.72c-306.22-364.32-263.56-918.16 95.13-1230.75zM37163.72 16556.52c5917.16 226.05 11015.2 3639.29 13692.7 8530.66-10045.56 3949.18-18492.37 11105.92-23914.78 20132.31-3856.51-3086.68-6292.51-7877.53-6177.04-13166.07 194.17-8897.43 7536.5-15835.47 16399.12-15496.9z" class="fil6"></path> <path d="M65339.53 20296.82c4143.11 0 8153.83 536.43 11963.03 1535.49-304.25 4081.09 1128.76 9559.39 3222.01 12112.83l-7998.15-2124.64c39.96 4872.49 901.49 10267.44 2861.12 15354.21-2931.98-1687.25-6370.97-2658.61-10048.01-2658.61-9782.49 0-17876.51 6873.07-19238.67 15819.05-1797.33-561.68-3749.86-990.73-5890.43-1243.25-5373.37-580.56-11809.55 253.26-19659.13 4747.21l-105.67 62.03c-6.62-296.9-9.81-594.29-9.81-892.66 0-23588.95 20103.87-42711.65 44903.71-42711.65z" class="fil7"></path> <path d="M65339.53 26351.76c4432.41 0 8689.28 713.93 12652.69 2023.87 581.54 2232.26 1472 4276.24 2532.35 5569.51l-7998.15-2124.64c39.96 4872.49 901.49 10267.44 2861.12 15354.21-2931.98-1687.25-6370.97-2658.61-10048.01-2658.61-9782.49 0-17876.51 6873.07-19238.67 15819.05-1797.33-561.68-3749.86-990.73-5890.43-1243.25-3856.51-416.54-8260.48-104.44-13341.37 1765.95 1170.68-19243.82 17945.64-34506.08 38470.47-34506.08z" class="fil8"></path> <path d="M65339.53 32406.46c2482.09 0 4898.48 267.72 7219.25 774 175.79 4504.49 1049.81 9376.25 2828.76 13994.25-2931.98-1687.25-6370.97-2658.61-10048.01-2658.61-9782.49 0-17876.51 6873.07-19238.67 15819.05-1797.33-561.68-3749.86-990.73-5890.43-1243.25-2096.2-226.54-4354.2-237.81-6794.62 99.54 1975.08-15099.72 15514.3-26784.97 31923.72-26784.97z" class="fil9"></path> <path d="M65339.53 38461.15c2770.66 0 5438.34 417.28 7940.05 1185.88 465.09 2518.87 1157.2 5059.31 2107.96 7527.67-2931.98-1687.25-6370.97-2658.61-10048.01-2658.61-9782.49 0-17876.51 6873.07-19238.67 15819.05-1797.33-561.68-3749.86-990.73-5890.43-1243.25-114-12.26-228.74-23.54-343.48-34.57 1986.85-11678.39 12633.81-20596.17 25472.58-20596.17z" class="fil10"></path> <path d="M102077.39.25c7.85-3.68 134.11 142.44 164.02 174.07 3924.67 4194.35 7362.67 9848.93 8881.74 15418.93 1236.39-712.95 4081.09-2582.86 5804.87-4007.78 1767.91 3590.26 2388.19 7634.08 1690.93 11988.28 1353.82-360.4 6017.43-2469.34 7994.23-3392.16 941.45 4107.07-588.16 10848.73-2981.01 13767.47l7997.91-2124.64c-114.74 13923.65-6842.18 32111.76-26865.14 35191.09-2082.22 142.93-2749.57 253.26-5058.82 31.87-20202.18-2974.15-27064.47-21250.03-27179.69-35226.88l7998.15 2124.64c-2393.1-2918.98-3922.95-9660.64-2981.5-13767.47 1977.29 923.06 6640.16 3031.52 7994.23 3392.41-697.02-4354.45-76.98-8398.27 1690.93-11988.53 1724.03 1424.92 4568.73 3295.07 5805.11 4007.78 1519.31-5570.98 4958.06-11226.29 8883.7-15420.89 29.18-31.38 151.76-172.35 160.34-168.19zM138104.26 97972.04c67.18 5101.72-4158.8 9276.46-9392.43 9276.46H9914.88c-4552.3 0-8426.71-3158.27-9401.99-7338.4-2825.33-12103.02 6324.87-28219.46 20038.41-36071 7849.58-4493.95 14285.76-5327.53 19658.89-4747.21C57874.14 61174.36 62829 75194.6 72001.03 77946.13c1352.84 405.75 2849.6 555.8 4572.65 387.12l12200.6-4144.83c3534.11-1287.87 7090.78-2093.25 10586.4-2479.64l5338.31-270.42c14083.5 132.64 26387.8 6938.78 31028.11 16296.64 1395.5 2813.56 2335.97 7114.32 2377.16 10237.04z" class="fil3"></path> <path d="M120913.74 85059.22c512.65 781.35 457.49 1947.38 110.33 2848.37-342.26 890.7-1866.47 1457.04-2411.73 2829.5-617.09 1553.15 512.16 3133.51 1949.34 3648.36 1040.01 372.66 2620.86 295.67 3496.36-224.08 1234.67-732.32 2246.98-2603.7 1330.53-4852.88-1369.51-3361.02-4693.27-4581.48-4474.83-4249.27z" class="fil11"></path> <path d="M121973.85 84396.53c-917.67-405.75-2211.43-350.1-2099.38-182.16 552.86 827.2 783.07 1685.78 410.41 2639-369.22 942.92-2056.72 1944.68-2644.39 3397.8-409.92 1013.77-196.87 2486.01 820.34 3363.48 652.64 562.66-47.81 655.34-551.39 486.66-2165.09-727.17-2832.44-2156.51-2677.49-3792.03 114.98-1213.34 682.8-2540.69 1427.62-3779.53 1163.82-1934.87 3861.41-4230.88 4476.3-5598.93 388.59-864.71 480.29-1848.33 478.82-2847.15-1.72-1426.39 2405.35 2013.33 1854.95 4117.13-302.54 1154.75-1050.79 2100.85-1495.78 2195.73zM124897.98 86798.45c-961.8-1131.95-2048.39-1923.11-2018.72-1942.23 702.9-542.07 1137.83-1314.11 1328.08-2258.25 202.26-956.4 1779.68 413.85 3064.61 2526.47 1520.54 2500.23 2651.26 6053.47 30.4 8296.52-277.78 238.3-814.94 503.09-1190.3 628.37-534.22 177.99-1076.78 294.45-658.52-403.79 599.93-999.06 2754.97-2949.87-555.55-6847.08z" class="fil6"></path> <path d="m125714.15 97380.69 5401.81 339.31c682.31 43.15 1278.56-435.18 1325.38-1062.07v-.49c-8.34-629.35-473.42-1171.42-1154.75-1218.25l-6892.44-474.16c-1817.93 592.33-2888.09 475.38-4529.25-76.74l-6394.01 548.2c-678.87 57.86-1130.72 589.14-1122.38 1218.25v.25c63.74 627.39 672.74 1105.22 1353.82 1062.32l5338.31-335.88-2805.96 2298.46c-505.54 414.09-548.2 1139.55-93.65 1611.99 453.81 472.69 1239.08 520.49 1744.38 105.91l3259.52-2670.14 54.18 3870.49c9.32 629.35 575.17 1145.43 1257.72 1147.39h.49c683.04 1.72 1234.67-511.42 1225.85-1140.53l-54.67-3891.32 3348.27 2684.11c516.82 414.58 1300.38 366.77 1741.68-105.91 441.79-472.44 380.5-1197.9-136.07-1611.99l-2868.23-2299.2zM101784.91 6705.38l-870.35 16789.43-7064.79-5937.75c-1030.69-860.3-1230.99-562.91-537.17 285.38l7511.98 9189.67-213.79 12291.06-12656.86-10215.95c-1515.39-1130.97-2041.52-1482.05-2110.66-1330.78-57.12 124.06 73.55 503.09 1244.72 1799.05l13377.65 14709.41-284.15 11093.41-20913.91-16846.55c-386.14-311.36-740.66-521.23-910.8-460.67-125.04 44.62-295.18 127.49 430.03 979.7l21118.62 22837.99-816.17 21138.97c16.67 1269.98 1485.23 1926.78 3037.4 1995.92v4.41l68.16-1.72 67.67 1.72v-4.41c1552.17-69.14 3020.73-725.95 3037.4-1995.92l-816.17-21138.97 21119.11-22837.99c724.72-852.21 555.06-935.08 430.03-979.7-170.15-60.56-525.15 149.31-910.8 460.67l-20914.4 16846.55-283.42-11093.41 13376.92-14709.41c1171.17-1295.96 1302.09-1605.61 1245.21-1729.67-69.87-151.27-595.52 130.43-2111.15 1261.4l-12656.37 10215.95-214.28-12291.06 7512.23-9189.67c693.58-848.29 493.77-1145.68-537.41-285.38l-7064.3 5937.75-870.6-16789.43c-14.96-1321.95-805.14-1321.95-819.6 0z" class="fil12"></path> <path d="M109196.37 97789.63 86182.1 69507.9c-840.93-1317.29-2008.67-780.37-2489.69.98L60362.12 98184.35c-293.71 388.84-316.76 877.95-55.16 1281.99 1148.13 1809.59 4766.82-2832.93 6030.43-3718.48l1262.62 5490.07 35166.81 42.17 555.55-5452.32c1342.06 702.41 6415.34 6101.77 6415.34 3036.17 0-261.11-114.25-506.52-272.63-722.27-105.18-143.42-171.37-199.08-268.71-352.06z" class="fil13"></path> <path d="m85449.04 75747.94 1973.37 21979.9c255.22 1824.79-9.07 2085.41-894.13 2132.24l-3111.2-1.72c-996.12 28.19-1548.49 135.33-1285.18-2091.54l2186.17-22006.63c110.33-1279.05 342.99-1694.85 581.3-1699.76 203-4.9 410.66 163.28 549.67 1687.5zM33285.14 99848.56c12731.88 0 23053.01 899.77 23053.01 2009.65 0 1110.13-10321.13 2009.65-23053.01 2009.65s-23053.01-899.53-23053.01-2009.65c0-1109.88 10321.13-2009.65 23053.01-2009.65z" class="fil12"></path> <g id="_1801664452672"> <path d="M19206.3 75002.63c2.94-1062.07 801.46-2075.85 2143.76-1999.35l418.01 25.01c374.37 440.08 808.81 819.6 1288.12 1123.36-714.67 117.68-1427.62 250.81-2137.63 413.11-547.22 125.28-1121.65 271.65-1712.26 437.87z" class="fil9"></path> <path d="M24624.54 64228.67c-2277.62 563.64-3954.58 3122.72-3263.45 5941.92 608.26 2480.62 2958.21 4277.71 5580.29 3580.7 2238.64-595.52 3870.73-3095.51 3182.3-5936.53-597.23-2463.7-2928.79-4221.81-5499.14-3586.09z" class="fil8"></path> <path d="M41349 64447.85c2277.38 563.64 3954.58 3122.47 3263.45 5941.67-608.26 2480.62-2958.46 4277.71-5580.29 3580.7-2238.88-595.27-3870.73-3095.26-3182.3-5936.28 597.23-2463.95 2928.55-4222.06 5499.14-3586.09z" class="fil9"></path> <path d="M57061.89 87660.71c1099.09 1133.66 2529.41 1837.3 4097.51 2117.77 2367.6 444.74 1991.26 4498.12-902.47 4173.51-4475.56-798.27-6212.1-2243.79-8935.43-5641.34-405.02 1595.56-10748.21 14855.53-12321.22 13568.4-273.12-355.5 229.23-1140.53 780.86-2139.1 1322.93-2394.81 1936.84-3927.85 2897.9-6529.1 1798.32-4869.06 2607.62-8585.58 3124.68-13595.12 1624.74 184.12 4818.06 1474.45 7013.8 2942.27 2537.01 1696.08 2316.36 3113.89 4244.37 5102.71z" class="fil10"></path> <path d="m56141.52 79955.05 149.8 106.16c2944.24 2104.29 857.36 4204.16-590.12 4074.96l-28.44-41.68-2.21-3.19-30.4-44.87-1.96-2.45-28.93-41.92-5.64-7.85-25.25-36.04-9.56-13.24-21.33-30.4-13.48-18.63-17.65-24.52-17.41-24.03-13.73-18.63-21.33-29.18-10.05-13.48-25.5-34.08-5.64-7.85-29.91-39.23-1.72-2.7-31.87-41.43-1.96-2.7-29.67-38.49-6.37-7.85-25.74-32.85-10.3-12.75-36.29-45.6-17.9-22.31-18.63-22.56-13.73-17.41-23.05-27.46-9.81-12.01-26.97-32.12-34.32-40.7-2.94-3.43-1.47-1.72-33.34-38.98-2.45-2.7-30.89-35.55-6.86-7.6-26.72-30.65-11.28-12.26-22.56-25.5-15.45-17.16-18.63-20.35-19.86-21.82-14.46-15.69-24.52-25.99-10.05-10.79-28.93-30.89-5.88-6.13-33.59-35.3-1.23-1.23-35.3-36.29-3.19-3.19-32.12-33.1-7.6-7.6-28.19-28.19-12.26-12.26-23.78-23.78-16.92-16.43-19.61-18.88-21.33-20.84-14.96-14.46-26.48-25.25-10.3-10.05-31.63-29.18-5.64-5.64-36.29-33.83-.98-.74-37.76-34.57-3.68-3.43-34.57-30.89-8.34-7.6-29.91-26.72-13.48-12.01-25.01-22.07-18.63-16.18-20.59-17.65-23.54-20.35-15.45-13.48-28.93-24.27-11.03-9.32-34.08-28.68-5.88-4.9-39.23-32.61-.98-.49-40.7-33.1-4.41-3.68-36.53-29.42-9.56-7.85-31.87-25.25-14.71-11.77-27.21-21.08-20.35-15.94-21.57-16.67-25.99-20.35-16.67-12.5-31.38-24.03-11.52-8.34-37.27-28.44-5.88-4.17-43.39-32.36h-.25l-44.13-32.61-5.15-3.68-39.23-28.44-11.03-7.85-34.08-24.27-16.67-12.01-28.68-20.1-22.56-15.94-23.05-16.18-28.68-20.1-17.65-11.77-34.81-24.27-11.77-8.09-41.19-27.7-5.88-4.17-47.56-31.87c-129.94-86.79-267.97-175.79-412.13-265.76 1206.97-150.78 2381.82-698.73 3229.37-1572.51zm-7885.13-664.65c-842.16-294.45-1653.91-508.73-2349.95-587.92l-917.18-103.95c-38.49 371.43-75.76 743.11-115.47 1114.29-132.39 1245.7-300.09 2480.87-502.11 3716.03l-2.45 14.46c-803.17 3864.11-2215.1 8791.52-3848.42 12722.56l-1.72 3.92-21.33 48.79-42.66 97.09-12.5 28.44-9.07 20.1-21.33 48.54-13.24 28.93-8.34 19.37-21.82 48.54-13.24 29.67-8.34 18.88-21.82 48.3-13.73 30.4-8.09 18.14-22.07 48.54-14.22 30.65-29.91 66.2-14.46 31.38-7.85 16.92-22.07 48.54-14.96 32.12-7.36 16.18-22.56 48.3-15.2 32.85-7.11 15.69-22.8 48.3-15.69 33.59-6.86 14.71-22.8 48.54-15.94 34.08-6.86 14.22-23.05 48.54-16.67 35.06-6.13 13.24-23.05 48.54-17.16 35.55-6.13 12.75-23.29 48.54-17.41 36.29-6.13 12.26-23.54 48.3-17.65 37.02-5.88 11.52-23.54 48.79-18.39 37.51-5.39 10.79-24.03 48.54-18.88 38.49-4.9 10.3-24.27 48.54-19.37 38.98-4.9 9.56-24.03 48.79-20.1 39.96-4.17 8.58-24.76 48.79-20.35 40.7-4.17 8.09-24.76 48.79-20.84 41.43-3.92 7.36-25.01 49.03-21.57 41.92-3.43 6.86-25.25 49.03-22.07 42.66-3.19 6.37-25.25 48.79-22.8 43.64-2.94 5.64-25.5 49.03-23.29 44.38-2.7 4.9-25.74 49.03-23.78 45.36-1.96 4.17-26.48 49.28-24.27 45.85-1.96 3.68-26.23 49.28-25.01 46.58-1.47 2.7-26.72 49.77-25.5 47.56-1.23 1.96-26.97 49.52-26.23 48.54-.74 1.47-27.21 49.77-26.97 49.28-.25.49-27.46 50.01-27.7 50.01-9.32 16.92-9.56 17.16-3.43 6.37-6.13 10.79-9.81 17.41-7.11 12.99-2.7 4.41-10.05 17.41-10.05 18.14-.98 1.72-9.32 15.94-10.3 17.9-4.66 8.34-5.64 9.81-10.3 18.14-9.07 15.45-1.47 2.94-10.79 18.39-10.79 18.63-1.96 3.68-8.83 14.71-10.79 18.63-6.13 10.79-4.66 8.09-11.03 19.12-10.3 17.9-.74 1.23-11.28 18.88-11.03 19.37-3.43 6.13-7.85 13.24-11.28 19.37-7.6 13.24-3.68 6.13-11.28 19.86-11.28 19.61-.49.74-11.03 19.12-11.28 19.61-4.9 8.34-6.62 11.77-11.28 20.1-9.07 15.69-2.45 4.41-11.77 20.1-11.28 20.59-1.72 2.94-9.81 17.16-11.52 20.59-5.88 10.54-5.39 10.05-11.77 20.35-10.05 18.39-1.23 2.45-11.52 20.84-11.52 20.59-2.7 5.39-8.58 15.45-11.52 21.08-6.86 12.99-4.41 8.09-11.28 21.08-11.03 20.59-.25.49-11.28 21.08-11.03 21.33-3.92 7.6-7.36 13.73-11.28 21.33-7.85 15.45-3.19 5.88-10.79 21.57-11.03 21.33-.98 2.21-9.81 19.37-10.79 21.57-4.9 10.05-5.88 11.77-10.79 21.57-8.34 18.14-1.96 3.68-10.3 21.82-10.54 21.82-1.96 4.17-8.34 17.65-10.05 21.82-5.88 12.5-4.17 9.56-10.05 21.82-9.32 20.59-.49 1.47c-2247.71 3420.11-4270.6 2909.67-4411.57-1254.78l-651.66-19198.7c161.57-1548.49-438.36-4778.1 3565.25-5057.35 2328.62-162.06 7213.86 25.25 10494.46 740.17-60.31 1188.83 328.28 2401.19 972.83 3487.78z" class="fil9"></path> <path d="M56419.79 77593.58c-693.09 3182.3-5456.24 4176.21-7167.27 1561.24-2918.74-4351.51 732.81-7486.48 3948.45-6853.21 2056.48 405.02 3850.63 2391.62 3218.83 5291.98z" class="fil10"></path> <path d="M9261.02 87660.71c-1099.34 1133.66-2529.66 1837.3-4097.76 2117.77-2367.6 444.74-1991.26 4498.12 902.47 4173.51 4475.56-798.27 6138.54-2169.99 8935.43-5641.34 405.02 1595.56 10748.21 14855.53 12320.97 13568.4 273.12-355.5-228.99-1140.53-780.62-2139.1-1322.93-2394.81-1936.84-3927.61-2897.9-6529.1-1798.32-4869.06-2618.9-8619.41-3135.96-13628.95-6625.21 1348.92-7832.42 4556.47-11246.64 8078.81z" class="fil11"></path> <path d="M28577.89 74234.52c2459.78-451.85 4872.49-1038.05 7320.51-1384.47 352.55 489.85 783.81 920.86 1288.36 1268.75a23462.83 23462.83 0 0 0-460.92 27.21c-1816.95 126.75-3374.02 850.49-4021.02 2658.37-416.3 1163.08-270.67 2069.47-390.55 3219.56l-6.62 63.5 470.97 13881.72-168.92 5349.35c-131.17 4166.4-2318.32 4653.8-4567.99 1227.81l-66.2-102.97c-201.53-421.94-453.32-822.05-634.01-1149.35-405.75-734.28-766.4-1445.76-1099.58-2156.02-2012.1-4529.01-3736.62-10773.47-4510.38-15088.93-119.15-831.37-223.1-1682.35-313.82-2561.77l-103.95-1007.15-987.79 201.28c-933.11 190.01-1820.63 425.12-2667.93 726.19 652.89-1035.84 1077.52-2197.45 1099.34-3350.48 769.1-213.05 1559.77-412.62 2364.17-596.5 2565.94-586.44 4909.27-759.04 7456.33-1226.09zm14311.75 18.88c505.29-311.61 962.29-706.33 1353.09-1167.5a18312.04 18312.04 0 0 1 1801.99 538.88c622.97 209.13 947.58 666.37 1027.5 1192.5-1266.05-254.98-2720.4-442.04-4182.59-563.89zm-31617.99 9733.95c-1313.62 762.48-4845.03-967.68-1261.89-3999.2 1005.93 969.89 2425.95 1505.34 3813.12 1499.94-255.47 199.32-507.25 411.15-755.61 636.21-638.18 578.35-1225.11 1211.63-1795.62 1863.04z" class="fil8"></path> <path d="M9616.27 77512.18c693.09 3182.05 5456.24 4175.97 7167.03 1561.24 2918.74-4351.75-732.81-7486.73-3948.2-6853.21-2056.72 404.77-3850.87 2391.62-3218.83 5291.98z" class="fil11"></path> <path d="M48777.38 85842.05c1445.76 2230.3 368.98 3415.45-38.98 3147.97-436.4-287.34-706.09-1983.17-489.6-3066.09-2298.71 3557.4-5389.55 1562.22-365.3-374.13-1491.12-782.83-1669.11-4058.04-1490.14-5837.23 471.22 72.57 1803.71 528.83 2254.82 692.6-126.02 1535.25-290.53 3142.82-67.67 4694.25 1465.13-887.51 2713.04-1355.54 3780.26-2852.54 521.72 277.78 1249.87 837.74 1688.72 1291.06-1293.27 1535.98-3820.47 2293.31-5272.12 2304.1zM40072.4 81143.87c2563.98 2402.41 2045.2 3909.96 1436.2 3686.85-651.66-240.02-1769.14-2163.13-2022.89-3475.52-946.35 4675.13-5371.41 3040.59-608.51-356.97-1673.52-461.65-3144.29-3202.4-3842.05-5508.95-14.71-48.54 341.52-188.04 802.44-290.28 563.89-125.04 1131.7-152.5 1712.26-177.26 13.48-.25 174.56 965.97 561.93 2067.02 494.75 1407.03 1252.08 3041.81 1377.85 3230.1 1051.53-1482.54 2319.79-3243.34 2467.63-5218.42 946.84 76.98 2552.21 163.04 3158.51 341.28-807.83 2078.3-3330.13 5371.66-5043.37 5702.14zM17545.77 85754.03c-1446.01 2230.06-369.22 3415.45 38.74 3147.73 436.65-287.09 705.84-1983.17 489.6-3066.09 2298.71 3557.89 5389.55 1562.46 365.55-374.13 1490.87-782.83 1686.27-3978.36 1506.81-5757.31-438.36 53.45-1803.46 506.52-2255.07 670.05 126.75 1535.25 273.85 3085.94 51.24 4636.88-1271.2-770.08-2397.51-1253.3-3373.77-2341.86-71.59-79.68-153.97-180.44-231.44-260.12-40.7-41.92-1513.18 1360.69-1468.56 1403.35 97.09 93.16 208.39 174.56 318.23 257.67 1395.75 1055.45 3381.86 1675 4558.67 1683.82zM26420.9 81096.8c-2463.46 2506.36-1883.88 3991.11-1284.69 3742.75 641.85-266.25 1679.65-2233.98 1879.47-3555.69 1136.6 4631.98 5491.05 2816.5 593.55-381.97 2107.72-675.44 3451.74-4613.1 3946.24-7269.51-653.62 121.11-1839.75 386.88-2901.09 567.81-6.13 885.31-63.99 1712.75-289.54 2643.66-279.25 1153.28-696.04 2318.07-1395.5 3404.91-1110.86-1437.92-2472.04-3407.85-2700.29-5375.33-1112.82 183.14-2120.71 364.81-3091.58 571.49 891.68 2043.24 3518.18 5392.25 5243.43 5651.88z" class="fil12"></path> </g> </g> </svg> 