<svg xmlns="http://www.w3.org/2000/svg" width="222.667" height="100"><path d="m1140.65 435.598-.2.207-72.78 112.32a3.78 3.78 0 0 1-1.05 1.07l-.57 43.903a2.867 2.867 0 0 1-.84 1.992c-.53.531-1.24.824-1.97.824a2.744 2.744 0 0 1-2.74-2.816l.56-43.887a3.79 3.79 0 0 1-1.07-1.09L989.598 434.98a4.663 4.663 0 0 1-.106-4.726 4.555 4.555 0 0 1 4.008-2.399h143.92c2.51 0 4.53 2.071 4.49 4.618a4.588 4.588 0 0 1-1.26 3.125zm-138.92 1.504 62.23 99.953 17.9-27.571-45.32-72.382zm83.27 0-19.13 29.507 21.49 34.34 41.41-63.847H1085" style="fill:#1f5839;fill-opacity:1;fill-rule:nonzero;stroke:none" transform="matrix(.13333 0 0 -.13333 0 100)"/><path d="m1103.07 579.84 5.98 7.93c.75 1 .86 2.355.3 3.48a3.308 3.308 0 0 1-2.95 1.859h-35.66l.08-5.722.27-20.821h35.65c1.24 0 2.37.723 2.9 1.86a3.354 3.354 0 0 1-.39 3.48l-6.18 7.934" style="fill:#01b6b2;fill-opacity:1;fill-rule:nonzero;stroke:none" transform="matrix(.13333 0 0 -.13333 0 100)"/><path d="m1501.29 166.109 1.14-86.215h9.8c6.31 0 13.2.602 19.19 2.829 4.46 1.664 8.56 4.195 11.87 7.937 3.29 3.73 5.49 8.297 6.91 13.281 1.83 6.383 2.37 13.364 2.28 20.071-.08 5.906-.81 11.761-2.46 17.414-1.41 4.855-3.63 9.16-6.81 12.867-3.34 3.918-7.48 6.676-11.99 8.574-6.28 2.645-13.99 3.242-20.62 3.242zm95.08-41.05c.17-12.618-1.12-25.594-5.37-37.301-3.73-10.27-9.29-19.156-16.97-26.152-7.8-7.106-16.98-11.77-26.7-14.637-11.58-3.418-24.01-4.492-35.99-4.492h-35.92c-3.69 0-7.21 1.086-10.21 3.586-3.67 3.07-5.15 7.73-5.22 12.675l-1.7 128.297c-.07 4.942 1.29 9.61 4.87 12.668 2.94 2.504 6.42 3.594 10.12 3.594h38.58c11.89 0 24.41-1.137 35.92-4.895 9.46-3.089 18.42-7.851 26.04-14.964 7.3-6.801 12.84-15.2 16.63-24.922 4.12-10.582 5.77-22.039 5.92-33.457" style="fill:#78a35e;fill-opacity:1;fill-rule:evenodd;stroke:none" transform="matrix(.13333 0 0 -.13333 0 100)"/><path d="M1332.68 134.148c.02-1.207.04-2.414.05-3.617l1.03-77.031c.03-2.3-.66-4.484-2.04-6.348-1.37-1.765-3.18-2.867-5.13-3.629-1.89-.742-4-1.109-6.01-1.355-2.66-.32-5.4-.39-8.07-.39-2.65 0-5.35.07-7.99.39-2.02.246-4.14.617-5.92 1.336-2.06.723-4.11 2.055-5.42 4.015-1.19 1.711-1.86 3.801-1.89 5.981l-1.76 132.254c-.07 5.375 1.73 10.211 5.84 13.488 3.55 2.836 7.78 4.055 12.24 4.055h17.47c3.1 0 6.34-.195 9.38-.906 2.79-.649 5.44-1.739 7.87-3.344 2.52-1.656 4.68-3.871 6.52-6.313 1.95-2.593 3.67-5.453 5.17-8.207l31.84-53.757c1.85-3.247 3.67-6.454 5.51-9.641.62-1.074 1.23-2.149 1.84-3.227-.03 1.688-.06 3.371-.08 5.063l-.92 69.074c-.03 2.395.76 4.649 2.22 6.469 1.32 1.66 3.14 2.789 5.05 3.562 1.99.801 4.17 1.176 6.29 1.391 2.62.266 5.31.301 7.94.301 2.57 0 5.18-.043 7.74-.301 2.12-.215 4.32-.606 6.36-1.496 1.99-.91 3.78-2.16 4.98-3.945a10.7 10.7 0 0 0 1.89-5.981l1.76-132.25c.04-2.66-.44-5.238-1.56-7.754-1.12-2.324-2.59-4.223-4.46-5.758-1.84-1.515-3.96-2.558-6.23-3.187a23.342 23.342 0 0 0-6.3-.848h-13.91c-3 0-6.06.246-9.05.965-3.02.785-5.76 2.172-8.22 4.066-2.58 1.985-4.76 4.493-6.66 7.184-2.21 3.145-4.21 6.527-6.05 9.82l-40.68 68.758c-.21.371-.43.742-.64 1.113M1039 80.894h60.51c2.19 0 4.35-.59 6.08-1.773 1.79-1.144 3.13-2.855 4.07-4.86.84-1.784 1.29-3.75 1.57-5.695.31-2.199.39-4.472.39-6.695.01-2.223-.05-4.504-.35-6.703-.26-1.832-.7-3.66-1.41-5.465-.93-2.223-2.27-4.094-4.15-5.305-1.72-1.203-3.85-1.855-6.08-1.855h-91.62c-4.12 0-8.037 1.101-11.346 3.594-4.074 3.058-5.684 7.726-5.695 12.672l-.422 133.644c-.012 2.527.945 4.879 2.734 6.789 1.625 1.653 3.641 2.653 5.75 3.289 2.089.629 4.379.918 6.549 1.145 2.97.312 5.99.387 8.98.387 3.02 0 6.1-.067 9.09-.391 2.14-.227 4.39-.52 6.45-1.141 2.13-.636 4.16-1.644 5.78-3.301 1.79-1.898 2.76-4.25 2.77-6.777l.35-111.559" style="fill:#72a845;fill-opacity:1;fill-rule:evenodd;stroke:none" transform="matrix(.13333 0 0 -.13333 0 100)"/><path d="M1459.41 320.723c.19-13.625-1.27-27.61-5.98-40.227-4.15-11.109-10.34-20.664-18.83-28.176-8.65-7.656-18.83-12.668-29.56-15.738-12.83-3.676-26.6-4.836-39.86-4.836h-39.84c-4.05 0-7.91 1.156-11.21 3.836-4.05 3.281-5.71 8.32-5.79 13.688l-1.84 138.234c-.07 5.363 1.46 10.398 5.43 13.684 3.23 2.683 7.05 3.835 11.1 3.835h42.79c13.17 0 27.04-1.214 39.78-5.265 10.45-3.317 20.36-8.418 28.83-16.086 8.06-7.305 14.21-16.34 18.42-26.856 4.57-11.398 6.4-23.75 6.56-36.093zm-105.45 44.234 1.24-92.894h10.98c7.02 0 14.68.652 21.35 3.066 4.95 1.781 9.52 4.523 13.22 8.582 3.64 4.004 6.09 8.914 7.68 14.301 2.02 6.859 2.62 14.367 2.52 21.586-.08 6.363-.89 12.656-2.71 18.73-1.58 5.25-4.04 9.875-7.54 13.852-3.73 4.254-8.35 7.23-13.34 9.269-7.01 2.867-15.57 3.508-22.95 3.508h-10.45M1184.91 269.938h84.23c6.31 0 11.54-5.219 11.62-11.602l.22-17.277c.09-6.379-5-11.598-11.31-11.598h-84.23c-6.31 0-11.53 5.219-11.62 11.598l-.23 17.277c-.08 6.383 5.01 11.602 11.32 11.602M1183.14 404.059h84.24c6.3 0 11.53-5.215 11.61-11.594l.23-17.281c.08-6.379-5.01-11.598-11.31-11.598h-84.23c-6.31 0-11.54 5.219-11.63 11.598l-.22 17.281c-.08 6.379 5.01 11.594 11.31 11.594M1183.99 338.297h84.22c6.32 0 11.54-5.219 11.63-11.598l.23-17.281c.07-6.379-5.02-11.598-11.32-11.598h-84.23c-6.31 0-11.54 5.219-11.62 11.598l-.22 17.281c-.09 6.379 5 11.598 11.31 11.598" style="fill:#78a35e;fill-opacity:1;fill-rule:evenodd;stroke:none" transform="matrix(.13333 0 0 -.13333 0 100)"/><path d="M1612.24 367.293c-.55 0-1.03.094-1.47.281-.43.192-.79.449-1.07.778-.29.316-.5.695-.63 1.132a4.46 4.46 0 0 0-.19 1.344v4.012c0 .844.08 1.562.24 2.172.17.597.47 1.16.92 1.672.43.523 1.03 1.011 1.78 1.488.75.476 1.73 1.012 2.92 1.609l21.63 11.481c1.29.672 2.68 1.343 4.17 2.035 1.49.695 2.94 1.308 4.34 1.859v.071c-1.72-.098-3.42-.172-5.13-.219-1.7-.047-3.46-.074-5.27-.074h-24.21c-.23 0-.46.062-.65.195-.18.133-.34.367-.48.684-.13.316-.23.757-.3 1.304-.07.551-.11 1.258-.11 2.11 0 .843.04 1.539.11 2.089.07.547.17.973.3 1.278.13.32.3.539.48.648.19.121.42.184.65.184h41.57c1.12 0 1.96-.332 2.53-.988.56-.649.84-1.454.84-2.418v-5.04c0-.898-.08-1.671-.23-2.292a4.75 4.75 0 0 0-.78-1.657c-.35-.488-.85-.953-1.48-1.379-.63-.425-1.42-.867-2.34-1.316l-16.93-8.992c-1.02-.524-2.03-1.035-3.02-1.547a74.479 74.479 0 0 0-2.97-1.477c-.98-.476-1.96-.941-2.91-1.394-.96-.461-1.92-.903-2.87-1.328v-.039c1.68.074 3.42.136 5.22.171 1.82.04 3.56.051 5.2.051h21.72c.23 0 .45-.074.64-.222.18-.133.36-.375.5-.704.15-.343.25-.785.31-1.332.06-.546.08-1.253.08-2.109 0-.816-.02-1.5-.08-2.051-.06-.55-.16-.965-.31-1.265-.14-.297-.32-.516-.5-.625-.19-.121-.4-.18-.64-.18zm.21-47.957c-.85-.277-1.54-.461-2.04-.535-.5-.074-.88.023-1.13.281-.24.266-.4.731-.47 1.402-.06.657-.08 1.582-.08 2.743 0 1.222.01 2.171.05 2.843.03.684.11 1.196.22 1.563.11.355.25.597.45.742.18.148.44.27.74.355l9.3 3.04v17.441l-9.04 2.914c-.34.102-.62.223-.84.383-.23.144-.41.402-.54.742-.14.344-.22.828-.27 1.465-.05.633-.07 1.461-.07 2.488 0 1.098.04 1.949.11 2.574.07.621.24 1.047.51 1.278.28.246.67.332 1.17.258.5-.075 1.16-.258 2-.54l41.05-14.246c.4-.132.73-.304.98-.5.25-.183.43-.484.57-.902.13-.426.22-1 .26-1.742.03-.735.05-1.711.05-2.93 0-1.402-.02-2.527-.05-3.355-.04-.84-.13-1.489-.26-1.95-.14-.464-.33-.796-.58-1.003a3.552 3.552 0 0 0-1.08-.512zm33.96 21.227v.035l-19.68 6.441v-12.976zm4.94-52.723c-.69 0-1.28.023-1.78.086-.49.058-.88.144-1.17.269-.31.121-.52.266-.66.45a.877.877 0 0 0-.22.582v11.566h-37.29c-.23 0-.45.074-.65.234-.18.157-.34.414-.46.766-.11.355-.21.844-.28 1.453-.07.609-.11 1.367-.11 2.27 0 .902.04 1.66.11 2.269a8.1 8.1 0 0 0 .28 1.449c.12.356.28.61.46.77.2.16.42.23.65.23h37.29v11.567c0 .234.07.437.22.609.14.16.35.309.66.43.29.105.68.203 1.17.265.5.063 1.09.086 1.78.086.71 0 1.32-.023 1.82-.086.5-.062.9-.16 1.2-.265.3-.121.51-.27.64-.43.13-.172.2-.375.2-.609v-32.574a.996.996 0 0 0-.2-.582c-.13-.184-.34-.329-.64-.45-.3-.125-.7-.211-1.2-.269-.5-.063-1.11-.086-1.82-.086zm-25.16-43.199c-2.83 0-5.37.414-7.6 1.257-2.25.829-4.14 2.051-5.69 3.672-1.55 1.621-2.73 3.625-3.54 6.004-.81 2.391-1.22 5.121-1.22 8.219 0 2.906.37 5.516 1.09 7.82.73 2.321 1.83 4.27 3.3 5.867 1.48 1.602 3.33 2.821 5.53 3.661 2.21.843 4.78 1.269 7.74 1.269h28.13c.23 0 .45-.074.64-.219.18-.132.34-.394.47-.753.12-.372.21-.86.28-1.458.07-.585.11-1.351.11-2.277 0-.894-.04-1.648-.11-2.234-.07-.598-.16-1.074-.28-1.426-.13-.355-.29-.613-.47-.77a.97.97 0 0 0-.64-.23h-27.33c-1.84 0-3.43-.234-4.78-.684-1.35-.453-2.47-1.101-3.35-1.953a8.266 8.266 0 0 1-1.99-3.035c-.43-1.183-.65-2.504-.65-3.953 0-1.48.23-2.809.68-3.965a7.889 7.889 0 0 1 1.98-2.976c.88-.805 1.95-1.442 3.22-1.879 1.28-.438 2.73-.66 4.35-.66h27.87c.23 0 .45-.075.64-.219.18-.137.34-.391.47-.746.12-.356.21-.84.28-1.45.07-.609.11-1.367.11-2.269 0-.902-.04-1.649-.11-2.234-.07-.582-.16-1.059-.28-1.415-.13-.355-.29-.609-.47-.746a1.05 1.05 0 0 0-.64-.218zm-16.03-44.414c-.26 0-.48.046-.66.148-.19.094-.33.313-.45.668-.12.363-.2.879-.25 1.574-.05.696-.07 1.633-.07 2.817 0 1 .02 1.793.07 2.39.05.602.13 1.074.27 1.418.13.34.29.582.5.731.21.136.45.257.73.351l10.36 4.176c1.17.5 2.22.984 3.12 1.461.92.477 1.67 1.016 2.28 1.598a5.84 5.84 0 0 1 1.38 2.039c.31.757.46 1.648.46 2.648v2.938h-17.67c-.23 0-.45.074-.64.23-.19.164-.35.418-.47.774-.11.351-.21.824-.28 1.425-.07.586-.11 1.352-.11 2.27 0 .902.04 1.656.11 2.265.07.61.17 1.086.28 1.442.12.355.28.609.46.746.2.144.42.219.65.219h42.01c1.05 0 1.81-.27 2.27-.805.47-.539.7-1.199.7-1.977v-11.984c0-1.207-.03-2.219-.08-2.996-.05-.785-.11-1.5-.17-2.148-.27-1.856-.72-3.524-1.36-5.012-.64-1.488-1.48-2.758-2.52-3.793a10.382 10.382 0 0 0-3.67-2.383c-1.41-.547-3.03-.816-4.88-.816-1.53 0-2.95.195-4.22.586-1.28.402-2.42.976-3.42 1.746-1 .754-1.86 1.695-2.59 2.816-.75 1.121-1.34 2.402-1.8 3.828a10.26 10.26 0 0 0-1.2-1.949 10.424 10.424 0 0 0-1.75-1.719 15.947 15.947 0 0 0-2.33-1.527c-.86-.477-1.85-.938-2.95-1.391l-9.14-3.914c-.9-.355-1.56-.597-1.99-.711-.41-.121-.74-.179-.98-.179zm31.41 12.148c1.52 0 2.82.344 3.85 1.039 1.05.695 1.79 1.828 2.22 3.402.12.477.21 1.012.28 1.622.08.609.11 1.453.11 2.527v4.219h-13.1v-4.793c0-1.344.16-2.5.49-3.504.31-1.012.77-1.84 1.35-2.512a5.402 5.402 0 0 1 2.09-1.496c.8-.332 1.71-.504 2.71-.504zm-.42-50.723c-2.61 0-4.9.403-6.9 1.223-2.02.805-3.7 1.984-5.07 3.547-1.37 1.551-2.41 3.453-3.13 5.711-.72 2.254-1.07 4.914-1.07 7.976v3.868h-14.75c-.25 0-.45.074-.65.23-.18.16-.34.418-.46.77-.12.355-.21.828-.28 1.429-.07.582-.11 1.352-.11 2.27 0 .902.04 1.656.11 2.265.07.61.17 1.086.28 1.442.12.351.28.609.46.742.2.148.42.223.65.223h41.61c1.12 0 1.96-.297 2.53-.879.56-.586.84-1.356.84-2.309v-10.906c0-1.094-.04-2.145-.13-3.133-.08-.988-.26-2.172-.53-3.562-.28-1.379-.78-2.782-1.53-4.196a12.431 12.431 0 0 0-2.8-3.636 11.84 11.84 0 0 0-3.98-2.293c-1.51-.528-3.21-.782-5.09-.782zm-.68 9.809c1.62 0 2.96.293 4.01.867 1.05.57 1.83 1.281 2.33 2.121.51.84.82 1.719.95 2.637.14.926.2 1.879.2 2.863v4.028h-15.74v-4.247c0-1.511.21-2.769.61-3.792.4-1.012.98-1.856 1.71-2.5.72-.649 1.6-1.137 2.61-1.477 1.01-.332 2.12-.5 3.32-.5zm-28.02-49.981c-.85-.277-1.54-.464-2.04-.535-.5-.074-.88.024-1.13.282-.24.265-.4.73-.47 1.402-.06.66-.08 1.586-.08 2.746 0 1.219.01 2.172.05 2.84.03.683.11 1.195.22 1.562.11.356.25.598.45.746.18.145.44.266.74.352l9.3 3.039v17.441l-9.04 2.918c-.34.098-.62.219-.84.379-.23.145-.41.403-.54.743-.14.343-.22.828-.27 1.464-.05.633-.07 1.461-.07 2.489 0 1.097.04 1.949.11 2.574.07.621.24 1.047.51 1.281.28.242.67.328 1.17.254.5-.074 1.16-.254 2-.535l41.05-14.25c.4-.133.73-.305.98-.5.25-.184.43-.484.57-.902.13-.43.22-1 .26-1.743.03-.734.05-1.711.05-2.929 0-1.403-.02-2.528-.05-3.352-.04-.844-.13-1.488-.26-1.953-.14-.465-.33-.797-.58-1.004a3.674 3.674 0 0 0-1.08-.512zm33.96 21.227v.039l-19.68 6.442v-12.981zm-36.25-62.031c-.26 0-.48.047-.66.148-.19.098-.33.317-.45.672-.12.363-.2.875-.25 1.57-.05.696-.07 1.637-.07 2.82 0 1 .02 1.794.07 2.387.05.598.13 1.075.27 1.418.13.34.29.586.5.73.21.134.45.259.73.356l10.36 4.172c1.17.5 2.22.989 3.12 1.465.92.477 1.67 1.012 2.28 1.598a5.767 5.767 0 0 1 1.38 2.035c.31.758.46 1.648.46 2.648v2.938h-17.67c-.23 0-.45.074-.64.234-.19.156-.35.414-.47.766-.11.355-.21.832-.28 1.43-.07.585-.11 1.355-.11 2.269 0 .898.04 1.66.11 2.27.07.609.17 1.086.28 1.437.12.356.28.613.46.746.2.149.42.219.65.219h42.01c1.05 0 1.81-.27 2.27-.805.47-.539.7-1.195.7-1.976v-11.981c0-1.207-.03-2.219-.08-3-.05-.781-.11-1.5-.17-2.148-.27-1.852-.72-3.524-1.36-5.012-.64-1.488-1.48-2.758-2.52-3.793a10.314 10.314 0 0 0-3.67-2.379c-1.41-.55-3.03-.816-4.88-.816-1.53 0-2.95.191-4.22.582-1.28.402-2.42.976-3.42 1.746-1 .754-1.86 1.695-2.59 2.816-.75 1.125-1.34 2.403-1.8 3.832-.32-.699-.73-1.34-1.2-1.953-.48-.61-1.07-1.183-1.75-1.719a15.988 15.988 0 0 0-2.33-1.523c-.86-.477-1.85-.941-2.95-1.39l-9.14-3.919c-.9-.351-1.56-.597-1.99-.707-.41-.12-.74-.183-.98-.183zm31.41 12.148c1.52 0 2.82.344 3.85 1.04 1.05.695 1.79 1.827 2.22 3.402.12.476.21 1.011.28 1.62.08.614.11 1.454.11 2.528v4.219h-13.1v-4.793c0-1.34.16-2.5.49-3.5.31-1.012.77-1.844 1.35-2.516a5.498 5.498 0 0 1 2.09-1.5c.8-.328 1.71-.5 2.71-.5zm-31.23-52.77c-.27 0-.5.06-.7.196-.2.133-.36.379-.5.754-.13.367-.23.867-.3 1.515-.07.645-.11 1.45-.11 2.426 0 1.551.06 2.66.18 3.344.11.684.29 1.172.54 1.461.23.293.52.527.85.695l21.96 13.98h-21.96c-.25 0-.49.075-.68.223-.18.133-.35.387-.48.743-.13.355-.23.832-.3 1.43a19.72 19.72 0 0 0-.11 2.265c0 .902.04 1.66.11 2.27.07.613.17 1.085.3 1.437.14.355.3.613.48.773.19.157.43.23.68.23h43.59c.27 0 .49-.073.68-.23.18-.16.34-.418.47-.773.12-.352.21-.824.28-1.438.07-.609.11-1.367.11-2.27 0-.913-.04-1.683-.11-2.265-.07-.597-.16-1.074-.28-1.43-.13-.355-.29-.609-.47-.742a1.059 1.059 0 0 0-.68-.222h-19.7l19.66-13.54c.31-.171.56-.366.77-.609.21-.234.36-.55.49-.93.11-.374.19-.866.24-1.46.05-.602.08-1.356.08-2.281 0-.954-.04-1.735-.11-2.356a7.058 7.058 0 0 0-.31-1.488c-.12-.367-.29-.621-.47-.758-.2-.145-.41-.219-.65-.219-.41 0-.82.11-1.26.317-.42.218-1.09.62-2.04 1.218l-16.62 12.664-20.91-13.82c-.98-.527-1.63-.844-1.95-.95-.32-.112-.57-.16-.77-.16" style="fill:#749846;fill-opacity:1;fill-rule:nonzero;stroke:none" transform="matrix(.13333 0 0 -.13333 0 100)"/><path d="m1264.05 460.434.31-25.028a4.305 4.305 0 0 0-4.32-4.371h-96.83c-2.39 0-4.36 1.91-4.43 4.297l-.58 18.231a4.392 4.392 0 0 0 1.14 3.074l45.16 49.386c12.48 13.348 19.55 23.383 19.24 34.895-.26 9.578-8.91 17.211-18.47 16.668-7.71-.434-14.45-4.082-20.32-11.469-1.43-1.793-4.03-2.137-5.91-.789-5.2 3.723-14.91 10.664-20.01 14.313a4.423 4.423 0 0 0-1.1 6.047c9.7 14.75 26.29 26.429 51.55 26.429 27.29 0 51.57-17.82 51.93-47.449.22-18.051-4.24-31.699-25.02-53.691l-24.45-25.688.01-.465h47.67c2.42 0 4.41-1.961 4.43-4.39M1525.52 460.434l.3-25.028a4.305 4.305 0 0 0-4.32-4.371h-96.83c-2.39 0-4.36 1.91-4.43 4.297l-.57 18.231a4.339 4.339 0 0 0 1.13 3.074l45.16 49.386c12.49 13.348 19.56 23.383 19.25 34.895-.26 9.578-8.92 17.211-18.48 16.668-7.71-.434-14.44-4.082-20.32-11.469-1.43-1.793-4.03-2.137-5.91-.789-5.2 3.723-14.91 10.664-20.01 14.313-1.94 1.402-2.4 4.062-1.1 6.047 9.7 14.75 26.3 26.429 51.54 26.429 27.3 0 51.59-17.82 51.95-47.449.22-18.051-4.25-31.699-25.03-53.691l-24.44-25.688v-.465h47.67c2.42 0 4.41-1.961 4.44-4.39M1280.42 510.652c-.6 49.297 23.3 81.465 62.17 81.465 37.95 0 63.53-30.547 64.15-81.465.6-49.761-23.3-81.933-62.17-81.933-37.95 0-63.53 30.785-64.15 81.933zm87.91 0c-.34 28.004-8.89 46.516-25.32 46.516-14.57 0-24.33-15.27-23.96-46.516.34-28.007 8.91-46.984 25.1-46.984 15.03 0 24.56 15.273 24.18 46.984M1602.29 587.977c1.86 1.882 3.31 3.414 5.18 2.168l19.26-12.809c1.88-1.246 3.26-2.102 1.77-4.328-2.98-4.461-17.38-19.211-28.26-36.688l.85.012c34.13 0 56.31-20.258 56.69-53.148.37-32.137-20.75-56.086-55.71-56.086-49.18 0-65.92 39.238-58.55 75.988 5.98 29.859 37.36 63.223 58.77 84.891zm20.94-104.793c-.28 36.195-44.62 38.254-44.32 0 .1-33.149 44.42-33.61 44.32 0" style="fill:#1f5839;fill-opacity:1;fill-rule:nonzero;stroke:none" transform="matrix(.13333 0 0 -.13333 0 100)"/><path d="m1200.61 144.164-10.42-31.836h20.92zm30.13-92.531-7.83 23.984h-44.09l-7.47-23.172c-.44-1.535-1.1-3.117-2.09-4.535-1.34-2.035-3.32-3.398-5.58-4.289-2.08-.805-4.4-1.125-6.6-1.3-2.76-.212-5.55-.247-8.3-.247-2.92 0-5.95.047-8.85.387-3.22.379-6.32 1.476-8.5 3.992-2.27 2.606-2.94 5.934-2.45 9.293.36 2.492 1.16 5.059 1.97 7.496l44.4 127.969c.59 1.766 1.44 3.523 2.61 5.039 1.59 2.109 3.82 3.445 6.31 4.246 2.3.734 4.82.996 7.23 1.117 3.14.157 6.32.16 9.47.16 3.58 0 7.19 0 10.76-.16 2.56-.109 5.28-.355 7.74-1.062 2.58-.75 4.92-2.055 6.64-4.164l.12-.153.12-.156c1.16-1.601 2.01-3.402 2.59-5.301L1273.46 63c.81-2.473 1.61-5.074 1.98-7.594.51-3.515-.31-6.988-2.87-9.554l-.25-.235c-2.34-2.125-5.41-2.972-8.48-3.254-3.04-.277-6.16-.289-9.2-.289-3.06 0-6.17-.008-9.23.157-2.17.12-4.47.347-6.56.992-2.33.715-4.42 1.941-5.83 3.832-1.03 1.28-1.79 2.894-2.28 4.578" style="fill:#72a845;fill-opacity:1;fill-rule:evenodd;stroke:none" transform="matrix(.13333 0 0 -.13333 0 100)"/><path d="M1332.68 134.148c.02-1.207.04-2.414.05-3.617l1.03-77.031c.03-2.3-.66-4.484-2.04-6.348-1.37-1.765-3.18-2.867-5.13-3.629-1.89-.742-4-1.109-6.01-1.355-2.66-.32-5.4-.39-8.07-.39-2.65 0-5.35.07-7.99.39-2.02.246-4.14.617-5.92 1.336-2.06.723-4.11 2.055-5.42 4.015-1.19 1.711-1.86 3.801-1.89 5.981l-1.76 132.254c-.07 5.375 1.73 10.211 5.84 13.488 3.55 2.836 7.78 4.055 12.24 4.055h17.47c3.1 0 6.34-.195 9.38-.906 2.79-.649 5.44-1.739 7.87-3.344 2.52-1.656 4.68-3.871 6.52-6.313 1.95-2.593 3.67-5.453 5.17-8.207l31.84-53.757c1.85-3.247 3.67-6.454 5.51-9.641.62-1.074 1.23-2.149 1.84-3.227-.03 1.688-.06 3.371-.08 5.063l-.92 69.074c-.03 2.395.76 4.649 2.22 6.469 1.32 1.66 3.14 2.789 5.05 3.562 1.99.801 4.17 1.176 6.29 1.391 2.62.266 5.31.301 7.94.301 2.57 0 5.18-.043 7.74-.301 2.12-.215 4.32-.606 6.36-1.496 1.99-.91 3.78-2.16 4.98-3.945a10.7 10.7 0 0 0 1.89-5.981l1.76-132.25c.04-2.66-.44-5.238-1.56-7.754-1.12-2.324-2.59-4.223-4.46-5.758-1.84-1.515-3.96-2.558-6.23-3.187a23.342 23.342 0 0 0-6.3-.848h-13.91c-3 0-6.06.246-9.05.965-3.02.785-5.76 2.172-8.22 4.066-2.58 1.985-4.76 4.493-6.66 7.184-2.21 3.145-4.21 6.527-6.05 9.82l-40.68 68.758c-.21.371-.43.742-.64 1.113M1039 80.894h60.51c2.19 0 4.35-.59 6.08-1.773 1.79-1.144 3.13-2.855 4.07-4.86.84-1.784 1.29-3.75 1.57-5.695.31-2.199.39-4.472.39-6.695.01-2.223-.05-4.504-.35-6.703-.26-1.832-.7-3.66-1.41-5.465-.93-2.223-2.27-4.094-4.15-5.305-1.72-1.203-3.85-1.855-6.08-1.855h-91.62c-4.12 0-8.037 1.101-11.346 3.594-4.074 3.058-5.684 7.726-5.695 12.672l-.422 133.644c-.012 2.527.945 4.879 2.734 6.789 1.625 1.653 3.641 2.653 5.75 3.289 2.089.629 4.379.918 6.549 1.145 2.97.312 5.99.387 8.98.387 3.02 0 6.1-.067 9.09-.391 2.14-.227 4.39-.52 6.45-1.141 2.13-.636 4.16-1.644 5.78-3.301 1.79-1.898 2.76-4.25 2.77-6.777l.35-111.559M1094.14 298.57h-52.09l.75-57.457c.04-2.64-.85-5.109-2.45-7.109-1.58-1.977-3.8-3.156-6.22-3.922-2.21-.621-4.43-.965-6.61-1.215-3.09-.344-6.28-.418-9.39-.418-3.12 0-6.29.082-9.39.418-2.2.242-4.46.586-6.7 1.215-2.298.719-4.395 1.789-6.118 3.574-1.906 2.09-2.957 4.68-2.996 7.457l-1.992 151.68c-.036 2.777.945 5.367 2.8 7.457 1.676 1.785 3.75 2.863 5.922 3.547 2.164.68 4.524.996 6.764 1.242 3.1.336 6.26.422 9.38.422 3.11 0 6.31-.078 9.41-.422 2.18-.246 4.42-.59 6.64-1.211 2.44-.769 4.69-1.949 6.32-3.926 1.65-2 2.6-4.468 2.64-7.109l.68-51.613h52.09l-.68 51.613c-.04 2.777.94 5.367 2.78 7.441 1.63 1.754 3.64 2.836 5.91 3.579 2.25.636 4.47.988 6.65 1.226 3.15.34 6.36.422 9.52.422 3.07 0 6.21-.082 9.27-.422 2.23-.25 4.57-.566 6.73-1.238 2.19-.688 4.29-1.758 6.03-3.555 1.9-2.098 2.95-4.68 2.98-7.453l2-151.68c.03-2.769-.95-5.351-2.8-7.445-1.68-1.797-3.75-2.871-6.02-3.586-2.21-.621-4.43-.965-6.61-1.215-3.05-.34-6.18-.418-9.25-.418-3.16 0-6.38.078-9.54.418-2.19.242-4.41.59-6.68 1.227-2.29.742-4.32 1.828-5.99 3.578-1.9 2.074-2.95 4.664-2.99 7.441l-.75 57.457M1200.61 144.164l-10.42-31.836h20.92zm30.13-92.531-7.83 23.984h-44.09l-7.47-23.172c-.44-1.535-1.1-3.117-2.09-4.535-1.34-2.035-3.32-3.398-5.58-4.289-2.08-.805-4.4-1.125-6.6-1.3-2.76-.212-5.55-.247-8.3-.247-2.92 0-5.95.047-8.85.387-3.22.379-6.32 1.476-8.5 3.992-2.27 2.606-2.94 5.934-2.45 9.293.36 2.492 1.16 5.059 1.97 7.496l44.4 127.969c.59 1.766 1.44 3.523 2.61 5.039 1.59 2.109 3.82 3.445 6.31 4.246 2.3.734 4.82.996 7.23 1.117 3.14.157 6.32.16 9.47.16 3.58 0 7.19 0 10.76-.16 2.56-.109 5.28-.355 7.74-1.062 2.58-.75 4.92-2.055 6.64-4.164l.12-.153.12-.156c1.16-1.601 2.01-3.402 2.59-5.301L1273.46 63c.81-2.473 1.61-5.074 1.98-7.594.51-3.515-.31-6.988-2.87-9.554l-.25-.235c-2.34-2.125-5.41-2.972-8.48-3.254-3.04-.277-6.16-.289-9.2-.289-3.06 0-6.17-.008-9.23.157-2.17.12-4.47.347-6.56.992-2.33.715-4.42 1.941-5.83 3.832-1.03 1.28-1.79 2.894-2.28 4.578M991.813 18.473h662.067c1.33 0 2.43-1.114 2.43-2.477v-7.34c0-1.363-1.1-2.48-2.43-2.48H991.813c-1.336 0-2.43 1.117-2.43 2.48v7.34c0 1.363 1.094 2.477 2.43 2.477" style="fill:#78a35e;fill-opacity:1;fill-rule:evenodd;stroke:none" transform="matrix(.13333 0 0 -.13333 0 100)"/><path d="M1604.2 672.324h-18.55c-.79 0-1.49-.711-1.48-1.5l.11-7.957c.01-.867.73-1.5 1.52-1.5h7.4l.37-27.769c.05-3.953-2.37-6.008-4.58-6.008-2.14 0-3.1.711-4.06 1.66-.64.633-1.51.551-2.13 0l-5.3-5.297a1.657 1.657 0 0 1-.14-1.973c1.37-1.664 5.22-5.769 12.09-5.769 9.25 0 16.91 6.32 16.77 17.309l-.5 37.304c-.01.789-.65 1.5-1.52 1.5M1644.3 638.004c6.93 2.367 11.93 9.031 11.83 16.855-.13 9.563-8.22 17.469-17.94 17.469h-20.63c-.87 0-1.49-.715-1.48-1.504l.13-10.117h.01-.01l7.66-12.09-5.99-.004c-.88 0-1.5-.711-1.49-1.504l.38-28.609c.02-.789.66-1.5 1.52-1.5h9.34c.78 0 1.49.711 1.47 1.5l-.24 18.574h2.31l12.25-19.363c.16-.316.64-.711 1.28-.711h10.51c1.34 0 1.87 1.266 1.31 2.293zm-.35 16.855c.05-3.558-2.76-6.242-6.16-6.242h-.42l-7.9 12.09h8.17c3.39 0 6.27-2.531 6.31-5.848M1495.7 618.5c.01-.785.66-1.5 1.52-1.5h26.26c.79 0 1.49.715 1.48 1.5l-.11 7.957a1.517 1.517 0 0 1-1.52 1.504h-15.11l-.57 42.863a1.526 1.526 0 0 1-1.52 1.504h-9.64c-.79 0-1.5-.715-1.49-1.504l.7-52.324M1566.98 660.707c.8 0 1.5.633 1.49 1.504l-.12 8.613c-.01.789-.73 1.504-1.52 1.504h-32.64c-.79 0-1.49-.715-1.48-1.504l.11-8.613c.01-.871.73-1.504 1.52-1.504h32.64M1567.57 617c.79 0 1.49.629 1.48 1.504l-.11 8.613c-.01.785-.74 1.5-1.53 1.5h-32.64c-.79 0-1.49-.715-1.48-1.5l.11-8.613c.01-.875.73-1.504 1.53-1.504h32.64M1567.28 638.852c.79 0 1.49.632 1.48 1.503l-.12 8.614c-.01.793-.73 1.504-1.51 1.504h-32.65c-.79 0-1.5-.711-1.48-1.504l.11-8.614c.02-.871.73-1.503 1.53-1.503h32.64M1010.83 650.281c-6.28 2.532-8.68 4.742-8.72 7.668-.03 2.133 2.08 4.028 4.93 4.028 4.82 0 10.64-4.348 11.36-4.743.72-.554 2.13.157 2.67 1.028l3.95 6.09c.32.55.45 1.972-.51 2.523-2.39 1.742-8.77 5.934-16.99 5.934-12.168 0-18.149-7.907-18.047-15.731.129-9.484 8.734-14.781 15.567-17.469 5.41-2.132 8.2-4.66 8.25-7.98.03-2.766-2.23-4.742-5.4-4.742-5.21 0-10.956 4.187-11.277 4.343-.558.399-2.058.555-2.675-.472l-3.629-6.559c-.618-1.109-.379-1.426.421-2.211 1.84-1.82 7.59-6.09 17.87-6.09 11.61 0 18.54 8.223 18.43 16.364-.14 10.746-10.01 15.57-16.2 18.019M1188.36 672.016h-18.5c-.79 0-1.41-.711-1.4-1.5l.69-52.325c.02-.789.66-1.503 1.45-1.503h18.49c15.26 0 27.58 12.414 27.37 27.746-.2 15.175-12.85 27.582-28.1 27.582zm-.21-43.629h-6.8l-.43 32.011h6.8c8.93 0 15.51-7.035 15.63-15.964.12-9.012-6.27-16.047-15.2-16.047M1369.66 672.016h-9.49c-.87 0-1.49-.711-1.48-1.5l.41-30.434h-.08l-24.45 31.539c-.64.633-1.2 1.184-1.99 1.184h-7.51c-.79 0-1.49-.629-1.48-1.422l.71-53.195c0-.786.81-1.5 1.59-1.5h9.41c.87 0 1.49.714 1.48 1.5l-.42 31.855h.08l24.86-33.277c.65-.633 1.2-.868 1.99-.868h7.12c.78 0 1.49.473 1.48 1.422l-.71 53.196c-.01.789-.73 1.5-1.52 1.5M1156.07 672.016h-18.54c-.79 0-1.49-.711-1.48-1.5l.11-7.957c0-.871.72-1.504 1.52-1.504h7.39l.38-27.766c.05-3.953-2.37-6.008-4.59-6.008-2.13 0-3.09.711-4.05 1.66-.64.629-1.51.551-2.14 0l-5.3-5.296a1.662 1.662 0 0 1-.13-1.977c1.37-1.66 5.21-5.77 12.09-5.77 9.25 0 16.91 6.325 16.76 17.309l-.49 37.309c-.01.789-.66 1.5-1.53 1.5M1058.43 672.016h-20.63c-.87 0-1.49-.711-1.48-1.5l.13-10.118h.01-.01l7.65-12.093h-5.99c-.86 0-1.49-.711-1.48-1.504l.38-28.61c.01-.789.65-1.503 1.53-1.503h9.32c.79 0 1.49.714 1.48 1.503l-.25 18.575h9.89c9.64 0 17.52 7.984 17.38 17.785-.12 9.562-8.21 17.465-17.93 17.465zm-.4-23.711h-.42l-7.9 12.093h8.16c3.4 0 6.28-2.531 6.32-5.847.05-3.555-2.76-6.246-6.16-6.246M1302.05 637.691c6.93 2.372 11.93 9.032 11.83 16.86-.13 9.562-8.21 17.465-17.93 17.465h-20.64c-.86 0-1.49-.715-1.47-1.5l.13-10.118h.01-.01l7.65-12.093h-5.99c-.86 0-1.49-.711-1.48-1.504l.38-28.61c.01-.789.65-1.503 1.52-1.503h9.33c.79 0 1.5.714 1.48 1.503l-.24 18.575h2.3l12.26-19.364c.16-.316.64-.714 1.27-.714h10.51c1.35 0 1.88 1.265 1.32 2.292zm-.34 16.86c.05-3.559-2.76-6.246-6.16-6.246h-.42l-7.9 12.093h8.16c3.4 0 6.27-2.531 6.32-5.847M1120.54 616.688c.79 0 1.49.632 1.48 1.503l-.11 8.614c-.01.793-.73 1.504-1.53 1.504h-32.64c-.79 0-1.49-.711-1.48-1.504l.12-8.614a1.52 1.52 0 0 1 1.51-1.503h32.65M1120.25 638.543c.79 0 1.49.633 1.48 1.504l-.12 8.613c0 .789-.73 1.5-1.52 1.5h-32.64c-.79 0-1.49-.711-1.48-1.5l.11-8.613c.01-.871.73-1.504 1.52-1.504h32.65M1260.93 616.688c.79 0 1.5.632 1.48 1.503l-.11 8.614c-.01.793-.73 1.504-1.53 1.504h-32.64c-.78 0-1.49-.711-1.48-1.504l.12-8.614c.01-.871.73-1.503 1.52-1.503h32.64M1260.64 638.543c.79 0 1.5.633 1.49 1.504l-.12 8.613c-.01.789-.74 1.5-1.53 1.5h-32.64c-.78 0-1.49-.711-1.48-1.5l.12-8.613c.01-.871.73-1.504 1.52-1.504h32.64M1417.19 616.688c.79 0 1.49.632 1.48 1.503l-.11 8.614c-.02.793-.74 1.504-1.52 1.504h-32.65c-.79 0-1.49-.711-1.48-1.504l.11-8.614a1.53 1.53 0 0 1 1.52-1.503h32.65M1416.9 638.543c.79 0 1.49.633 1.48 1.504l-.12 8.613c-.01.789-.72 1.5-1.52 1.5h-32.64c-.79 0-1.49-.711-1.48-1.5l.11-8.613a1.53 1.53 0 0 1 1.52-1.504h32.65M1451.64 650.281c-6.28 2.532-8.68 4.742-8.72 7.668-.03 2.133 2.08 4.028 4.93 4.028 4.82 0 10.65-4.348 11.36-4.743.72-.554 2.14.157 2.67 1.028l3.96 6.09c.3.55.45 1.972-.51 2.523-2.39 1.742-8.78 5.934-16.99 5.934-12.18 0-18.16-7.907-18.05-15.731.12-9.484 8.73-14.781 15.56-17.469 5.4-2.132 8.2-4.66 8.25-7.98.04-2.766-2.23-4.742-5.39-4.742-5.22 0-10.96 4.187-11.28 4.343-.56.399-2.07.555-2.68-.472l-3.63-6.559c-.62-1.109-.38-1.426.42-2.211 1.85-1.82 7.59-6.09 17.87-6.09 11.62 0 18.54 8.223 18.43 16.364-.14 10.746-10.01 15.57-16.2 18.019M1119.96 660.398c.79 0 1.49.629 1.48 1.504l-.12 8.614c0 .789-.73 1.5-1.52 1.5h-32.64c-.79 0-1.49-.711-1.48-1.5l.11-8.614c.01-.875.73-1.504 1.52-1.504h32.65M1260.35 660.398c.79 0 1.5.629 1.48 1.504l-.11 8.614c-.01.789-.73 1.5-1.52 1.5h-32.65c-.78 0-1.49-.711-1.48-1.5l.12-8.614c.01-.875.73-1.504 1.52-1.504h32.64M1416.61 660.398c.79 0 1.49.629 1.48 1.504l-.12 8.614c-.01.789-.73 1.5-1.52 1.5h-32.64c-.79 0-1.49-.711-1.48-1.5l.12-8.614c0-.875.73-1.504 1.51-1.504h32.65" style="fill:#1f5839;fill-opacity:1;fill-rule:nonzero;stroke:none" transform="matrix(.13333 0 0 -.13333 0 100)"/><path d="M987.27 708.055h675.51c1.33 0 2.41-1.067 2.41-2.371v-7.032c0-1.312-1.08-2.379-2.41-2.379H987.27c-1.325 0-2.411 1.067-2.411 2.379v7.032c0 1.304 1.086 2.371 2.411 2.371" style="fill:#1f5839;fill-opacity:1;fill-rule:evenodd;stroke:none" transform="matrix(.13333 0 0 -.13333 0 100)"/><path d="M1494.79 269.938h84.23c6.31 0 11.54-5.219 11.62-11.602l.23-17.277c.08-6.379-5.01-11.598-11.32-11.598h-84.23c-6.3 0-11.53 5.219-11.61 11.598l-.23 17.277c-.08 6.383 5.01 11.602 11.31 11.602M1493.03 404.059h84.23c6.31 0 11.53-5.215 11.62-11.594l.23-17.281c.08-6.379-5.01-11.598-11.32-11.598h-84.23c-6.31 0-11.53 5.219-11.62 11.598l-.23 17.281c-.08 6.379 5.01 11.594 11.32 11.594M1493.87 338.297h84.23c6.31 0 11.54-5.219 11.62-11.598l.23-17.281c.08-6.379-5.01-11.598-11.31-11.598h-84.24c-6.3 0-11.53 5.219-11.61 11.598l-.23 17.281c-.08 6.379 5 11.598 11.31 11.598" style="fill:#78a35e;fill-opacity:1;fill-rule:evenodd;stroke:none" transform="matrix(.13333 0 0 -.13333 0 100)"/><path d="m277.535 733.527.297-69.586c.016-3.285-2.648-5.945-5.922-5.918l-15.156.137c-3.274.031-5.961 2.742-5.973 6.028l-.301 69.585c-.011 3.286 2.649 5.95 5.922 5.918l15.157-.136c3.273-.028 5.961-2.742 5.976-6.028M52.75 535.844l69.277.035c3.27.004 5.911-2.684 5.871-5.969l-.195-15.226c-.043-3.286-2.75-5.973-6.023-5.973l-69.278-.043c-3.27 0-5.91 2.687-5.87 5.973l.19 15.222c.044 3.285 2.755 5.977 6.028 5.981M119.57 676.859l50.614-47.519c2.386-2.242 2.488-6.016.226-8.387l-10.5-10.988c-2.265-2.367-6.074-2.473-8.461-.231l-50.613 47.52c-2.395 2.242-2.492 6.016-.231 8.387l10.497 10.984c2.269 2.371 6.078 2.477 8.468.234M73.715 614.637l64.195-26.168c3.031-1.231 4.469-4.719 3.199-7.746l-5.886-14.035c-1.27-3.028-4.789-4.493-7.821-3.254l-64.195 26.164c-3.031 1.226-4.473 4.718-3.203 7.75l5.887 14.027c1.273 3.031 4.789 4.5 7.824 3.262M191.371 721.09l28.152-63.582c1.332-3-.035-6.512-3.046-7.809l-13.934-6.004c-3.004-1.297-6.551.098-7.879 3.102l-28.156 63.578c-1.332 3 .039 6.516 3.043 7.813l13.933 6.003c3.008 1.293 6.559-.101 7.887-3.101M355.328 713.121l-25.562-64.676c-1.207-3.05-4.664-4.527-7.692-3.273l-14.011 5.805c-3.024 1.253-4.512 4.773-3.305 7.832l25.558 64.675a5.856 5.856 0 0 0 7.692 3.274l14.012-5.805c3.027-1.254 4.511-4.777 3.308-7.832M427.566 656.203l-50.418-47.719a5.847 5.847 0 0 0-8.347.309l-10.25 11.219c-2.211 2.422-2.074 6.246.308 8.496l50.418 47.722a5.849 5.849 0 0 0 8.348-.304l10.25-11.219c2.211-2.418 2.074-6.246-.309-8.504M61.16 460.355l64.844 24.497c3.059 1.156 6.473-.422 7.582-3.516l5.148-14.32c1.11-3.09-.48-6.567-3.546-7.723l-64.844-24.496c-3.059-1.156-6.473.426-7.582 3.516l-5.149 14.32c-1.113 3.09.485 6.566 3.547 7.722M94.844 393.469l52.347 45.574a5.852 5.852 0 0 0 8.329-.652l9.781-11.637c2.105-2.512 1.812-6.328-.66-8.477l-52.352-45.578a5.848 5.848 0 0 0-8.324.649l-9.781 11.636c-2.11 2.512-1.813 6.332.66 8.485M265.223 633.461c40.777-1.559 75.906-25.078 94.363-58.785-69.227-27.215-127.438-76.535-164.801-138.735-26.578 21.27-43.363 54.286-42.57 90.731 1.34 61.312 51.933 109.125 113.008 106.789" style="fill:#ffc94f;fill-opacity:1;fill-rule:evenodd;stroke:none" transform="matrix(.13333 0 0 -.13333 0 100)"/><path d="M459.387 607.688c28.551 0 56.191-3.7 82.441-10.583-2.098-28.121 7.777-65.875 22.203-83.468l-55.117 14.64c.274-33.578 6.211-70.757 19.719-105.808-20.207 11.629-43.906 18.32-69.246 18.32-67.41 0-123.188-47.363-132.574-109.012-12.387 3.871-25.84 6.828-40.594 8.567-37.028 4-81.379-1.746-135.473-32.711l-.726-.426c-.047 2.043-.071 4.09-.071 6.148 0 162.555 138.539 294.333 309.438 294.333" style="fill:#ef4d58;fill-opacity:1;fill-rule:evenodd;stroke:none" transform="matrix(.13333 0 0 -.13333 0 100)"/><path d="M459.387 565.965c30.547 0 59.879-4.922 87.195-13.949 4.004-15.387 10.141-29.469 17.449-38.379l-55.117 14.64c.274-33.578 6.211-70.757 19.719-105.808-20.207 11.629-43.906 18.32-69.246 18.32-67.41 0-123.188-47.363-132.574-109.012-12.387 3.871-25.84 6.828-40.594 8.567-26.574 2.875-56.922.722-91.938-12.168 8.071 132.609 123.668 237.789 265.106 237.789" style="fill:#ffc94f;fill-opacity:1;fill-rule:evenodd;stroke:none" transform="matrix(.13333 0 0 -.13333 0 100)"/><path d="M459.387 524.238c17.105 0 33.758-1.847 49.75-5.336 1.211-31.039 7.234-64.609 19.496-96.433-20.207 11.629-43.906 18.32-69.246 18.32-67.41 0-123.188-47.363-132.574-109.012-12.387 3.871-25.84 6.828-40.594 8.567-14.442 1.562-30.004 1.64-46.821-.684 13.61 104.055 106.911 184.578 219.989 184.578" style="fill:#01b6b2;fill-opacity:1;fill-rule:evenodd;stroke:none" transform="matrix(.13333 0 0 -.13333 0 100)"/><path d="M459.387 482.516c19.093 0 37.476-2.875 54.718-8.172 3.204-17.36 7.973-34.864 14.528-51.875-20.207 11.629-43.906 18.32-69.246 18.32-67.41 0-123.188-47.363-132.574-109.012-12.387 3.871-25.84 6.828-40.594 8.567-.781.086-1.574.164-2.364.238 13.692 80.477 87.059 141.934 175.532 141.934" style="fill:#c192cf;fill-opacity:1;fill-rule:evenodd;stroke:none" transform="matrix(.13333 0 0 -.13333 0 100)"/><path d="M712.551 747.555c.054.023.926-.981 1.133-1.2 27.043-28.906 50.738-67.871 61.203-106.253 8.519 4.91 28.125 17.796 40.004 27.613 12.183-24.738 16.457-52.606 11.652-82.61 9.328 2.485 41.465 17.016 55.09 23.375 6.484-28.3-4.055-74.757-20.547-94.871l55.117 14.641c-.789-95.949-47.152-221.289-185.129-242.508-14.351-.984-18.949-1.742-34.863-.219-139.215 20.497-186.504 146.434-187.297 242.75l55.117-14.64c-16.492 20.117-27.035 66.574-20.547 94.875 13.625-6.36 45.758-20.891 55.09-23.375-4.804 30.008-.531 57.871 11.653 82.609 11.878-9.816 31.48-22.703 40.003-27.617 10.469 38.391 34.165 77.363 61.219 106.27.199.214 1.043 1.187 1.102 1.16M960.816 72.418c.465-35.156-28.66-63.926-64.722-63.926H77.449c-31.37 0-58.066 21.766-64.793 50.57-19.468 83.403 43.59 194.465 138.09 248.571 54.094 30.965 98.445 36.711 135.473 32.711 121.722-14.348 155.867-110.965 219.074-129.926 9.32-2.793 19.637-3.828 31.512-2.668l84.074 28.563a313.618 313.618 0 0 0 72.953 17.089l36.785 1.86c97.051-.91 181.844-47.813 213.821-112.297 9.613-19.391 16.093-49.031 16.378-70.547" style="fill:#78a35e;fill-opacity:1;fill-rule:evenodd;stroke:none" transform="matrix(.13333 0 0 -.13333 0 100)"/><path d="M842.355 161.398c3.532-5.382 3.153-13.418.762-19.625-2.359-6.136-12.863-10.039-16.621-19.5-4.254-10.699 3.527-21.589 13.438-25.14 7.164-2.567 18.058-2.04 24.089 1.547 8.512 5.043 15.485 17.941 9.168 33.441-9.433 23.16-32.339 31.57-30.836 29.277" style="fill:#ef4d58;fill-opacity:1;fill-rule:evenodd;stroke:none" transform="matrix(.13333 0 0 -.13333 0 100)"/><path d="M849.664 165.969c-6.328 2.797-15.238 2.41-14.469 1.254 3.809-5.7 5.395-11.618 2.828-18.184-2.543-6.5-14.175-13.398-18.222-23.414-2.828-6.988-1.36-17.133 5.652-23.18 4.5-3.879-.328-4.515-3.801-3.355-14.918 5.012-19.515 14.859-18.449 26.133.793 8.359 4.707 17.507 9.836 26.047 8.02 13.332 26.609 29.152 30.848 38.582 2.679 5.957 3.308 12.734 3.301 19.617-.012 9.832 16.574-13.871 12.781-28.367-2.086-7.961-7.242-14.481-10.305-15.133M869.813 149.418c-6.629 7.797-14.114 13.254-13.915 13.383 4.844 3.734 7.844 9.054 9.157 15.562 1.394 6.59 12.261-2.851 21.117-17.41 10.48-17.23 18.269-41.715.207-57.172-1.91-1.644-5.613-3.468-8.203-4.328-3.68-1.23-7.418-2.031-4.535 2.781 4.132 6.883 18.984 20.325-3.828 47.184" style="fill:#ffc94f;fill-opacity:1;fill-rule:evenodd;stroke:none" transform="matrix(.13333 0 0 -.13333 0 100)"/><path d="m875.438 76.492 37.222-2.336c4.703-.297 8.813 2.996 9.133 7.317v.004c-.055 4.336-3.262 8.07-7.957 8.398l-47.496 3.266c-12.527-4.082-19.902-3.278-31.211.527l-44.059-3.777c-4.683-.399-7.793-4.059-7.738-8.395.441-4.324 4.637-7.617 9.328-7.324l36.789 2.316-19.336-15.84c-3.484-2.855-3.777-7.851-.648-11.109s8.543-3.586 12.023-.726l22.461 18.398.375-26.672c.063-4.336 3.961-7.894 8.664-7.906h.004c4.707-.012 8.508 3.523 8.446 7.86l-.375 26.816 23.074-18.496c3.562-2.86 8.961-2.532 12.004.726 3.043 3.258 2.621 8.254-.938 11.11l-19.765 15.843M710.535 701.348l-5.996-115.7-48.684 40.918c-7.101 5.93-8.484 3.879-3.703-1.964l51.77-63.329-1.477-84.699-87.218 70.399c-10.442 7.793-14.067 10.211-14.543 9.172-.395-.856.507-3.469 8.578-12.399l92.183-101.363-1.957-76.445-144.121 116.089c-2.66 2.145-5.101 3.594-6.277 3.176-.86-.308-2.035-.879 2.965-6.754l145.531-157.375-5.625-145.676c.117-8.75 10.234-13.277 20.93-13.75v-.031l.472.012.465-.012v.031c10.695.473 20.817 5 20.934 13.75l-5.625 145.676 145.531 157.375c4.996 5.875 3.828 6.446 2.965 6.754-1.172.418-3.621-1.031-6.278-3.176L727.23 365.938l-1.953 76.445 92.184 101.363c8.07 8.93 8.973 11.063 8.582 11.918-.484 1.043-4.105-.898-14.547-8.691l-87.219-70.399-1.476 84.699 51.765 63.329c4.782 5.843 3.403 7.894-3.699 1.964l-48.683-40.918-5.996 115.7c-.106 9.109-5.551 9.109-5.653 0" style="fill:#28654c;fill-opacity:1;fill-rule:evenodd;stroke:none" transform="matrix(.13333 0 0 -.13333 0 100)"/><path d="M761.609 73.672 603.016 268.566c-5.793 9.079-13.84 5.379-17.157-.003L425.086 70.953c-2.023-2.676-2.18-6.047-.379-8.832 7.91-12.473 32.848 19.52 41.555 25.625l8.699-37.836 242.34-.289 3.832 37.574c9.25-4.843 44.207-42.05 44.207-20.922 0 1.797-.785 3.489-1.879 4.977-.727.988-1.18 1.371-1.852 2.422" style="fill:#ffc94f;fill-opacity:1;fill-rule:nonzero;stroke:none" transform="matrix(.13333 0 0 -.13333 0 100)"/><path d="m597.965 225.566 13.601-151.468c1.754-12.575-.062-14.367-6.164-14.692l-21.437.016c-6.867-.195-10.672-.938-8.86 14.41l15.067 151.652c.758 8.813 2.359 11.676 4.004 11.711 1.398.035 2.828-1.125 3.789-11.629M238.496 59.484c87.738 0 158.863-6.199 158.863-13.843 0-7.653-71.125-13.852-158.863-13.852S79.633 37.99 79.633 45.641c0 7.644 71.125 13.843 158.863 13.843" style="fill:#28654c;fill-opacity:1;fill-rule:evenodd;stroke:none" transform="matrix(.13333 0 0 -.13333 0 100)"/><path d="M141.477 230.703c.019 7.317 5.523 14.305 14.773 13.777l2.883-.171a39.337 39.337 0 0 1 8.875-7.743c-4.926-.812-9.836-1.726-14.731-2.847a248.76 248.76 0 0 1-11.8-3.016" style="fill:#01b6b2;fill-opacity:1;fill-rule:evenodd;stroke:none" transform="matrix(.13333 0 0 -.13333 0 100)"/><path d="M178.816 304.945c-15.695-3.882-27.253-21.515-22.492-40.945 4.196-17.094 20.387-29.477 38.457-24.672 15.43 4.102 26.672 21.328 21.93 40.906-4.113 16.981-20.18 29.094-37.895 24.711" style="fill:#ffc94f;fill-opacity:1;fill-rule:evenodd;stroke:none" transform="matrix(.13333 0 0 -.13333 0 100)"/><path d="M294.066 303.438c15.692-3.887 27.25-21.52 22.489-40.946-4.192-17.097-20.387-29.476-38.457-24.676-15.426 4.106-26.672 21.332-21.926 40.911 4.113 16.976 20.18 29.093 37.894 24.711" style="fill:#01b6b2;fill-opacity:1;fill-rule:evenodd;stroke:none" transform="matrix(.13333 0 0 -.13333 0 100)"/><path d="M402.344 143.473c7.574-7.813 17.429-12.66 28.238-14.59 16.316-3.067 13.723-31-6.219-28.762-30.843 5.5-42.808 15.461-61.574 38.875C360 128 288.723 36.625 277.883 45.496c-1.883 2.45 1.578 7.86 5.379 14.738 9.117 16.504 13.347 27.067 19.968 44.996 12.395 33.551 17.969 59.165 21.532 93.684 11.199-1.269 33.203-10.164 48.336-20.277 17.48-11.688 15.961-21.457 29.246-35.164" style="fill:#c192cf;fill-opacity:1;fill-rule:evenodd;stroke:none" transform="matrix(.13333 0 0 -.13333 0 100)"/><path d="m396.004 196.574 1.031-.73c20.289-14.504 5.906-28.969-4.066-28.082l-.196.289-.015.023-.211.309-.012.012-.199.293-.039.054-.172.246-.07.094-.145.207-.094.129-.121.168-.121.164-.094.133-.148.199-.066.09-.176.238-.043.055-.203.269-.012.016-.219.289-.015.016-.203.265-.043.055-.18.227-.07.089-.25.313-.125.152-.125.157-.098.121-.156.187-.067.082-.187.223-.235.281-.023.023-.008.012-.23.27-.02.019-.211.246-.047.051-.183.207-.078.09-.157.176-.109.117-.125.141-.137.148-.097.109-.172.18-.067.074-.203.211-.039.043-.234.242-.008.008-.242.25-.02.024-.226.23-.051.051-.192.195-.085.082-.165.164-.117.114-.133.132-.148.145-.102.098-.183.171-.074.071-.215.203-.039.035-.254.234-.004.008-.262.235-.023.027-.235.211-.062.051-.203.183-.094.086-.172.153-.129.113-.14.121-.161.137-.109.093-.199.168-.074.063-.239.199-.039.035-.273.223-.004.004-.281.23-.032.024-.25.203-.066.051-.219.175-.101.082-.188.145-.14.109-.149.118-.179.136-.114.09-.219.164-.078.059-.257.191-.04.031-.296.223-.004.004-.305.219-.035.027-.274.199-.074.051-.234.168-.117.082-.196.141-.156.105-.156.117-.199.137-.121.082-.239.164-.082.059-.285.187-.043.032-.324.218c-.895.598-1.848 1.211-2.84 1.832 8.316 1.039 16.414 4.817 22.254 10.836zm-54.336 4.582c-5.809 2.028-11.398 3.508-16.195 4.051l-6.321.719c-.265-2.563-.523-5.125-.797-7.68a458.375 458.375 0 0 0-3.46-25.609l-.016-.098c-5.535-26.629-15.266-60.582-26.52-87.676l-.011-.027-.149-.336-.293-.668-.086-.195-.062-.137-.149-.336-.089-.2-.059-.136-.148-.332-.09-.207-.063-.129-.148-.332-.094-.21-.055-.122-.152-.336-.098-.215-.207-.453-.101-.219-.055-.113-.152-.336-.102-.219-.051-.117-.156-.328-.105-.226-.047-.11-.157-.332-.105-.23-.051-.106-.156-.332-.113-.234-.043-.098-.16-.336-.114-.238-.043-.094-.16-.332-.117-.246-.043-.09-.16-.336-.121-.246-.043-.086-.16-.336-.121-.25-.04-.082-.164-.336-.128-.257-.036-.079-.168-.332-.129-.265-.035-.07-.164-.336-.136-.27-.032-.062-.164-.336-.14-.278-.028-.058-.172-.336-.14-.282-.028-.054-.171-.336-.145-.285-.023-.051-.176-.34-.145-.289-.027-.047-.172-.336-.152-.297-.02-.043-.176-.336-.156-.3-.019-.04-.18-.335-.16-.309-.02-.031-.176-.34-.164-.313-.015-.027-.18-.34-.172-.316-.008-.024-.183-.34-.172-.324-.008-.015-.187-.344-.176-.328-.008-.016-.187-.34-.18-.336-.004-.007-.188-.344-.187-.34v-.004l-.188-.344-.191-.343-.062-.118-.071-.117-.023-.047-.043-.07-.067-.125-.046-.086-.02-.031-.07-.121-.067-.121-.008-.012-.062-.113-.074-.125-.032-.055-.039-.07-.074-.121-.058-.106-.012-.02-.074-.128-.075-.13-.015-.023-.059-.105-.074-.13-.043-.073-.031-.055-.074-.129-.071-.125-.008-.008-.078-.133-.074-.132-.027-.04-.051-.09-.078-.136-.051-.094-.027-.039-.078-.137-.079-.136V60l-.078-.129-.078-.137-.031-.054-.047-.082-.078-.141-.063-.105-.015-.032-.082-.136-.078-.145-.012-.02-.066-.117-.082-.14-.04-.074-.039-.07-.078-.141-.07-.13-.012-.011-.078-.145-.078-.144-.02-.035-.058-.11-.078-.144-.051-.09-.027-.055-.078-.144-.079-.145-.078-.144-.078-.149-.023-.05-.051-.098-.078-.145-.055-.105-.019-.04-.079-.152-.074-.148-.008-.012-.066-.133-.074-.152-.035-.066-.039-.082-.075-.149-.058-.125-.012-.027-.07-.149-.074-.152-.012-.027-.059-.125-.07-.149-.039-.086-.031-.066-.067-.148-.066-.141-.004-.012c-15.488-23.566-29.43-20.05-30.402 8.649l-4.489 132.3c1.114 10.668-3.019 32.926 24.567 34.848 16.047 1.117 49.711-.172 72.32-5.098-.414-8.195 2.262-16.55 6.707-24.035" style="fill:#01b6b2;fill-opacity:1;fill-rule:evenodd;stroke:none" transform="matrix(.13333 0 0 -.13333 0 100)"/><path d="M397.922 212.848c-4.777-21.926-37.602-28.778-49.391-10.758-20.113 29.988 5.051 51.59 27.207 47.226 14.176-2.793 26.535-16.48 22.184-36.468" style="fill:#c192cf;fill-opacity:1;fill-rule:evenodd;stroke:none" transform="matrix(.13333 0 0 -.13333 0 100)"/><path d="M72.941 143.473c-7.574-7.813-17.43-12.66-28.234-14.59-16.316-3.067-13.723-31 6.219-28.762 30.84 5.5 42.3 14.953 61.574 38.875 2.793-10.996 74.07-102.371 84.906-93.5 1.883 2.45-1.578 7.86-5.379 14.738-9.117 16.504-13.347 27.067-19.972 44.996-12.391 33.551-18.043 59.395-21.61 93.915-45.656-9.293-53.972-31.399-77.504-55.672" style="fill:#ef4d58;fill-opacity:1;fill-rule:evenodd;stroke:none" transform="matrix(.13333 0 0 -.13333 0 100)"/><path d="M206.059 235.996c16.953 3.113 33.578 7.152 50.445 9.539 2.43-3.375 5.402-6.344 8.879-8.742-1.09-.055-2.153-.117-3.176-.188-12.523-.871-23.25-5.859-27.711-18.32-2.863-8.012-1.863-14.262-2.687-22.187l-.047-.434L235.008 100l-1.164-36.86c-.906-28.71-15.977-32.07-31.481-8.46l-.457.707c-1.386 2.91-3.121 5.668-4.367 7.922a251.158 251.158 0 0 0-7.578 14.855c-13.867 31.211-25.75 74.242-31.082 103.984a449.61 449.61 0 0 0-2.16 17.649l-.719 6.941-6.805-1.386c-6.429-1.309-12.547-2.93-18.386-5.004 4.5 7.136 7.425 15.144 7.578 23.09a367.44 367.44 0 0 0 16.289 4.109c17.683 4.043 33.832 5.23 51.383 8.449zm98.625-.129c3.484 2.145 6.629 4.867 9.324 8.043 4.09-.996 8.23-2.222 12.418-3.711 4.293-1.441 6.527-4.594 7.078-8.219-8.723 1.758-18.742 3.043-28.82 3.887zM86.801 168.789c-9.055-5.258-33.39 6.668-8.696 27.555 6.93-6.68 16.72-10.371 26.278-10.332a90.721 90.721 0 0 1-5.207-4.387c-4.403-3.984-8.446-8.348-12.375-12.836" style="fill:#ffc94f;fill-opacity:1;fill-rule:evenodd;stroke:none" transform="matrix(.13333 0 0 -.13333 0 100)"/><path d="M75.39 213.41c4.778-21.93 37.598-28.777 49.391-10.762 20.114 29.989-5.051 51.594-27.21 47.231-14.169-2.793-26.532-16.481-22.18-36.469" style="fill:#ef4d58;fill-opacity:1;fill-rule:evenodd;stroke:none" transform="matrix(.13333 0 0 -.13333 0 100)"/><path d="M345.254 156.008c9.965-15.367 2.543-23.535-.27-21.692-3.007 1.977-4.863 13.664-3.371 21.129-15.84-24.519-37.14-10.765-2.519 2.575-10.274 5.394-11.5 27.964-10.266 40.226 3.246-.5 12.43-3.644 15.535-4.773-.867-10.582-2-21.657-.465-32.348 10.098 6.113 18.696 9.34 26.051 19.656 3.594-1.914 8.614-5.773 11.637-8.894-8.91-10.586-26.328-15.805-36.332-15.879M285.27 188.383c17.668-16.559 14.093-26.945 9.898-25.406-4.492 1.652-12.191 14.906-13.941 23.949-6.52-32.215-37.016-20.949-4.192 2.461-11.535 3.179-21.672 22.066-26.48 37.961-.098.336 2.355 1.297 5.531 2 3.887.863 7.797 1.054 11.801 1.222.093.004 1.203-6.656 3.871-14.242 3.41-9.699 8.629-20.965 9.492-22.262 7.25 10.215 15.988 22.352 17.008 35.961 6.523-.527 17.586-1.125 21.765-2.351-5.566-14.324-22.949-37.016-34.753-39.293M130.035 156.613c-9.965-15.367-2.543-23.535.266-21.691 3.012 1.976 4.863 13.668 3.375 21.129 15.84-24.516 37.14-10.77 2.519 2.578 10.274 5.394 11.621 27.414 10.387 39.676-3.023-.367-12.43-3.492-15.543-4.617.871-10.583 1.887-21.266.352-31.958-8.762 5.309-16.52 8.637-23.246 16.141-.497.547-1.063 1.242-1.598 1.793-.281.289-10.426-9.379-10.121-9.672.672-.64 1.437-1.203 2.195-1.773 9.617-7.274 23.305-11.543 31.414-11.606M191.195 188.707c-16.976-17.273-12.984-27.504-8.851-25.793 4.422 1.836 11.574 15.399 12.949 24.504 7.832-31.918 37.84-19.406 4.09 2.633 14.527 4.652 23.785 31.789 27.195 50.094-4.504-.836-12.676-2.665-19.992-3.915-.043-6.097-.441-11.8-1.996-18.218-1.922-7.946-4.793-15.973-9.617-23.461-7.653 9.906-17.035 23.484-18.606 37.039-7.672-1.258-14.617-2.512-21.304-3.938 6.144-14.078 24.242-37.156 36.132-38.945" style="fill:#28654c;fill-opacity:1;fill-rule:evenodd;stroke:none" transform="matrix(.13333 0 0 -.13333 0 100)"/></svg>