<?xml version="1.0" encoding="UTF-8"?> <svg xmlns="http://www.w3.org/2000/svg" width="145" height="101" fill="none"><g style="fill: rgb(0, 0, 0);"><path d="M51.99 100.994c-.191-.037-.382-.08-.576-.114-.194-.034-.389-.056-.598-.087V89.182c.401-.044.792-.099 1.184-.124 1.313-.086 2.623-.151 3.924.136 2.302.509 3.705 2.014 4.056 4.361a9.71 9.71 0 0 1 .009 2.933c-.369 2.399-1.707 3.803-4.087 4.296-.305.065-.61.139-.915.207l-2.997.003Zm1.193-2.045a6.32 6.32 0 0 0 1.705 0c1.402-.163 2.219-.981 2.546-2.31a6.62 6.62 0 0 0-.046-3.408c-.191-.691-.546-1.292-1.159-1.693-.934-.614-1.967-.611-3.049-.491l.003 7.902ZM93.95 100.994c-.093-.034-.182-.083-.278-.102-1.532-.315-2.598-1.206-3.233-2.628a6.612 6.612 0 0 1-.536-2.069c-.127-1.268-.093-2.532.283-3.76.499-1.637 1.48-2.831 3.194-3.263 1.254-.314 2.512-.283 3.714.247 1.128.5 1.859 1.382 2.297 2.51.49 1.265.625 2.588.484 3.93a9.382 9.382 0 0 1-.413 1.995c-.552 1.638-1.671 2.686-3.397 3.038-.078.015-.148.065-.222.099l-1.893.003Zm3.517-5.983c-.018 0-.037-.007 0 0Zc-.074-.377-.08-.744-.117-1.105-.065-.632-.191-1.249-.502-1.813-.25-.453-.605-.793-1.098-.968-1.23-.448-2.457.07-2.984 1.267a4.562 4.562 0 0 0-.234.709 8.158 8.158 0 0 0-.133 3.026c.077.537.198 1.086.404 1.585.37.907 1.095 1.345 2.081 1.345.965 0 1.646-.447 2.053-1.317.089-.194.185-.398.219-.608.117-.703.209-1.409.311-2.121ZM18.523 100.994c-.271-.068-.542-.133-.814-.21-.379-.111-.755-.234-1.199-.373.16-.669.308-1.292.472-1.971.259.08.459.142.659.207.867.28 1.745.428 2.651.262.229-.043.454-.111.666-.201 1.042-.431 1.054-1.896.262-2.427a4.057 4.057 0 0 0-.699-.376c-.46-.191-.931-.358-1.397-.537a9.31 9.31 0 0 1-.32-.135c-1.48-.667-2.057-1.613-1.946-3.189.102-1.45.959-2.489 2.433-2.869 1.532-.394 3.027-.169 4.528.364-.009.642-.194 1.212-.459 1.761-.521-.129-.996-.293-1.483-.361a6.487 6.487 0 0 0-1.44-.04c-.823.074-1.205.577-1.149 1.388.027.404.234.694.567.885.286.164.598.287.906.414.521.216 1.051.416 1.572.635 1.461.611 2.17 1.727 1.914 3.649-.212 1.588-1.291 2.615-3.002 2.991-.142.031-.281.083-.422.127l-2.3.006ZM122.624 100.994l-.66-.185c-.398-.117-.792-.235-1.23-.361.003-.703.213-1.323.447-1.986.216.068.401.123.586.182.863.283 1.745.438 2.651.271.243-.043.49-.108.712-.216a1.41 1.41 0 0 0 .262-2.396 2.4 2.4 0 0 0-.561-.321c-.413-.176-.835-.33-1.252-.496-.2-.081-.403-.158-.604-.241-1.809-.734-2.296-2.168-1.788-4.056.284-1.045 1.073-1.662 2.087-1.97 1.11-.337 2.235-.293 3.357-.059.45.092.891.24 1.35.364-.031.657-.212 1.218-.478 1.813-.181-.058-.348-.108-.514-.169-.765-.281-1.557-.349-2.362-.278-.807.071-1.242.561-1.211 1.302.018.435.213.774.589.98.305.17.632.296.952.432.567.238 1.144.457 1.705.71 1.147.515 1.711 1.415 1.766 2.667.053 1.16-.231 2.178-1.128 2.967-.552.485-1.215.747-1.917.916-.124.031-.244.084-.367.127l-2.392.003ZM43.997 100.994c-.024-.022-.049-.053 0 0Zc-.663-.231-.681-.238-.629-.83.037-.41.127-.814.198-1.252.191.022.317.046.447.049.348.01.699.05 1.042.007.588-.081.952-.441 1.075-1.027.037-.179.065-.361.068-.543.003-1.965 0-3.93 0-5.894 0-.08-.015-.164-.028-.315h-1.905a6.343 6.343 0 0 1-.018-1.958h4.241c.01.2.025.379.025.558v7.892c0 .3-.003.605-.062.895-.228 1.126-.9 1.866-1.997 2.214-.219.068-.435.142-.653.21l-1.804-.006ZM145 78.698c-.034.074-.086.145-.099.219-.135 1.009-.706 1.706-1.575 2.175-.971.521-2.028.614-3.104.555-.746-.04-1.483-.164-2.238-.472l.278-.968c.209.058.366.104.524.151 1.057.305 2.13.413 3.202.145 1.394-.349 2.087-1.536 1.745-2.896a1.713 1.713 0 0 0-.814-1.092c-.456-.268-.94-.494-1.424-.716-.407-.188-.835-.333-1.245-.515a5.148 5.148 0 0 1-.746-.401c-.99-.647-1.313-1.597-1.178-2.726.124-1.033.694-1.761 1.646-2.147.441-.178.925-.271 1.4-.336 1.002-.135 1.985.04 3.027.293l-.197.858c-.811-.087-1.551-.192-2.294-.235-.342-.021-.7.034-1.036.117-1.02.253-1.587 1.182-1.377 2.215a1.5 1.5 0 0 0 .702.993c.38.237.783.435 1.19.626.632.296 1.286.552 1.908.864.657.326 1.181.808 1.477 1.498.095.223.154.463.228.694v1.101ZM72.665 61.964c-17.33-.062-31.038-14.166-30.946-31.15C41.812 13.62 55.936-.194 73.041 0c16.963.194 30.782 14.181 30.594 31.338-.182 16.599-13.674 30.57-30.97 30.626Zm-.015-1.493c16.272-.037 29.296-13.111 29.493-29.114.204-16.408-12.971-29.63-29.034-29.861-16.196-.235-29.79 12.774-29.895 29.302C43.109 47.111 56.272 60.4 72.65 60.471ZM73.639 95.412c.277-.149.518-.263.74-.401.28-.176.573-.346.82-.562.684-.601.832-1.372.626-2.23a1.514 1.514 0 0 0-.857-1.045 2.61 2.61 0 0 0-1.813-.176c-.012 1.073-.003 2.15-.006 3.226V100.787c-.805.13-1.554.145-2.327 0V89.24c.089-.034.175-.089.268-.099 1.325-.138 2.651-.246 3.979-.034.629.102 1.233.284 1.779.62.925.574 1.433 1.404 1.513 2.502.108 1.474-.413 2.637-1.652 3.463-.08.053-.151.12-.259.21.925 1.61 1.844 3.207 2.796 4.87-.848.142-1.634.163-2.42.024-.108-.018-.225-.138-.283-.24-.962-1.693-1.915-3.39-2.904-5.144ZM107.664 95.896c.94 1.637 1.85 3.223 2.787 4.851-.167.037-.287.09-.407.09-.598.009-1.196.018-1.794.006-.194-.003-.376-.056-.493-.269-.937-1.687-1.884-3.368-2.827-5.051-.015-.025-.012-.062-.025-.133.188-.102.398-.201.592-.321.296-.182.607-.351.873-.577.736-.629.924-1.431.656-2.347a1.478 1.478 0 0 0-.687-.885c-.601-.354-1.246-.419-1.979-.268v9.798a6.922 6.922 0 0 1-2.297.01V89.188c.386-.047.758-.102 1.135-.13 1.196-.095 2.392-.129 3.572.154.774.185 1.458.531 2.025 1.114 1.101 1.129 1.255 3.818-.613 5.19-.157.118-.317.232-.518.38ZM26.06 89.141c.342-.03.653-.074.965-.086 1.146-.055 2.29-.126 3.437.049 2.013.312 3.187 1.629 3.236 3.674.01.364.013.737-.04 1.098-.252 1.702-1.39 2.831-3.125 3.09-.54.08-1.092.086-1.64.12-.145.009-.293 0-.512 0-.015 1.237 0 2.446-.009 3.692-.78.166-1.529.117-2.312.037V89.141Zm2.34 5.941c.983.262 2.157-.084 2.564-.719.475-.74.469-1.983-.055-2.693-.49-.663-1.56-.937-2.509-.632v4.044ZM111.86 89.141c.323-.03.616-.067.912-.083 1.162-.062 2.324-.132 3.483.046 1.918.296 3.064 1.493 3.228 3.427.074.87.012 1.736-.395 2.532-.49.962-1.291 1.545-2.327 1.813a7.449 7.449 0 0 1-2.078.213c-.16-.003-.324 0-.539 0v3.704c-.789.139-1.523.118-2.288.016l.004-11.668Zm2.327 1.872c-.093.62-.068 3.72.031 4.078 1.001.25 2.117-.096 2.527-.719.469-.709.481-1.927-.009-2.649-.472-.694-1.455-.975-2.549-.71ZM62.15 89.209h6.452c.21.506.222 1.348.016 1.956h-4.177a33.201 33.201 0 0 0 0 2.544h3.341c.148.666.114 1.295.031 1.986h-3.36c-.059 1.061-.043 2.067-.009 3.118h4.248c.225.466.246 1.357.055 1.959h-6.569c-.105-.352-.139-10.85-.028-11.563ZM37.829 91.162v2.535h3.32c.182.684.176 1.317.015 2.004h-3.326v3.1c.722.04 1.446.012 2.17.019.712.006 1.425 0 2.146 0 .157.678.169 1.298 0 1.946h-6.578c-.111-.395-.13-11.017-.016-11.551h6.477c.175.642.157 1.262 0 1.943l-4.208.004ZM20.693 69.816c.342 0 .654-.012.965.009.099.007.207.09.277.167.087.095.139.225.207.342 1.634 2.862 3.267 5.724 4.901 8.583.09.158.185.312.275.46.04-.006.058-.006.074-.012a.064.064 0 0 0 .027-.034.475.475 0 0 0 .022-.096c.003-.068.003-.133.003-.2 0-2.998 0-5.996.006-8.994 0-.034.009-.065.016-.098.003-.016.012-.028.04-.081.296-.095.616-.064.968-.015v11.569c-.33.138-.682.083-1.018.043-.12-.016-.246-.201-.326-.333-.599-1.021-1.184-2.045-1.773-3.069l-3.264-5.669c-.081-.139-.173-.271-.253-.401-.053.016-.071.019-.083.028-.013.009-.019.025-.022.04-.006.065-.015.133-.015.198 0 3.013-.007 6.029-.01 9.042 0 .016-.006.034-.009.05l-.025.095h-.98l-.003-11.624ZM63.026 81.49V69.853a13.747 13.747 0 0 1 2.925-.176c.635.034 1.255.145 1.84.404 1.03.457 1.489 1.286 1.545 2.369.052 1.064-.352 1.912-1.267 2.492-.136.086-.278.163-.493.287l.385.117c1.298.392 2.016 1.311 2.087 2.668.08 1.526-.62 2.624-2.044 3.201-.928.373-1.902.472-2.888.438-.678-.022-1.357-.105-2.09-.163Zm1.082-.901c.437.028.847.074 1.257.074.716 0 1.428-.046 2.103-.327.937-.392 1.424-1.101 1.418-2.082-.003-1.036-.509-1.81-1.461-2.159-.37-.135-.771-.203-1.163-.249-.705-.087-1.418-.04-2.154-.034v4.777Zm0-5.801c.884.009 1.729.092 2.561-.111.58-.142 1.024-.469 1.295-1.012.61-1.23-.022-2.618-1.359-2.948-.82-.201-1.646-.167-2.5 0l.003 4.071ZM0 69.835c1.236-.158 2.444-.259 3.653-.118.619.074 1.251.21 1.834.432 1.584.605 2.512 1.811 2.891 3.442a9.06 9.06 0 0 1-.03 4.253c-.475 1.931-1.69 3.124-3.616 3.584-1.563.37-3.129.247-4.732.034V69.835Zm1.11.925c-.105.826-.071 9.354.034 9.746a8.803 8.803 0 0 0 3.058-.04c1.667-.318 2.672-1.327 3.057-2.967a8.1 8.1 0 0 0 .05-3.516c-.339-1.647-1.375-2.653-2.981-3.084a6.82 6.82 0 0 0-2.078-.207c-.379.015-.755.046-1.14.068ZM130.299 81.456h-.998c-.111-.361-.142-11.001-.034-11.662.928-.123 1.868-.234 2.814-.132.462.049.925.126 1.372.253 2.555.74 2.842 3.852 1.381 5.332a5.02 5.02 0 0 1-1.471 1.015c-.117.055-.234.114-.41.204 1.218 1.653 2.417 3.281 3.687 5.008-.441 0-.78.016-1.116-.009-.095-.006-.206-.105-.271-.191-1.298-1.712-2.589-3.43-3.881-5.145-.009-.012-.006-.03-.018-.086.123-.043.255-.099.388-.139.61-.182 1.199-.407 1.717-.786 1.042-.762 1.292-1.801.919-3.013a1.724 1.724 0 0 0-.82-1.034 4.219 4.219 0 0 0-1.008-.407c-.734-.172-1.477-.111-2.251-.012v10.804ZM88.956 89.256c-.08.151-.151.299-.231.441-.888 1.563-1.766 3.13-2.669 4.684-.173.296-.173.519 0 .815.983 1.68 1.948 3.371 2.919 5.061.089.157.172.317.299.546-.349.03-.641.074-.931.08-.416.009-.833-.009-1.249-.016-.252-.003-.425-.101-.561-.336a674.014 674.014 0 0 0-3.055-5.271c-.138-.234-.123-.413.004-.641.94-1.706 1.871-3.417 2.802-5.126.098-.182.2-.361.434-.358.697.006 1.394.022 2.09.037.04 0 .08.047.148.084ZM75.128 69.832h1.264c1.285 3.855 2.571 7.701 3.871 11.605-.394.077-.746.056-1.152.016l-.978-2.937h-4.821l-.934 2.946h-1.076c.004-.367 3.459-10.863 3.826-11.63Zm.638 1.295c-.04 0-.077 0-.117-.003-.666 2.097-1.332 4.194-2.01 6.338h4.171c-.691-2.147-1.366-4.241-2.044-6.335ZM13.477 69.828h1.304l3.881 11.631c-.247.012-.423.024-.598.028-.167.003-.33 0-.552 0l-.996-2.98h-4.812c-.311.978-.619 1.956-.934 2.946H9.596c1.298-3.896 2.58-7.739 3.881-11.625Zm.687 1.314c-.471.842-2.04 5.947-2.034 6.304.715.105 3.656.068 4.044-.068l-2.01-6.236ZM80.621 89.151c.771-.09 1.52-.074 2.293-.007v11.689c-.767.084-1.516.099-2.293-.015V89.151ZM83.358 76.888v4.549h-1.005c-.098-.345-.135-10.77-.037-11.584.145-.028.302-.071.463-.086 1.193-.121 2.383-.238 3.572.037 1.656.382 2.571 1.492 2.584 3.198 0 .444-.028.904-.139 1.332-.315 1.212-1.125 1.971-2.303 2.344a6.375 6.375 0 0 1-2.413.262l-.722-.052Zm.016-1.015c.971.077 1.899.155 2.802-.151.949-.317 1.455-1.014 1.581-1.989.037-.281.031-.564.022-.848-.04-1.061-.601-1.829-1.634-2.06-.641-.145-1.316-.142-1.979-.179-.256-.016-.518.049-.795.077l.003 5.15ZM121.597 80.466c1.705.034 3.428-.006 5.191.021v.944h-6.304V69.859h6.175v.916c-.167.013-.339.04-.515.04-1.332.003-2.663 0-3.995 0h-.518c-.126.438-.139 3.433-.021 3.973h4.044v.981h-4.02c-.123.413-.145 4.071-.037 4.697ZM56.398 69.859v.959h-5.086v3.964c1.335.052 2.676-.007 4.063.03v.963c-.681.003-1.36.009-2.035.009h-2.059c-.006 1.573 0 3.093 0 4.682h5.256v.965h-6.31V69.856l6.171.003ZM109.344 69.976c-.071.318-.135.602-.206.904-.472-.086-.891-.176-1.314-.237-.644-.096-1.291-.105-1.932.046-1.027.237-1.6 1.061-1.474 2.109.056.46.284.827.657 1.074.373.246.774.45 1.177.641.527.247 1.067.463 1.6.694.151.068.299.145.444.225 1.196.667 1.751 1.675 1.637 3.054-.111 1.323-.771 2.242-1.979 2.76-.891.382-1.834.46-2.79.401-.746-.043-1.479-.17-2.241-.472.093-.321.182-.632.275-.947.514.12.977.262 1.448.33.842.12 1.69.167 2.516-.126 1.162-.41 1.738-1.354 1.572-2.569-.077-.562-.336-1.021-.82-1.308a16.92 16.92 0 0 0-1.508-.765c-.557-.259-1.146-.456-1.686-.743-.86-.457-1.402-1.16-1.464-2.171-.099-1.598.691-2.687 2.25-3.072 1.277-.315 2.534-.167 3.838.172ZM31.112 81.2c.019-.155.022-.272.049-.38.053-.191.121-.376.195-.592.487.114.946.244 1.415.321.776.126 1.559.154 2.33-.049 1.369-.364 2.047-1.505 1.739-2.862a1.667 1.667 0 0 0-.796-1.105c-.471-.28-.968-.512-1.467-.743-.422-.194-.866-.345-1.292-.537a4.897 4.897 0 0 1-.699-.385c-.99-.651-1.298-1.607-1.163-2.733.121-1.014.685-1.733 1.61-2.118.453-.189.955-.287 1.445-.352 1.002-.13 1.982.04 3.009.296l-.2.91c-.466-.083-.885-.173-1.307-.235-.663-.098-1.329-.107-1.986.053-.943.228-1.492.984-1.442 1.946.024.521.252.941.669 1.224.354.244.743.441 1.131.626.527.247 1.07.46 1.603.694.135.059.271.13.401.201 1.27.669 1.865 1.712 1.723 3.152-.136 1.385-.873 2.319-2.173 2.779-1.465.518-2.947.425-4.421.012-.111-.031-.219-.071-.373-.123ZM89.936 70.809v-.95h7.281c.164.287.118.586.019.944H94.15v10.65h-1.088V70.812l-3.126-.003ZM118.459 69.862v.929h-3.104c-.062 1.227-.021 2.402-.028 3.577-.006 1.166 0 2.332 0 3.498v3.577h-1.066V70.812h-3.132v-.95h7.33ZM43.76 75.395l4.599 6.079c-.456 0-.801.034-1.137-.015-.151-.022-.306-.185-.41-.321-1.135-1.459-2.263-2.924-3.391-4.389-.315-.407-.623-.814-.943-1.236.107-.161.197-.3.292-.435 1.147-1.595 2.309-3.18 3.434-4.793.262-.376.546-.549.987-.487.142.018.286.021.53.04-1.344 1.884-2.645 3.704-3.961 5.557ZM99.295 69.838h.962s.021.021.031.034c.009.012.027.024.03.037.013.114.031.231.031.345 0 3.676-.003 7.353-.009 11.026 0 .046-.028.092-.052.166h-.99l-.003-11.608ZM41.639 81.456h-.956c-.104-.364-.138-10.931-.033-11.612h.989v11.612Z" style="fill: rgb(223, 218, 218); fill-opacity: 1;" class="fills"></path><path d="M67.844 27.119c-1.276-.537-2.571-.83-3.9-.968-1.72-.179-3.421-.099-5.095.385-1.396.404-2.555 1.172-3.557 2.218-1.4 1.461-2.473 3.118-2.852 5.125-.838 4.445 2.479 8.275 7.032 7.939.721-.052 1.39-.293 2.034-.709a21.045 21.045 0 0 0-.268-.552c-1.458-2.887 1.045-5.169 3.193-5.253 2.016-.077 3.675 1.274 4.122 3.359.373 1.743-.111 3.263-1.283 4.574-.252.284-.545.54-.853.765a11.051 11.051 0 0 1-4.797 1.992c-2.663.423-4.96-.398-6.902-2.245-1.177-1.12-1.791-2.548-2.216-4.071-.404-1.434-.604-2.906-.675-4.386-.099-2.063-.157-4.133.176-6.184.135-.832.336-1.668.613-2.464.758-2.177 2.367-3.346 4.596-3.729 1.606-.274 3.154-.012 4.652.559.807.308 1.575.709 2.361 1.07.145.068.287.142.496.151l-.28-.438c-.605-.956-1.236-1.9-1.807-2.875-.718-1.227-1.251-2.538-1.498-3.95-.176-1.009-.216-2.024-.012-3.032.33-1.632 1.267-2.834 2.679-3.683.863-.518 1.809-.835 2.777-1.098 2.537-.687 5.12-.78 7.728-.66 1.735.081 3.443.337 5.102.864 1.251.398 2.422.935 3.35 1.903.913.953 1.397 2.088 1.495 3.402.13 1.755-.237 3.408-.961 4.999-.66 1.447-1.536 2.764-2.414 4.081-.105.157-.207.317-.311.478l.07.071c.158-.081.318-.155.472-.241 1.295-.697 2.639-1.268 4.094-1.545 1.473-.281 2.91-.188 4.318.351 1.277.491 2.198 1.351 2.818 2.557.555 1.083.844 2.245.983 3.439.339 2.927.293 5.851-.188 8.762-.216 1.305-.549 2.578-1.171 3.75-1.243 2.332-3.2 3.692-5.777 4.167-1.282.235-2.549.114-3.795-.293-1.094-.358-2.16-.78-3.128-1.412-1.307-.858-2.201-1.999-2.553-3.556-.4-1.786.37-3.862 1.828-4.799 2.019-1.296 4.199-.485 5.287.996.74 1.005.832 2.116.376 3.269-.114.293-.265.571-.416.888.111.074.209.161.323.216 1.233.632 2.525.682 3.841.352 4.467-1.12 5.672-5.487 4.732-8.472-.718-2.273-2.078-4.084-3.927-5.533-.947-.744-2.078-1.12-3.249-1.345-2.229-.429-4.439-.305-6.618.333-.475.139-.931.345-1.449.54.046-.118.071-.204.111-.284 1.908-3.834 2.133-7.766.764-11.825-.872-2.587-2.54-4.456-4.904-5.736-.9-.488-.678-.466-1.548.006-2.259 1.227-3.927 2.985-4.793 5.459-.542 1.551-.937 3.127-.971 4.774-.052 2.504.398 4.904 1.548 7.149.064.13.129.262.197.395Z" style="fill: rgb(223, 218, 218); fill-opacity: 1;" class="fills"></path><path d="M72.643 43.912c.611 2.313 1.918 4.007 4.19 4.892a5.058 5.058 0 0 1-1.378 2.125c-.759.697-1.64 1.187-2.584 1.576a.616.616 0 0 1-.419.009c-1.116-.463-2.151-1.049-2.974-1.958-.45-.5-.774-1.074-1.018-1.752 2.263-.885 3.585-2.566 4.183-4.892ZM66.426 31.307v-.814h5.807c.022-1.937-.003-3.809.016-5.718h.792c.031.617.009 1.243.012 1.869.003.632 0 1.265 0 1.897v1.937h5.777v.811h-5.752c-.046.651-.019 1.261-.025 1.869-.006.617 0 1.233 0 1.847v5.527h-.77c-.013-.194-.04-.401-.04-.608 0-2.646 0-5.295-.003-7.941 0-.21-.019-.423-.031-.673l-5.783-.003Z" style="fill: rgb(223, 218, 218); fill-opacity: 1;" class="fills"></path></g></svg> 