<?xml version="1.0" encoding="UTF-8"?> <svg xmlns="http://www.w3.org/2000/svg" width="215" height="89" id="screenshot-9fabbfc3-78d7-8077-8005-1cb968a27db4" fill="none" version="1.1"><g style="fill:rgb(0, 0, 0)"><g id="shape-9fabbfc3-78d7-8077-8005-1cb968a27db7" style="fill: rgb(0, 0, 0);"><g id="shape-9fabbfc3-78d7-8077-8005-1cb968a27dba"><g class="fills" id="fills-9fabbfc3-78d7-8077-8005-1cb968a27dba"><path d="M60.416 24.881c5.793-19.519-11.52-29.464-21.344-22.83h-.077c-9.822-6.634-27.133 3.311-21.339 22.83C6.89 22.213-6.219 35.143 3.275 47.618c-10.347 13.853 7.469 28.191 15.847 27.355-.242 9.685 7.999 10.524 12.287 6.923C35.039 86.864 38.995 89 38.995 89h.077s3.96-2.136 7.589-7.104c4.287 3.602 12.528 2.762 12.287-6.923 8.378.835 26.194-13.503 15.848-27.355 9.495-12.475-3.614-25.405-14.38-22.737ZM30.515 62.099h17.04c.74 0 .688 2.729 0 2.729h-17.04c-.688 0-.741-2.729 0-2.729Zm-13.4-3.84c-15.219-5.245-2.669-25.052 8.569-17.848 7.191 4.828 8.859 14.127 9.146 19.712l-3.42.007c-1.395-9.792-12.954-9.993-14.295-1.871Zm29.546 1.871-3.419-.007c.286-5.585 1.955-14.884 9.144-19.712 11.241-7.204 23.781 12.602 8.56 17.848-1.339-8.122-12.889-7.921-14.285 1.871Zm-5.186.009h-4.879c-.587-13.501-7.807-22.455-7.807-32.564 0-6.122 5.482-15.847 10.21-18.663h.071c4.73 2.816 10.21 12.541 10.21 18.663 0 10.109-7.217 19.063-7.805 32.564ZM7.324 47.476c-9.093-10.898 1.69-24.683 15.181-18.297C13.328 11.238 29.049-2.193 39 5.774c-7.599 6.315-18.372 18.742-8.779 35.412-9.948-9.972-22.087-2.732-23.018 6.08-.978 9.235 6.21 15.005 12.425 14.483-.978-7.543 8.092-7.932 9.231-1.598-1.359 1.362-1.322 4.12-.249 6.078-6.123 14.866-34.385-3.74-21.286-18.753Zm15.707 27.493c5.376-1.187 6.977-5.18 8.168-8.043 1.185.001 1.99.001 3.262.018-.361 17.714-14.292 15.023-11.43 8.025Zm16.04 9.829Zc-2.497-1.733-4.037-2.897-5.712-5.177 2.458-3.235 3.003-8.297 3.093-12.659h5.167c.09 4.362.634 9.424 3.095 12.659-1.677 2.28-3.218 3.444-5.643 5.177Zm4.538-17.854c1.273-.017 2.078-.017 3.262-.018 1.194 2.863 2.794 6.856 8.17 8.043 2.86 6.997-11.07 9.689-11.432-8.025Zm5.853-.714c1.071-1.958 1.11-4.716-.25-6.078 1.138-6.335 10.199-5.946 9.223 1.597 6.215.523 13.401-5.247 12.426-14.482-.935-8.812-13.062-16.052-23.014-6.08 9.597-16.67-1.179-29.098-8.777-35.413 9.951-7.966 25.673 5.465 16.495 23.407 13.49-6.387 24.273 7.399 15.18 18.297 13.099 15.014-15.163 33.62-21.283 18.752Z" class="cls-1" style="fill: rgb(223, 218, 218); fill-opacity: 1;"></path></g></g><g id="shape-9fabbfc3-78d7-8077-8005-1cb968a27dbb"><g class="fills" id="fills-9fabbfc3-78d7-8077-8005-1cb968a27dbb"><path d="M92.99 47.674c-1.352 0-2.722-.089-3.238-.176-.233-.036-.375-.179-.375-.446V34.801c0-.251.142-.411.375-.448.516-.089 1.886-.178 3.238-.178 3.291 0 5.391 1.695 5.391 5.547v2.408c0 3.816-2.099 5.544-5.391 5.544Zm3.771-7.952c0-3.228-1.638-4.155-3.771-4.155-.836 0-1.388.018-1.976.053v10.629c.57.036 1.14.036 1.976.036 2.134 0 3.771-.945 3.771-4.155v-2.408Z" class="cls-1" style="fill: rgb(223, 218, 218); fill-opacity: 1;"></path></g></g><g id="shape-9fabbfc3-78d7-8077-8005-1cb968a27dbc"><g class="fills" id="fills-9fabbfc3-78d7-8077-8005-1cb968a27dbc"><path d="M107.751 47.585c-.676.073-2.419.089-3.47.089-2.489 0-3.791-.943-3.791-3.316v-6.866c0-2.371 1.302-3.317 3.791-3.317 1.051 0 2.723.037 3.47.108.107.018.178.142.178.25v.89c0 .126-.071.215-.195.215H104.3c-1.888 0-2.19.499-2.19 1.854v2.479h5.463c.196 0 .356.16.356.357v.678c0 .197-.16.357-.356.357h-5.463v2.994c0 1.357.302 1.857 2.19 1.857h3.434c.124 0 .195.089.195.212v.909c0 .108-.071.233-.178.25Z" class="cls-1" style="fill: rgb(223, 218, 218); fill-opacity: 1;"></path></g></g><g id="shape-9fabbfc3-78d7-8077-8005-1cb968a27dbd"><g class="fills" id="fills-9fabbfc3-78d7-8077-8005-1cb968a27dbd"><path d="M118.623 35.691h-3.47v11.503c0 .178-.122.356-.319.356h-.979c-.177 0-.322-.16-.322-.356V35.691h-3.47c-.196 0-.355-.089-.355-.284v-.785c0-.179.159-.321.355-.321h8.56c.194 0 .337.123.337.321v.785c0 .178-.143.284-.337.284Z" class="cls-1" style="fill: rgb(223, 218, 218); fill-opacity: 1;"></path></g></g><g id="shape-9fabbfc3-78d7-8077-8005-1cb968a27dbe"><g class="fills" id="fills-9fabbfc3-78d7-8077-8005-1cb968a27dbe"><path d="M129.48 47.674c-1.353 0-2.723-.089-3.24-.176-.229-.036-.372-.179-.372-.446V34.801c0-.251.143-.411.372-.448.517-.089 1.887-.178 3.24-.178 3.293 0 5.393 1.695 5.393 5.547v2.408c0 3.816-2.099 5.544-5.393 5.544Zm3.774-7.952c0-3.228-1.638-4.155-3.774-4.155-.837 0-1.387.018-1.974.053v10.629c.567.036 1.137.036 1.974.036 2.136 0 3.774-.945 3.774-4.155v-2.408Z" class="cls-1" style="fill: rgb(223, 218, 218); fill-opacity: 1;"></path></g></g><g id="shape-9fabbfc3-78d7-8077-8005-1cb968a27dbf"><g class="fills" id="fills-9fabbfc3-78d7-8077-8005-1cb968a27dbf"><path d="M145.816 47.55h-.978c-.179 0-.319-.16-.319-.356v-5.28h-5.446v5.28c0 .178-.125.356-.322.356h-.98c-.176 0-.32-.178-.32-.356v-9.326c0-2.729 1.266-3.693 3.827-3.693h1.032c2.544 0 3.826.964 3.826 3.693v9.326c0 .178-.142.356-.32.356Zm-1.297-9.682c0-1.854-.59-2.266-2.208-2.266h-1.033c-1.62 0-2.205.412-2.205 2.266v2.621h5.446v-2.621Z" class="cls-1" style="fill: rgb(223, 218, 218); fill-opacity: 1;"></path></g></g><g id="shape-9fabbfc3-78d7-8077-8005-1cb968a27dc0"><g class="fills" id="fills-9fabbfc3-78d7-8077-8005-1cb968a27dc0"><path d="M157.916 47.55h-.995c-.179 0-.305-.16-.305-.356v-7.881c0-3.105-1.067-3.727-3.273-3.727-.765 0-2.188.07-2.633.106v11.503c0 .178-.124.356-.32.356h-.978c-.196 0-.32-.16-.32-.356V34.998c0-.446.141-.572.498-.624.941-.143 2.883-.215 3.789-.215 3.204 0 4.859 1.213 4.859 5.154v7.882c0 .178-.125.356-.322.355Z" class="cls-1" style="fill: rgb(223, 218, 218); fill-opacity: 1;"></path></g></g><g id="shape-9fabbfc3-78d7-8077-8005-1cb968a27dc1"><g class="fills" id="fills-9fabbfc3-78d7-8077-8005-1cb968a27dc1"><path d="M164.164 47.674a17.63 17.63 0 0 1-2.956-.249c-.302-.053-.339-.124-.339-.32v-.714c0-.195.145-.285.305-.285h.052c.819.071 2.12.109 2.938.109 2.134 0 2.704-.857 2.704-2.107 0-.89-.517-1.389-2.136-2.387l-1.725-1.053c-1.64-.998-2.458-1.909-2.458-3.335 0-2.159 1.548-3.157 4.253-3.157 1.051 0 2.422.108 3.097.215.178.035.302.123.302.302v.767c0 .178-.123.286-.302.286h-.036a48.918 48.918 0 0 0-3.061-.108c-1.833 0-2.616.392-2.616 1.694 0 .839.587 1.337 1.939 2.158l1.638.98c2.066 1.232 2.794 2.211 2.794 3.638 0 1.711-.89 3.566-4.393 3.566Z" class="cls-1" style="fill: rgb(223, 218, 218); fill-opacity: 1;"></path></g></g><g id="shape-9fabbfc3-78d7-8077-8005-1cb968a27dc2"><g class="fills" id="fills-9fabbfc3-78d7-8077-8005-1cb968a27dc2"><path d="M179.431 47.55h-1.389a.477.477 0 0 1-.391-.178l-5.018-6.117v5.939c0 .178-.123.356-.319.356h-.981c-.176 0-.319-.16-.319-.356V34.64c0-.179.143-.339.336-.339h.945c.179 0 .338.142.338.339v5.759l5.126-5.938c.105-.108.178-.16.354-.16h1.281c.179 0 .249.089.249.195a.244.244 0 0 1-.07.178l-5.356 6.064 5.356 6.419a.326.326 0 0 1 .089.215c0 .089-.07.178-.231.178Z" class="cls-1" style="fill: rgb(223, 218, 218); fill-opacity: 1;"></path></g></g><g id="shape-9fabbfc3-78d7-8077-8005-1cb968a27dc3"><g class="fills" id="fills-9fabbfc3-78d7-8077-8005-1cb968a27dc3"><path d="M188.685 47.585c-.679.073-2.42.089-3.47.089-2.491 0-3.792-.943-3.792-3.316v-6.866c0-2.371 1.301-3.317 3.792-3.317 1.05 0 2.723.037 3.47.108.106.018.178.142.178.25v.89c0 .126-.072.215-.196.215h-3.434c-1.886 0-2.187.499-2.187 1.854v2.479h5.461a.36.36 0 0 1 .357.357v.678a.36.36 0 0 1-.357.357h-5.461v2.994c0 1.357.301 1.857 2.187 1.857h3.434c.125 0 .196.089.196.212v.909c0 .108-.072.233-.178.25Z" class="cls-1" style="fill: rgb(223, 218, 218); fill-opacity: 1;"></path></g></g><g id="shape-9fabbfc3-78d7-8077-8005-1cb968a27dc4"><g class="fills" id="fills-9fabbfc3-78d7-8077-8005-1cb968a27dc4"><path d="M92.652 66.204c-1.335 0-2.767-.126-3.622-.321-.177-.036-.338-.162-.338-.357v-1.284c0-.197.161-.339.338-.339h.037c.71.089 2.961.179 3.619.179 1.583 0 2.064-.572 2.064-1.605 0-.696-.337-1.052-1.514-1.749l-2.349-1.408c-1.653-.982-2.098-2.017-2.098-3.264 0-1.962 1.139-3.388 4.447-3.388 1.177 0 2.814.178 3.417.32.179.037.32.16.32.339v1.321c0 .178-.123.32-.301.32h-.037a38.729 38.729 0 0 0-3.504-.178c-1.316 0-1.868.462-1.868 1.266 0 .589.302.945 1.457 1.588l2.137 1.194c1.956 1.089 2.472 2.229 2.472 3.639 0 1.799-1.12 3.727-4.677 3.727Z" class="cls-1" style="fill: rgb(223, 218, 218); fill-opacity: 1;"></path></g></g><g id="shape-9fabbfc3-78d7-8077-8005-1cb968a27dc5"><g class="fills" id="fills-9fabbfc3-78d7-8077-8005-1cb968a27dc5"><path d="M103.725 61.123c-.466 0-1.176-.055-1.585-.073v4.656c0 .194-.141.356-.338.356h-1.779a.358.358 0 0 1-.357-.356v-12.27c0-.357.213-.481.568-.536.928-.141 2.188-.231 3.49-.231 2.739 0 5.124.964 5.124 4.119v.162c0 3.157-2.385 4.173-5.123 4.173Zm2.668-4.336c0-1.498-.891-2.068-2.668-2.068-.375 0-1.265.035-1.585.072v4.244c.284.018 1.281.052 1.585.052 1.92 0 2.668-.712 2.668-2.139v-.161Z" class="cls-1" style="fill: rgb(223, 218, 218); fill-opacity: 1;"></path></g></g><g id="shape-9fabbfc3-78d7-8077-8005-1cb968a27dc6"><g class="fills" id="fills-9fabbfc3-78d7-8077-8005-1cb968a27dc6"><path d="M117.982 65.955c-.567.089-1.262.249-3.382.249-2.311 0-4.109-.625-4.109-3.656v-6.223c0-3.031 1.798-3.656 4.109-3.656 2.12 0 2.815.161 3.382.25.269.036.356.123.356.375v1.14c0 .197-.16.357-.356.357h-3.628c-1.033 0-1.407.357-1.407 1.534v1.926h4.822c.196 0 .356.162.356.356v1.284c0 .196-.16.357-.356.357h-4.822v2.3c0 1.177.374 1.534 1.407 1.534h3.628c.197 0 .356.16.356.357v1.14c0 .25-.088.339-.356.376Z" class="cls-1" style="fill: rgb(223, 218, 218); fill-opacity: 1;"></path></g></g><g id="shape-9fabbfc3-78d7-8077-8005-1cb968a27dc7"><g class="fills" id="fills-9fabbfc3-78d7-8077-8005-1cb968a27dc7"><path d="m123.096 67.594-.852 1.517c-.196.339-.304.429-.552.429h-1.798c-.161 0-.231-.09-.231-.215 0-.071.034-.179.089-.285l.996-1.944c.623-1.195.64-1.515.64-2.994V53.151c0-.178.128-.339.304-.339h1.869c.178 0 .303.161.303.339v10.951c0 1.515-.107 2.317-.768 3.492Z" class="cls-1" style="fill: rgb(223, 218, 218); fill-opacity: 1;"></path></g></g><g id="shape-9fabbfc3-78d7-8077-8005-1cb968a27dc8"><g class="fills" id="fills-9fabbfc3-78d7-8077-8005-1cb968a27dc8"><path d="M130.697 66.204c-1.264 0-2.972-.126-3.507-.215-.302-.053-.462-.195-.462-.552V53.435c0-.356.16-.499.462-.554.535-.089 2.243-.213 3.507-.213 3.558 0 5.586 1.926 5.586 5.458v2.621c0 3.529-2.028 5.457-5.586 5.457Zm3.131-8.077c0-2.677-1.352-3.372-3.131-3.372-.659 0-1.123.036-1.496.054v9.256c.373.018.838.052 1.496.052 1.779 0 3.131-.694 3.131-3.37v-2.62Z" class="cls-1" style="fill: rgb(223, 218, 218); fill-opacity: 1;"></path></g></g><g id="shape-9fabbfc3-78d7-8077-8005-1cb968a27dc9"><g class="fills" id="fills-9fabbfc3-78d7-8077-8005-1cb968a27dc9"><path d="M146.041 65.955c-.569.089-1.263.249-3.381.249-2.314 0-4.111-.625-4.111-3.656v-6.223c0-3.031 1.797-3.656 4.111-3.656 2.118 0 2.812.161 3.381.25.267.036.354.123.354.375v1.14c0 .197-.16.357-.354.357h-3.63c-1.031 0-1.406.357-1.406 1.534v1.926h4.824c.194 0 .355.162.355.356v1.284c0 .196-.16.357-.355.357h-4.824v2.3c0 1.177.375 1.534 1.406 1.534h3.63c.194 0 .354.16.354.357v1.14c0 .25-.087.339-.354.376Z" class="cls-1" style="fill: rgb(223, 218, 218); fill-opacity: 1;"></path></g></g><g id="shape-9fabbfc3-78d7-8077-8005-1cb968a27dca"><g class="fills" id="fills-9fabbfc3-78d7-8077-8005-1cb968a27dca"><path d="M158.583 66.061h-2.173c-.196 0-.267-.177-.356-.356l-2.561-4.761h-.251c-.461 0-1.174-.055-1.583-.07v4.831c0 .195-.143.356-.337.356h-1.78a.357.357 0 0 1-.356-.356v-12.27c0-.356.214-.48.571-.536.923-.141 2.188-.231 3.486-.231 2.741 0 5.126.981 5.126 4.031v.161c0 1.889-.944 3.067-2.403 3.638l2.794 5.207a.235.235 0 0 1 .036.142c0 .124-.07.213-.213.214Zm-2.671-9.361c0-1.339-.888-1.909-2.67-1.909-.374 0-1.261.037-1.583.071v4.013c.286.018 1.282.053 1.583.053 1.833 0 2.67-.5 2.67-2.068v-.16Z" class="cls-1" style="fill: rgb(223, 218, 218); fill-opacity: 1;"></path></g></g><g id="shape-9fabbfc3-78d7-8077-8005-1cb968a27dcb"><g class="fills" id="fills-9fabbfc3-78d7-8077-8005-1cb968a27dcb"><path d="M170.516 66.061h-2.386c-.213 0-.32-.053-.409-.195l-4.075-6.082v5.921a.358.358 0 0 1-.357.356h-1.761a.357.357 0 0 1-.354-.356V53.168c0-.197.16-.339.354-.339h1.761c.196 0 .357.142.357.339v5.671l4.361-5.867c.089-.123.212-.142.408-.142h2.029c.232 0 .337.089.337.212a.5.5 0 0 1-.123.286l-4.557 5.904 4.592 6.455c.053.089.089.16.089.213 0 .108-.089.161-.266.161Z" class="cls-1" style="fill: rgb(223, 218, 218); fill-opacity: 1;"></path></g></g><g id="shape-9fabbfc3-78d7-8077-8005-1cb968a27dcc"><g class="fills" id="fills-9fabbfc3-78d7-8077-8005-1cb968a27dcc"><path d="M176.767 66.195c-2.935 0-5.073-1.641-5.073-5.564v-2.408c0-3.922 2.138-5.564 5.073-5.564 2.935 0 5.072 1.642 5.072 5.564v2.408c0 3.923-2.136 5.564-5.072 5.564Zm2.58-7.972c0-2.354-.836-3.404-2.58-3.404-1.744 0-2.579 1.05-2.579 3.404v2.408c0 2.353.836 3.406 2.579 3.406 1.743 0 2.58-1.053 2.58-3.406v-2.408Z" class="cls-1" style="fill: rgb(223, 218, 218); fill-opacity: 1;"></path></g></g><g id="shape-9fabbfc3-78d7-8077-8005-1cb968a27dcd"><g class="fills" id="fills-9fabbfc3-78d7-8077-8005-1cb968a27dcd"><path d="M193.356 66.061h-2.169c-.197 0-.268-.177-.357-.356l-2.562-4.761h-.249c-.462 0-1.175-.055-1.583-.07v4.831c0 .195-.142.356-.339.356h-1.781a.358.358 0 0 1-.355-.356v-12.27c0-.356.214-.48.569-.536.925-.141 2.188-.231 3.489-.231 2.739 0 5.124.981 5.124 4.031v.161c0 1.889-.943 3.067-2.403 3.638l2.794 5.207c.037.053.037.106.037.142 0 .124-.071.213-.215.214Zm-2.668-9.361c0-1.339-.89-1.909-2.669-1.909-.374 0-1.264.037-1.584.071v4.013c.283.018 1.281.053 1.584.053 1.832 0 2.669-.5 2.669-2.068v-.16Z" class="cls-1" style="fill: rgb(223, 218, 218); fill-opacity: 1;"></path></g></g><g id="shape-9fabbfc3-78d7-8077-8005-1cb968a27dce"><g class="fills" id="fills-9fabbfc3-78d7-8077-8005-1cb968a27dce"><path d="M199.953 61.123c-.462 0-1.174-.055-1.584-.073v4.656c0 .194-.141.356-.337.356h-1.78a.357.357 0 0 1-.356-.356v-12.27c0-.357.214-.481.571-.536.923-.141 2.188-.231 3.486-.231 2.74 0 5.125.964 5.125 4.119v.162c0 3.157-2.385 4.173-5.125 4.173Zm2.669-4.336c0-1.498-.888-2.068-2.669-2.068-.375 0-1.264.035-1.584.072v4.244a45.22 45.22 0 0 0 1.584.052c1.923 0 2.669-.712 2.669-2.139v-.161Z" class="cls-1" style="fill: rgb(223, 218, 218); fill-opacity: 1;"></path></g></g><g id="shape-9fabbfc3-78d7-8077-8005-1cb968a27dcf"><g class="fills" id="fills-9fabbfc3-78d7-8077-8005-1cb968a27dcf"><path d="M210.32 66.204c-1.334 0-2.766-.126-3.621-.321-.178-.036-.338-.162-.338-.357v-1.284c0-.197.16-.339.338-.339h.036c.713.089 2.964.179 3.621.179 1.583 0 2.065-.572 2.065-1.605 0-.696-.338-1.052-1.514-1.749l-2.349-1.408c-1.656-.982-2.098-2.017-2.098-3.264 0-1.962 1.137-3.388 4.447-3.388 1.176 0 2.812.178 3.417.32.178.037.322.16.322.339v1.321c0 .178-.127.32-.304.32h-.036a38.791 38.791 0 0 0-3.506-.178c-1.317 0-1.869.462-1.869 1.266 0 .589.302.945 1.462 1.588l2.134 1.194c1.959 1.089 2.473 2.229 2.473 3.639 0 1.799-1.121 3.727-4.68 3.727Z" class="cls-1" style="fill: rgb(223, 218, 218); fill-opacity: 1;"></path></g></g><g id="shape-9fabbfc3-78d7-8077-8005-1cb968a27dd0"><g class="fills" id="fills-9fabbfc3-78d7-8077-8005-1cb968a27dd0"><path d="M61.351 5.917Z" class="cls-1" style="fill: rgb(223, 218, 218); fill-opacity: 1;"></path></g></g></g></g></svg> 