<?xml version="1.0" encoding="UTF-8"?> <svg xmlns="http://www.w3.org/2000/svg" width="194" height="69" id="screenshot-9fabbfc3-78d7-8077-8005-1cba9274f024" fill="none" version="1.1"><g style="fill:rgb(0, 0, 0)"><g id="shape-9fabbfc3-78d7-8077-8005-1cba9274f027"><g class="fills" id="fills-9fabbfc3-78d7-8077-8005-1cba9274f027"><path d="M77.52 11.369a11.553 11.553 0 0 1-.942 4.826 9.295 9.295 0 0 1-2.441 3.341 9.292 9.292 0 0 1-2.906 1.689 10.718 10.718 0 0 1-3.605.577c-.509 0-1.002 0-1.487-.043l-.795-.04c0-.051 0-1.25.028-3.591.027-2.34.031-4.567.031-6.665V7.174c0-1.748 0-3.865-.051-6.362h.994l.954-.02a12.754 12.754 0 0 1 3.995.576 8.617 8.617 0 0 1 3.113 1.827 9.007 9.007 0 0 1 2.357 3.47 13.29 13.29 0 0 1 .755 4.704Zm-1.856 0a10.617 10.617 0 0 0-.612-3.681 7.007 7.007 0 0 0-1.904-2.858 6.978 6.978 0 0 0-2.724-1.545 9.691 9.691 0 0 0-2.711-.439h-.564c0 1.647-.024 3.007-.028 4.089-.004 1.082 0 1.961 0 2.592v3.207c0 1.682 0 4.006.024 6.982h.552a8.93 8.93 0 0 0 2.835-.478 7.08 7.08 0 0 0 2.385-1.318 7.845 7.845 0 0 0 1.988-2.689 9.272 9.272 0 0 0 .759-3.862Z" class="cls-1" style="fill: rgb(223, 218, 218); fill-opacity: 1;"></path></g></g><g id="shape-9fabbfc3-78d7-8077-8005-1cba9274f028"><g class="fills" id="fills-9fabbfc3-78d7-8077-8005-1cba9274f028"><path d="M89.323 13.259h-7.851a9.42 9.42 0 0 0 .489 3.027 5.444 5.444 0 0 0 1.467 2.277c.414.381.902.676 1.435.867.624.203 1.279.3 1.936.286.378.001.757-.017 1.133-.055l.636-.07-.195 2.124c-.059 0-.25.028-.576.051a16.23 16.23 0 0 1-1.153.032 6.66 6.66 0 0 1-3.029-.628 5.779 5.779 0 0 1-2.119-1.811 8.673 8.673 0 0 1-1.193-2.438 10.4 10.4 0 0 1-.493-3.297 12.933 12.933 0 0 1 .37-3.219c.239-.939.611-1.841 1.105-2.678a4.75 4.75 0 0 1 1.59-1.639 3.751 3.751 0 0 1 1.988-.576 3.623 3.623 0 0 1 1.793.435 3.924 3.924 0 0 1 1.356 1.333c.466.761.797 1.595.978 2.466a15.22 15.22 0 0 1 .333 3.513Zm-1.685-1.749a6.54 6.54 0 0 0-.914-3.057 2.272 2.272 0 0 0-1.96-1.11 2.435 2.435 0 0 0-2.032 1.125 7.165 7.165 0 0 0-1.129 3.042h6.035Z" class="cls-1" style="fill: rgb(223, 218, 218); fill-opacity: 1;"></path></g></g><g id="shape-9fabbfc3-78d7-8077-8005-1cba9274f029"><g class="fills" id="fills-9fabbfc3-78d7-8077-8005-1cba9274f029"><path d="M106.092 5.779v14.98c0 1.782-.212 3.181-.636 4.195a5.903 5.903 0 0 1-1.813 2.426 7.249 7.249 0 0 1-2.25 1.083c-1.05.285-2.136.417-3.224.392l-.171-2.004c.76-.014 1.518-.078 2.27-.192a5.828 5.828 0 0 0 1.828-.604 3.842 3.842 0 0 0 1.766-1.819 7.15 7.15 0 0 0 .516-2.744h-.52a8.59 8.59 0 0 1-2.66-.447 5.722 5.722 0 0 1-2.33-1.415 6.825 6.825 0 0 1-1.55-2.407 9.875 9.875 0 0 1-.596-3.674 8.537 8.537 0 0 1 .835-3.862 7.037 7.037 0 0 1 2.226-2.662 6.28 6.28 0 0 1 2.182-.976 12.76 12.76 0 0 1 2.859-.27h1.268Zm-1.686 8.303v-2.803c0-1.117 0-2.289-.028-3.505h-.282a7.376 7.376 0 0 0-1.765.188 5.802 5.802 0 0 0-1.59.702 4.337 4.337 0 0 0-1.694 2.007 7.378 7.378 0 0 0-.584 2.992 6.783 6.783 0 0 0 .576 2.928 4.715 4.715 0 0 0 1.539 1.886c.477.319.999.566 1.55.733a6.104 6.104 0 0 0 1.849.283h.397v-1.737c0-1.031 0-2.255.032-3.674Z" class="cls-1" style="fill: rgb(223, 218, 218); fill-opacity: 1;"></path></g></g><g id="shape-9fabbfc3-78d7-8077-8005-1cba9274f02a"><g class="fills" id="fills-9fabbfc3-78d7-8077-8005-1cba9274f02a"><path d="M116.122 7.774c-.63.241-1.241.525-1.829.851a31.98 31.98 0 0 0-2.842 1.729V14.529c0 1.231 0 2.694.027 4.379.028 1.686.032 2.635.032 2.823h-1.713c0-.18 0-.784.028-1.756.027-.973.031-2.686.031-5.097v-4.069c0-1.737-.023-3.384-.043-4.928h1.681v2.391a22.93 22.93 0 0 1 2.421-1.729 12.1 12.1 0 0 1 1.913-.996l.294 2.227Z" class="cls-1" style="fill: rgb(223, 218, 218); fill-opacity: 1;"></path></g></g><g id="shape-9fabbfc3-78d7-8077-8005-1cba9274f02b"><g class="fills" id="fills-9fabbfc3-78d7-8077-8005-1cba9274f02b"><path d="M127.611 13.851a13.251 13.251 0 0 1-.45 3.47 8.68 8.68 0 0 1-1.3 2.826 5.326 5.326 0 0 1-1.59 1.502 3.85 3.85 0 0 1-1.987.513 3.773 3.773 0 0 1-1.479-.302 4.717 4.717 0 0 1-1.328-.85c-.294.643-.545 1.176-.743 1.646-.199.471-.322.726-.366.82l-.732-.737c.032-.063.147-.298.334-.706.187-.408.465-.996.827-1.78a8.644 8.644 0 0 1-1.344-2.846 13.164 13.164 0 0 1-.469-3.58c-.004-1.112.129-2.22.398-3.301a8.628 8.628 0 0 1 1.193-2.713 5.435 5.435 0 0 1 1.697-1.681 3.895 3.895 0 0 1 2.043-.585 3.749 3.749 0 0 1 1.531.322c.48.212.918.506 1.296.866.131-.29.282-.627.461-.999.179-.373.374-.784.584-1.282l.772.705c-.187.373-.374.753-.549 1.133a46.86 46.86 0 0 1-.584 1.208 8.8 8.8 0 0 1 1.359 2.854c.31 1.151.46 2.338.426 3.497Zm-1.738.11c.002-.961-.11-1.919-.334-2.854a6.42 6.42 0 0 0-1.025-2.353 2.986 2.986 0 0 0-.99-.913 2.522 2.522 0 0 0-1.213-.322 2.447 2.447 0 0 0-1.304.345c-.422.28-.779.647-1.045 1.075a6.6 6.6 0 0 0-.906 2.148 10.938 10.938 0 0 0-.334 2.713c-.01.984.103 1.965.338 2.921a6.126 6.126 0 0 0 1.085 2.305c.262.344.597.627.982.831.36.191.763.29 1.173.29.449.003.89-.116 1.276-.345a3.151 3.151 0 0 0 1.041-.984 6.774 6.774 0 0 0 .946-2.18c.219-.877.329-1.778.31-2.677Zm-.544-5.489c-.434.906-.891 1.866-1.372 2.889-.481 1.024-.926 1.961-1.335 2.843a140.385 140.385 0 0 0-1.448 3.105l-1.212 2.685-.676-.784c.263-.564.676-1.439 1.24-2.634.565-1.196 1.026-2.16 1.372-2.898.443-.961.936-2.024 1.479-3.187.54-1.176.982-2.113 1.316-2.846l.636.827Z" class="cls-1" style="fill: rgb(223, 218, 218); fill-opacity: 1;"></path></g></g><g id="shape-9fabbfc3-78d7-8077-8005-1cba9274f02c"><g class="fills" id="fills-9fabbfc3-78d7-8077-8005-1cba9274f02c"><path d="M139.012 21.739h-1.709c0-.294.02-1.259.035-2.893.016-1.635.024-2.647.024-3.031v-2.399c0-1.059 0-1.831-.024-2.321-.018-1.2-.177-2.06-.477-2.58a1.636 1.636 0 0 0-1.55-.784 3.558 3.558 0 0 0-1.646.553c-.707.404-1.373.875-1.988 1.407V14.647c0 1.215.011 2.679.032 4.391 0 1.717.028 2.615.028 2.701h-1.741c0-.075 0-.71.032-1.921.032-1.212.028-2.995.028-5.375v-3.846c0-1.469-.018-3.037-.052-4.705h1.685v1.823a13.819 13.819 0 0 1 2.545-1.713 4.161 4.161 0 0 1 1.689-.486 2.567 2.567 0 0 1 2.23 1.259c.557.839.835 1.987.835 3.446v5.716c0 .944 0 2.128.028 3.552.028 1.423.028 2.168-.004 2.25Z" class="cls-1" style="fill: rgb(223, 218, 218); fill-opacity: 1;"></path></g></g><g id="shape-9fabbfc3-78d7-8077-8005-1cba9274f02d"><g class="fills" id="fills-9fabbfc3-78d7-8077-8005-1cba9274f02d"><path d="M151.066 21.739h-1.714c0-.293.013-1.257.04-2.893.026-1.637.033-2.647.02-3.031v-2.399c0-1.059 0-1.831-.024-2.321-.021-1.2-.18-2.06-.477-2.58a1.638 1.638 0 0 0-1.551-.784 3.558 3.558 0 0 0-1.645.553c-.708.404-1.374.875-1.988 1.407V14.647c0 1.215.011 2.679.032 4.391 0 1.717.028 2.615.028 2.701h-1.714c0-.075 0-.71.032-1.921.032-1.212.028-2.995.028-5.375v-3.846c0-1.469-.017-3.037-.052-4.705h1.686v1.823a13.811 13.811 0 0 1 2.544-1.713c.522-.28 1.1-.446 1.694-.486a2.565 2.565 0 0 1 2.222 1.259c.562.839.841 1.987.839 3.446v5.716c0 .943.009 2.127.027 3.552.02 1.419.032 2.168-.027 2.25Z" class="cls-1" style="fill: rgb(223, 218, 218); fill-opacity: 1;"></path></g></g><g id="shape-9fabbfc3-78d7-8077-8005-1cba9274f02e"><g class="fills" id="fills-9fabbfc3-78d7-8077-8005-1cba9274f02e"><path d="M163.441 13.279h-7.843a9.143 9.143 0 0 0 .489 3.022 5.403 5.403 0 0 0 1.462 2.286c.416.378.904.672 1.436.862.622.203 1.276.3 1.932.287.379.003.759-.016 1.137-.055.341-.032.552-.059.632-.067l-.195 2.125c-.056 0-.251.023-.577.047-.326.023-.707.031-1.152.031a6.652 6.652 0 0 1-3.026-.647 5.732 5.732 0 0 1-2.111-1.787 8.698 8.698 0 0 1-1.192-2.443 10.36 10.36 0 0 1-.493-3.301 12.92 12.92 0 0 1 .37-3.218 10.19 10.19 0 0 1 1.105-2.678 4.724 4.724 0 0 1 1.59-1.639 3.712 3.712 0 0 1 1.988-.58 3.616 3.616 0 0 1 1.788.439 3.944 3.944 0 0 1 1.36 1.333c.465.761.796 1.595.978 2.466.244 1.16.36 2.343.322 3.517Zm-1.682-1.753a6.547 6.547 0 0 0-.914-3.058 2.268 2.268 0 0 0-1.96-1.109 2.414 2.414 0 0 0-2.031 1.129 7.117 7.117 0 0 0-1.129 3.038h6.034Z" class="cls-1" style="fill: rgb(223, 218, 218); fill-opacity: 1;"></path></g></g><g id="shape-9fabbfc3-78d7-8077-8005-1cba9274f02f"><g class="fills" id="fills-9fabbfc3-78d7-8077-8005-1cba9274f02f"><path d="M82.12 44.501a10.209 10.209 0 0 1-.751 4.113 6.744 6.744 0 0 1-2.028 2.677 6.734 6.734 0 0 1-2.441 1.176c-.823.221-1.671.336-2.524.342l.056 7.213H72.69c0-.176.024-1.623.04-4.312.016-2.69.02-5.426.02-8.151v-4.763c0-1.812-.015-3.76-.044-5.846h1.221a14.361 14.361 0 0 1 3.55.345 5.989 5.989 0 0 1 2.298 1.216 6.286 6.286 0 0 1 1.729 2.462 8.966 8.966 0 0 1 .616 3.528Zm-1.741.075a6.644 6.644 0 0 0-.501-2.67 4.802 4.802 0 0 0-1.304-1.819 4.746 4.746 0 0 0-1.662-.859 7.031 7.031 0 0 0-2.019-.274h-.489v11.875a8.034 8.034 0 0 0 2.047-.271 5.187 5.187 0 0 0 1.69-.737 4.913 4.913 0 0 0 1.689-2.066 7.356 7.356 0 0 0 .549-3.179Z" class="cls-1" style="fill: rgb(223, 218, 218); fill-opacity: 1;"></path></g></g><g id="shape-9fabbfc3-78d7-8077-8005-1cba9274f030"><g class="fills" id="fills-9fabbfc3-78d7-8077-8005-1cba9274f030"><path d="M86.994 34.061h-1.92v-2.697h1.916l.004 2.697Zm-.119 18.838h-1.71c0-.165.02-1.196.036-3.082.016-1.886.02-3.45.02-4.677v-3.528c0-1.271 0-2.796-.048-4.528h1.71c0 1.501-.028 2.909-.04 4.218-.012 1.309 0 2.474 0 3.497 0 2.431.009 4.38.028 5.849 0 1.474.027 2.227.004 2.251Z" class="cls-1" style="fill: rgb(223, 218, 218); fill-opacity: 1;"></path></g></g><g id="shape-9fabbfc3-78d7-8077-8005-1cba9274f031"><g class="fills" id="fills-9fabbfc3-78d7-8077-8005-1cba9274f031"><path d="M99.302 36.939V51.919c0 1.787-.212 3.187-.636 4.198a5.942 5.942 0 0 1-1.809 2.427 7.256 7.256 0 0 1-2.254 1.082 11.284 11.284 0 0 1-3.22.392l-.175-2.003c.76-.014 1.518-.078 2.27-.192a5.851 5.851 0 0 0 1.832-.604 3.848 3.848 0 0 0 1.762-1.819 7.154 7.154 0 0 0 .52-2.744h-.52a8.68 8.68 0 0 1-2.66-.447 5.735 5.735 0 0 1-2.33-1.416 6.91 6.91 0 0 1-1.554-2.407 9.891 9.891 0 0 1-.596-3.677 8.522 8.522 0 0 1 .839-3.862 7.05 7.05 0 0 1 2.254-2.658 6.14 6.14 0 0 1 2.182-.976 12.667 12.667 0 0 1 2.854-.274h1.241Zm-1.682 8.307v-2.803c0-1.121 0-2.29-.024-3.505h-.282a7.326 7.326 0 0 0-1.765.188c-.564.152-1.1.389-1.59.702a4.332 4.332 0 0 0-1.694 2.007 7.26 7.26 0 0 0-.588 2.991 6.756 6.756 0 0 0 .58 2.925 4.72 4.72 0 0 0 1.555 1.89c.472.315.989.559 1.534.725a5.943 5.943 0 0 0 1.849.282h.397v-1.736c0-1.035 0-2.255.028-3.666Z" class="cls-1" style="fill: rgb(223, 218, 218); fill-opacity: 1;"></path></g></g><g id="shape-9fabbfc3-78d7-8077-8005-1cba9274f032"><g class="fills" id="fills-9fabbfc3-78d7-8077-8005-1cba9274f032"><path d="M111.709 44.442h-7.836a9.197 9.197 0 0 0 .489 3.023c.287.87.79 1.656 1.463 2.286.417.376.905.668 1.436.858a5.726 5.726 0 0 0 1.936.29c.378.001.756-.017 1.133-.055l.636-.07-.199 2.125c-.056 0-.247.027-.577.051-.33.023-.707.031-1.148.031a6.672 6.672 0 0 1-3.03-.647 5.717 5.717 0 0 1-2.111-1.791 8.73 8.73 0 0 1-1.192-2.439 10.393 10.393 0 0 1-.493-3.301 13.011 13.011 0 0 1 .369-3.223c.24-.938.612-1.838 1.106-2.673a4.698 4.698 0 0 1 1.59-1.639 3.759 3.759 0 0 1 3.764-.145c.556.33 1.022.789 1.356 1.337.463.761.794 1.593.978 2.462.244 1.16.36 2.343.33 3.52Zm-1.682-1.752a6.517 6.517 0 0 0-.914-3.058 2.264 2.264 0 0 0-1.96-1.11 2.425 2.425 0 0 0-2.031 1.126 7.072 7.072 0 0 0-1.129 3.042h6.034Z" class="cls-1" style="fill: rgb(223, 218, 218); fill-opacity: 1;"></path></g></g><g id="shape-9fabbfc3-78d7-8077-8005-1cba9274f033"><g class="fills" id="fills-9fabbfc3-78d7-8077-8005-1cba9274f033"><path d="M120.582 48.324a5.16 5.16 0 0 1-.397 2.066 4.06 4.06 0 0 1-1.026 1.47 4.391 4.391 0 0 1-1.57.901 6.295 6.295 0 0 1-2.012.302c-.37 0-.739-.025-1.105-.074a10.053 10.053 0 0 1-.648-.09l-.064-2.043c.064 0 .314.043.76.094.434.047.871.071 1.308.071.329-.005.657-.036.981-.09.35-.046.687-.165.986-.349.338-.207.612-.5.795-.847.185-.377.275-.793.263-1.212a2.09 2.09 0 0 0-.227-1.038 3.465 3.465 0 0 0-.632-.785 7.35 7.35 0 0 0-1.192-.897 11.884 11.884 0 0 1-1.265-.918 4.323 4.323 0 0 1-1.113-1.521 4.975 4.975 0 0 1-.397-2.035 4.708 4.708 0 0 1 .441-2.081 3.958 3.958 0 0 1 1.193-1.49 3.488 3.488 0 0 1 1.419-.663 7.22 7.22 0 0 1 1.502-.164c.446 0 .796 0 1.09.043.294.043.445.039.485.039l.123 2.043c-.052 0-.274 0-.672-.063-.43-.044-.863-.065-1.296-.063a3.617 3.617 0 0 0-.954.126 2.366 2.366 0 0 0-.763.364 1.918 1.918 0 0 0-.668.839c-.13.299-.199.62-.203.945-.01.38.088.754.282 1.082.177.297.403.562.668.784.386.323.793.622 1.217.894.391.253.766.531 1.121.831.486.43.879.951 1.157 1.533.279.632.415 1.318.413 1.996Z" class="cls-1" style="fill: rgb(223, 218, 218); fill-opacity: 1;"></path></g></g><g id="shape-9fabbfc3-78d7-8077-8005-1cba9274f034"><g class="fills" id="fills-9fabbfc3-78d7-8077-8005-1cba9274f034"><path d="M132.56 44.501a10.154 10.154 0 0 1-.747 4.113 6.786 6.786 0 0 1-2.028 2.677 6.734 6.734 0 0 1-2.441 1.176 9.943 9.943 0 0 1-2.528.342l.06 7.213h-1.742c0-.176.024-1.623.04-4.312.016-2.69.02-5.426.02-8.151v-4.763c0-1.812-.015-3.76-.044-5.846h1.217a14.345 14.345 0 0 1 3.554.345 5.989 5.989 0 0 1 2.298 1.216 6.296 6.296 0 0 1 1.729 2.462 8.963 8.963 0 0 1 .612 3.528Zm-1.737.075a6.644 6.644 0 0 0-.501-2.67 4.793 4.793 0 0 0-1.308-1.819 4.687 4.687 0 0 0-1.658-.859 7.031 7.031 0 0 0-2.019-.274h-.489v11.875a8.02 8.02 0 0 0 2.051-.271 5.187 5.187 0 0 0 1.69-.737 4.886 4.886 0 0 0 1.689-2.066 7.237 7.237 0 0 0 .545-3.179Z" class="cls-1" style="fill: rgb(223, 218, 218); fill-opacity: 1;"></path></g></g><g id="shape-9fabbfc3-78d7-8077-8005-1cba9274f035"><g class="fills" id="fills-9fabbfc3-78d7-8077-8005-1cba9274f035"><path d="M143.962 44.442h-7.844a9.388 9.388 0 0 0 .485 3.023 5.445 5.445 0 0 0 1.467 2.286 4.27 4.27 0 0 0 1.435.858 5.757 5.757 0 0 0 1.932.29c.38.001.759-.017 1.137-.055l.632-.07-.195 2.125c-.055 0-.246.027-.572.051-.326.023-.712.031-1.153.031a6.668 6.668 0 0 1-3.029-.647 5.757 5.757 0 0 1-2.115-1.791 8.76 8.76 0 0 1-1.193-2.439 10.42 10.42 0 0 1-.493-3.301 13.012 13.012 0 0 1 .37-3.223c.239-.938.613-1.839 1.109-2.673a4.673 4.673 0 0 1 1.59-1.639 3.717 3.717 0 0 1 1.988-.58c.626-.01 1.243.14 1.793.435.556.33 1.021.789 1.356 1.337.465.76.795 1.592.978 2.462.243 1.16.359 2.343.322 3.52Zm-1.682-1.752a6.54 6.54 0 0 0-.914-3.058 2.267 2.267 0 0 0-1.96-1.11 2.395 2.395 0 0 0-2.028 1.126 7.073 7.073 0 0 0-1.133 3.042h6.035Z" class="cls-1" style="fill: rgb(223, 218, 218); fill-opacity: 1;"></path></g></g><g id="shape-9fabbfc3-78d7-8077-8005-1cba9274f036"><g class="fills" id="fills-9fabbfc3-78d7-8077-8005-1cba9274f036"><path d="M148.907 52.82c.007.941-.092 1.88-.294 2.799a5.776 5.776 0 0 1-.998 2.259 5.431 5.431 0 0 1-1.55 1.372 6.57 6.57 0 0 1-2.445.784l-.37-1.909a7.635 7.635 0 0 0 1.833-.522 3.083 3.083 0 0 0 1.244-.937 4.04 4.04 0 0 0 .708-1.627c.166-.888.239-1.79.218-2.693 0-2.614-.009-5.795-.028-9.542l-.027-5.732h1.709V52.82Zm.119-18.759h-1.916v-2.697h1.916v2.697Z" class="cls-1" style="fill: rgb(223, 218, 218); fill-opacity: 1;"></path></g></g><g id="shape-9fabbfc3-78d7-8077-8005-1cba9274f037"><g class="fills" id="fills-9fabbfc3-78d7-8077-8005-1cba9274f037"><path d="M160.531 53.134H159.581a15.598 15.598 0 0 1-3.228-.259 6.409 6.409 0 0 1-2.278-1.023 6.358 6.358 0 0 1-2.206-2.654 8.878 8.878 0 0 1-.748-3.685 10.02 10.02 0 0 1 .839-4.211 6.607 6.607 0 0 1 2.421-2.862 7.016 7.016 0 0 1 2.127-.949 9.195 9.195 0 0 1 2.357-.317l-.028-7.21h1.71c0 .209-.009 1.668-.028 4.375a1238.12 1238.12 0 0 0-.028 8.233c0 2.196.007 4.183.02 5.963 0 1.772.028 3.301.02 4.599Zm-1.682-10.977v-2.886a7.738 7.738 0 0 0-2.059.267 5.906 5.906 0 0 0-1.654.717 4.63 4.63 0 0 0-1.689 2.051 7.51 7.51 0 0 0-.604 3.136 6.067 6.067 0 0 0 .58 2.744 5.052 5.052 0 0 0 1.439 1.808c.506.39 1.082.684 1.698.866a6.684 6.684 0 0 0 1.987.29h.287v-2.329c0-1.458 0-3.681.015-6.664Z" class="cls-1" style="fill: rgb(223, 218, 218); fill-opacity: 1;"></path></g></g><g id="shape-9fabbfc3-78d7-8077-8005-1cba9274f038"><g class="fills" id="fills-9fabbfc3-78d7-8077-8005-1cba9274f038"><path d="M172.962 44.442h-7.843a9.365 9.365 0 0 0 .489 3.023 5.388 5.388 0 0 0 1.467 2.286c.414.377.9.669 1.431.858a5.726 5.726 0 0 0 1.936.29c.378.001.756-.017 1.133-.055l.636-.07-.195 2.125c-.06 0-.25.027-.576.051-.326.023-.712.031-1.153.031a6.652 6.652 0 0 1-3.026-.647 5.695 5.695 0 0 1-2.115-1.791 8.635 8.635 0 0 1-1.192-2.439 10.393 10.393 0 0 1-.493-3.301c-.013-1.085.11-2.167.366-3.223.239-.938.612-1.839 1.109-2.673a4.664 4.664 0 0 1 1.59-1.639 3.712 3.712 0 0 1 1.988-.58c.625-.01 1.243.14 1.793.435a3.95 3.95 0 0 1 1.355 1.337c.467.759.797 1.592.978 2.462.246 1.16.362 2.343.322 3.52Zm-1.677-1.752a6.534 6.534 0 0 0-.919-3.058 2.264 2.264 0 0 0-1.96-1.11 2.425 2.425 0 0 0-2.031 1.126 7.079 7.079 0 0 0-1.125 3.042h6.035Z" class="cls-1" style="fill: rgb(223, 218, 218); fill-opacity: 1;"></path></g></g><g id="shape-9fabbfc3-78d7-8077-8005-1cba9274f039"><g class="fills" id="fills-9fabbfc3-78d7-8077-8005-1cba9274f039"><path d="M182.205 38.938c-.631.241-1.244.526-1.833.855a30.729 30.729 0 0 0-2.838 1.729V45.697c0 1.231 0 2.693.028 4.379.028 1.686.028 2.631.028 2.819h-1.71c0-.177 0-.761.028-1.753.028-.992.028-2.685.028-5.096v-4.07c0-1.744-.024-3.383-.044-4.928h1.682v2.353a23.04 23.04 0 0 1 2.421-1.725 11.804 11.804 0 0 1 1.912-.996l.298 2.258Z" class="cls-1" style="fill: rgb(223, 218, 218); fill-opacity: 1;"></path></g></g><g id="shape-9fabbfc3-78d7-8077-8005-1cba9274f03a"><g class="fills" id="fills-9fabbfc3-78d7-8077-8005-1cba9274f03a"><path d="M192.895 44.442h-7.848a9.311 9.311 0 0 0 .489 3.023c.288.87.791 1.655 1.463 2.286.417.376.904.668 1.435.858a5.734 5.734 0 0 0 1.936.29c.379.001.757-.017 1.133-.055l.637-.07-.195 2.125c-.06 0-.251.027-.577.051-.326.023-.711.031-1.153.031a6.684 6.684 0 0 1-3.029-.647 5.77 5.77 0 0 1-2.111-1.791 8.53 8.53 0 0 1-1.192-2.439 10.364 10.364 0 0 1-.497-3.301 13.011 13.011 0 0 1 .369-3.223c.237-.938.608-1.838 1.102-2.673a4.656 4.656 0 0 1 1.59-1.639 3.723 3.723 0 0 1 1.987-.58c.626-.01 1.244.14 1.793.435.556.33 1.021.789 1.356 1.337.464.761.796 1.593.982 2.462.239 1.161.355 2.343.33 3.52Zm-1.678-1.752a6.533 6.533 0 0 0-.918-3.058 2.257 2.257 0 0 0-1.96-1.11 2.413 2.413 0 0 0-2.027 1.126 7.06 7.06 0 0 0-1.133 3.042h6.038Z" class="cls-1" style="fill: rgb(223, 218, 218); fill-opacity: 1;"></path></g></g><g id="shape-9fabbfc3-78d7-8077-8005-1cba9274f03b"><g class="fills" id="fills-9fabbfc3-78d7-8077-8005-1cba9274f03b"><path d="M60.776 35.711c-1.308-5.927-6.361-9.487-10.543-10.291-2.385-.458-5.526-.082-8.829.839l3.395-3.92c2.604-2.862 5.069-5.567 6.575-8.21a7.9 7.9 0 0 0 1.101-3.936 6.19 6.19 0 0 0-.369-2.129c-.676-1.83-2.207-3.234-4.433-4.069-2.083-.784-4.186-.114-6.229.533-1.69.569-3.328 1.074-4.648.588-.552-.204-.846-.686-1.276-1.446-.429-.761-.874-1.549-1.785-2.047-2.536-1.392-5.422-.227-7.366.784-5.22 2.654-7.478 8.155-7.478 12.491 0 .27 0 .545.028.807.163 2.427 1.292 5.32 2.914 8.265-2.167-.882-4.234-1.525-6.011-1.67-4.508-.373-10.654 1.505-13.437 6.5-1.017 1.78-2.17 4.406-.68 6.79.517.835 1.356 1.262 2.099 1.654.684.361 1.277.663 1.503 1.176.501 1.177 0 2.604-.513 4.133-.608 1.776-1.292 3.783-.445 5.727.871 2.012 2.298 3.423 4.119 4.086a7.893 7.893 0 0 0 6.185-.522c2.68-1.305 5.395-3.493 8.273-5.794 1.988-1.608 4.771-3.874 6.102-4.517 1.332-.643 1.861-.584 1.861-.584v-5.598H16.577v-2.745h14.26V19.355h2.676v13.263H46.89v2.745H33.513s.075 15.289.051 16.465a31.863 31.863 0 0 1-.425 5.395 8.352 8.352 0 0 1-1.368 3.262 6.067 6.067 0 0 1-2.409 1.882 14.458 14.458 0 0 1-3.522 1.015l.72 3.76a12.621 12.621 0 0 0 4.738-1.549 10.719 10.719 0 0 0 3.01-2.744 11.823 11.823 0 0 0 1.936-4.505c.39-1.843.582-3.723.572-5.606 0-1.913 0-4.015-.024-6.273a50.7 50.7 0 0 1 1.137 1.725c2.028 3.137 3.932 6.14 6.015 8.206 1.59 1.568 3.526 2.352 5.407 2.191 1.88-.16 3.578-1.278 4.893-3.203 1.217-1.768 1.102-3.92.986-5.986-.091-1.753-.186-3.411.577-4.532.318-.463.819-.62 1.614-.835.795-.216 1.65-.451 2.333-1.177 1.865-2.081 1.467-5.073 1.022-7.143Z" class="cls-1" style="fill: rgb(223, 218, 218); fill-opacity: 1;"></path></g></g></g></svg> 