<?xml version="1.0" encoding="UTF-8"?> <svg xmlns="http://www.w3.org/2000/svg" width="260.751" height="67.228" fill="none"><g style="fill: rgb(0, 0, 0);"><path d="M63.399 17.696c-3.383-6.21-8.244-10.914-14.561-14.123A32.96 32.96 0 0 0 39.542.504a32.47 32.47 0 0 0-4.411-.465c-.107 0-.22-.028-.326-.039h-2.181c-.365.028-.736.062-1.101.084a33.286 33.286 0 0 0-8.47 1.641A33.355 33.355 0 0 0 11.487 8.35a33.42 33.42 0 0 0-9.11 12.863 32.904 32.904 0 0 0-1.933 7 32.878 32.878 0 0 0-.405 4.071c0 .078-.022.157-.039.241v2.173c.028.369.062.733.084 1.103.18 2.889.731 5.701 1.647 8.445a33.23 33.23 0 0 0 6.648 11.53c3.575 4.054 7.88 7.078 12.904 9.083a32.616 32.616 0 0 0 6.997 1.921c1.366.218 2.742.364 4.131.409.073 0 .146.022.213.039h2.181c.365-.028.736-.062 1.101-.084a33.302 33.302 0 0 0 8.47-1.641 33.33 33.33 0 0 0 11.582-6.641c4.047-3.551 7.07-7.824 9.077-12.813a32.978 32.978 0 0 0 1.95-7.045c.32-1.994.472-4.004.427-6.02-.112-5.415-1.422-10.528-4.013-15.288Zm-3.647 19.023c.674 1.383 1.068 2.845 1.073 4.391 0 2.206-.753 4.138-2.197 5.79-1.754 2.01-3.973 3.203-6.615 3.606a8.178 8.178 0 0 1-3.271-.162c.062.28.124.532.169.79.303 1.657.202 3.264-.59 4.782-1.377 2.643-4.361 3.735-7.228 2.649a8.26 8.26 0 0 1-1.045-.487c-.331-.18-.641-.398-.955-.594-.236.23-.489.454-.725.694-1.366 1.4-2.827 2.688-4.468 3.769-.135.09-.225.079-.349 0-1.36-.901-2.607-1.943-3.776-3.08-.422-.414-.832-.84-1.248-1.265a1.38 1.38 0 0 0-.118-.107c-.539.303-1.045.633-1.585.879-1.568.717-3.181.863-4.799.191-1.894-.784-2.99-2.251-3.457-4.211-.297-1.272-.202-2.537.102-3.792.016-.061.028-.123.039-.19-3.327.655-6.21-.258-8.75-2.352-1.63-1.344-2.709-3.052-3.148-5.135-.365-1.742-.163-3.433.439-5.091.365-1.019.871-1.965 1.467-2.872l.123-.196a6.519 6.519 0 0 1-1.517-2.117c-.618-1.361-.832-2.795-.736-4.273.123-1.882.691-3.618 1.77-5.169 1.5-2.167 3.586-3.427 6.182-3.853 1.101-.179 2.209-.179 3.321-.05.096.011.191.017.315.022a15.626 15.626 0 0 0-.124-.386c-.55-1.674-.854-3.394-.769-5.158.134-2.822 1.146-5.286 3.119-7.33 2-2.066 4.445-3.254 7.311-3.522 2.08-.196 4.052.212 5.851 1.316.101.061.179.084.292.011 1.86-1.143 3.889-1.535 6.047-1.305 2.754.297 5.103 1.45 7.047 3.41 1.788 1.804 2.822 3.988 3.131 6.502.264 2.128-.056 4.194-.731 6.21-.022.073-.05.152-.084.252.332-.028.635-.061.944-.084 2.124-.14 4.153.174 6.008 1.277 2.298 1.361 3.692 3.405 4.344 5.959.506 1.971.455 3.931-.298 5.846a6.458 6.458 0 0 1-1.528 2.313c-.04.039-.079.084-.096.101.377.683.77 1.332 1.113 2.021Z" style="fill: rgb(223, 218, 218); fill-opacity: 1;" class="fills"></path><path d="M22.975 50.473c1.067.459 2.056.257 2.956-.431.82-.633 1.023-1.72.691-2.655-1.298 1.075-2.715 1.91-4.367 2.341.169.353.394.605.72.745ZM41.082 49.543c.573.851 1.787 1.327 2.833 1.126.567-.112 1.017-.37 1.264-.874-.764-.33-1.551-.61-2.27-1.002-.725-.392-1.394-.902-2.097-1.367-.191.74-.174 1.451.27 2.117ZM30.045 12.466c-1.029 1.265-1.911 2.62-2.535 4.132-.871 2.1-1.085 4.29-.821 6.536.163 1.377.495 2.727.905 4.054.647 2.078 1.461 4.099 2.304 6.104.534 1.271 1.029 2.559 1.36 3.903.405 1.652.607 3.332.72 5.029.022.319.062.638.095.963H35.4c.012-.073.023-.117.028-.173.102-1.042.18-2.084.298-3.125.18-1.557.506-3.086 1.057-4.559.528-1.422 1.13-2.822 1.692-4.233.747-1.871 1.438-3.763 1.905-5.729.404-1.697.607-3.41.466-5.152-.129-1.574-.562-3.058-1.253-4.469-.826-1.674-1.933-3.153-3.22-4.502-.798-.84-1.664-1.613-2.501-2.419-.101-.096-.169-.084-.264 0-.315.291-.647.565-.95.862-.911.885-1.81 1.781-2.613 2.778Zm2.725 12.762c.028-1.305.124-2.604.197-3.909.039-.705.067-1.417.146-2.117.096-.924.23-1.842.354-2.76.017-.124.068-.241.118-.353.028-.056.096-.118.157-.129.04-.006.119.073.13.123.101.37.23.734.27 1.115.14 1.327.269 2.654.359 3.981.113 1.624.186 3.254.27 4.755-.079 1.657-.146 3.192-.225 4.72-.045.93-.067 1.86-.146 2.784-.112 1.344-.258 2.682-.399 4.02a1.854 1.854 0 0 1-.135.488.256.256 0 0 1-.152.134c-.033.006-.112-.073-.129-.129-.084-.319-.185-.638-.219-.969a127.521 127.521 0 0 1-.32-3.92 200.182 200.182 0 0 1-.225-4.53c-.045-1.103-.09-2.212-.051-3.304ZM27.988 41.496c.219.532.331 1.109.494 1.68h2.198a25.673 25.673 0 0 0-.377-3.881c-.348-1.926-.939-3.763-1.973-5.437-.904-1.468-2.085-2.677-3.608-3.517-2.012-1.109-4.158-1.445-6.412-.991-1.765.352-3.074 1.321-3.861 2.951-.607 1.26-.776 2.593-.618 3.965.18 1.584.753 2.984 2.001 4.037.775.661 1.686.98 2.703 1.025.129 0 .185-.045.23-.151.101-.219.208-.437.332-.65.995-1.741 2.894-2.682 4.855-2.329 1.939.347 3.288 1.484 4.036 3.298ZM44.746 38.158c1.726.174 2.957 1.104 3.771 2.61.107.19.186.465.355.538.191.084.46-.017.696-.04.006 0 .017 0 .023-.005 1.54-.286 2.641-1.176 3.321-2.543 1.091-2.206 1.102-4.452-.011-6.664-.556-1.103-1.439-1.898-2.596-2.363-1.422-.571-2.895-.655-4.384-.431-2.523.386-4.552 1.63-6.109 3.64-1.141 1.473-1.849 3.147-2.321 4.934-.326 1.237-.506 2.497-.618 3.768-.04.454-.045.913-.062 1.372 0 .101-.017.213.146.208h2.091c.011-.073.022-.124.028-.174.225-1.512.865-2.8 2.079-3.758 1.051-.828 2.26-1.237 3.591-1.092Z" style="fill: rgb(223, 218, 218); fill-opacity: 1;" class="fills"></path><path d="M46 51.671a2.02 2.02 0 0 0-.692.403c-.708.616-1.528.824-2.433.695-1.22-.179-2.13-.857-2.844-1.831-.702-.964-1.068-2.061-1.275-3.22-.029-.152-.085-.196-.231-.191-.539.006-1.079 0-1.618 0-.051 0-.102.011-.208.017.028.683.011 1.366.09 2.033.202 1.702.809 3.253 1.893 4.603.697.862 1.523 1.562 2.569 1.971 1.5.588 2.956.308 4.018-.795.59-.616.995-1.355 1.259-2.162a3.71 3.71 0 0 0 .18-.991c.011-.397-.321-.649-.708-.532ZM30.736 47.522h-1.782c-.163 0-.208.056-.236.207-.135.773-.348 1.523-.691 2.229-.534 1.097-1.27 2.01-2.422 2.508-1.27.549-2.473.482-3.541-.498a1.468 1.468 0 0 0-.579-.302c-.399-.112-.691.112-.719.52-.011.18-.006.376.039.549.248.907.635 1.747 1.265 2.459 1.006 1.136 2.253 1.495 3.703 1.103 1.287-.353 2.26-1.165 3.069-2.184.978-1.238 1.551-2.655 1.804-4.2.129-.784.135-1.568.09-2.391ZM35.85 50.708c-.157-1.002-.32-2.005-.472-3.013-.023-.157-.09-.19-.231-.19h-2.798c-.152 0-.225.039-.248.201-.14.93-.292 1.86-.432 2.795a14.27 14.27 0 0 1-1.698 4.978c-.129.23-.095.353.079.527 1.113 1.086 2.372 1.988 3.591 2.945.045.034.169.017.22-.022.297-.219.595-.437.876-.672.905-.756 1.804-1.523 2.709-2.279.174-.146.191-.264.073-.465a14.036 14.036 0 0 1-1.669-4.805Zm-1.388 4.99c0 .252-.062.481-.247.666-.338.33-.877.252-1.079-.174a1.238 1.238 0 0 1-.119-.532c-.011-1.624-.005-3.248 0-4.872 0-.375.074-.739.355-1.019.275-.274.629-.235.848.09.18.269.247.565.247.885V53.2c0 .834 0 1.669-.005 2.498ZM28.881 45.909c.309.106.641.196.967.201 1.287.023 2.579.012 3.866.012s2.608.011 3.912-.012c.331-.005.686-.072.983-.212.506-.23.495-.812.023-1.109-.382-.241-.809-.23-1.225-.23-2.445-.011-4.89-.005-7.334 0-.236 0-.472.011-.709.051a1.856 1.856 0 0 0-.5.173c-.23.118-.371.308-.365.583 0 .274.157.47.382.543ZM11.662 34.468c.016-.078.028-.112.033-.146.292-1.528.838-2.951 1.787-4.2 1.405-1.842 3.266-2.839 5.604-2.912 1.562-.05 3.034.342 4.456.958 1.141.493 2.198 1.126 3.209 1.837.062.045.135.078.208.117l.045-.044c-.028-.062-.056-.129-.09-.191-.944-1.921-1.703-3.909-2.079-6.025-.315-1.776-.332-3.551.05-5.32.439-2.05 1.372-3.87 2.608-5.544 1.248-1.686 2.731-3.142 4.282-4.548.591-.537 1.192-1.064 1.793-1.596a.817.817 0 0 0-.112-.084c-2.495-1.517-5.109-1.792-7.806-.621-3.541 1.54-5.839 5.241-5.8 9.307a11.217 11.217 0 0 0 1.113 4.749c.331.694.73 1.361 1.101 2.044-.472-.123-.955-.258-1.444-.37-1.793-.409-3.597-.571-5.418-.201-2.034.42-3.687 1.433-4.788 3.22-.905 1.461-1.231 3.068-1.074 4.771.152 1.657.742 3.136 1.883 4.368.135.145.281.274.439.431ZM54.514 22.473c-1.27-.7-2.658-.975-4.097-1.003-1.613-.028-3.181.258-4.721.706-.095.028-.196.056-.32.09.23-.381.449-.723.646-1.076 1.113-1.971 1.726-4.076 1.602-6.35-.169-3.058-1.394-5.622-3.822-7.515-2.591-2.022-5.457-2.464-8.536-1.204-.467.19-.9.453-1.361.689.984.896 1.939 1.747 2.872 2.62 1.433 1.344 2.748 2.789 3.833 4.436 2.124 3.236 2.748 6.742 1.945 10.516-.405 1.893-1.091 3.685-1.945 5.421-.045.09-.079.191-.118.286.017.011.034.028.051.039.062-.039.123-.084.191-.123.652-.409 1.287-.846 1.956-1.221 1.646-.913 3.394-1.54 5.305-1.579 1.927-.039 3.625.56 5.052 1.865 1.371 1.26 2.164 2.856 2.608 4.642.056.235.107.476.168.739a5.937 5.937 0 0 0 1.158-1.321c1.175-1.871 1.484-3.898.995-6.037-.467-2.039-1.607-3.607-3.462-4.62ZM55.84 35.19c-.09.644-.118 1.277-.269 1.882-.961 3.819-3.507 6.054-7.233 7.045-.708.19-.551.229-.782-.443-.224-.638-.393-1.299-.623-1.937-.326-.902-.916-1.557-1.9-1.736a5.067 5.067 0 0 0-1.236-.062c-1.377.084-2.535 1.031-2.844 2.319-.275 1.159.084 2.172.837 3.063.725.857 1.664 1.411 2.687 1.825 1.781.717 3.653 1.008 5.552 1.042 2.9.045 5.221-1.137 6.784-3.573 1.674-2.615 1.787-5.331.163-8.041a6.344 6.344 0 0 0-1.136-1.384ZM26.122 44.699c.91-1.551.506-3.377-.944-4.278-.77-.476-1.619-.577-2.501-.471-.995.124-1.675.672-2.052 1.585-.196.476-.337.975-.494 1.467-.135.404-.259.812-.394 1.232-2.051-.319-3.765-1.226-5.232-2.604-1.843-1.736-2.776-3.892-2.827-6.428-.028-.023-.056-.04-.084-.062-.045.073-.084.157-.146.218-1.652 1.753-2.349 3.808-1.99 6.194.574 3.808 3.884 6.653 7.745 6.63.938 0 1.877-.112 2.804-.24 1.36-.191 2.675-.56 3.895-1.221.905-.493 1.691-1.115 2.22-2.022ZM83.693 20.289c1.029 0 1.933.117 2.72.358.787.235 1.45.599 1.984 1.075a4.661 4.661 0 0 1 1.225 1.804c.281.722.422 1.562.422 2.52 0 .957-.141 1.825-.422 2.564-.281.74-.685 1.361-1.225 1.865-.534.504-1.197.891-1.984 1.148-.787.258-1.686.387-2.692.387h-2.366a.853.853 0 0 1-.596-.213c-.151-.14-.23-.342-.23-.594V21.129c0-.241.067-.443.208-.599.135-.157.343-.236.618-.236l2.338-.005Zm-1.607 10.584-.225-.286H83.8c1.09 0 1.978-.179 2.658-.537a3.29 3.29 0 0 0 1.501-1.568c.314-.684.477-1.501.477-2.453s-.163-1.775-.494-2.419a3.143 3.143 0 0 0-1.518-1.445c-.68-.319-1.562-.482-2.641-.482h-1.287c-.169 0-.281.034-.332.095-.05.062-.078.174-.078.331v8.764ZM92.089 32.105a.883.883 0 0 1-.382-.095.833.833 0 0 1-.32-.269.713.713 0 0 1-.129-.426c0-.145.033-.319.101-.515.067-.196.168-.448.292-.767l3.063-7.795c.135-.348.258-.65.36-.908.101-.257.213-.476.331-.649.124-.174.27-.303.444-.387.174-.084.399-.128.675-.128.275 0 .483.044.657.128.174.084.315.213.427.387.113.173.219.392.315.649.101.258.219.56.36.908l3.062 7.795c.13.313.231.571.304.767a1.5 1.5 0 0 1 .112.515.663.663 0 0 1-.129.426.838.838 0 0 1-.309.269.871.871 0 0 1-.388.095.809.809 0 0 1-.477-.135c-.13-.089-.237-.235-.326-.442-.09-.207-.192-.482-.31-.829l-.854-2.497-.157-.381-1.062-2.929c-.203-.56-.405-1.12-.619-1.686-.213-.565-.415-1.12-.618-1.668-.202.548-.41 1.103-.618 1.668-.213.566-.416 1.126-.618 1.686l-1.079 2.929-.141.381-.871 2.497a5.355 5.355 0 0 1-.286.829c-.096.207-.203.353-.326.442a.796.796 0 0 1-.484.135Zm1.332-3.573.253-1.266h5.682l.236 1.266h-6.171ZM104.628 32.054c-.287 0-.489-.084-.613-.246-.124-.162-.18-.364-.18-.61v-9.711c0-.252.028-.476.079-.666a.771.771 0 0 1 .309-.448c.152-.112.371-.168.657-.168.214 0 .399.033.562.101.163.067.321.179.467.33.146.151.298.358.444.61l4.204 6.944c.168.264.342.549.517.852.174.308.359.694.545 1.17-.034-.263-.068-.56-.101-.885-.04-.325-.062-.666-.079-1.013-.017-.348-.034-.684-.045-1.003-.017-.319-.022-.61-.022-.862v-5.41c0-.241.067-.442.196-.593.135-.152.337-.23.613-.23.275 0 .483.078.596.23.112.151.168.352.168.593v9.823c0 .19-.022.375-.073.56a.882.882 0 0 1-.27.448c-.129.117-.32.173-.562.173-.224 0-.41-.045-.556-.14a1.759 1.759 0 0 1-.461-.487c-.157-.23-.371-.56-.635-.98l-4.209-6.832a18.438 18.438 0 0 1-.439-.762c-.14-.263-.326-.571-.545-.918.118.465.18 1.002.191 1.613.011.61.017 1.288.017 2.027v5.634c0 .24-.062.448-.18.61-.118.162-.32.246-.595.246ZM119.183 32.105a5.387 5.387 0 0 1-1.562-.23c-.5-.151-.95-.353-1.343-.593a2.577 2.577 0 0 1-.596-.555 1.05 1.05 0 0 1-.23-.649c0-.213.067-.387.208-.532.134-.146.32-.213.556-.213.236 0 .438.078.584.229.147.152.326.314.523.482.191.157.433.314.731.465.298.151.713.229 1.253.229.393 0 .764-.067 1.13-.196.359-.128.652-.33.882-.599.225-.269.343-.605.343-1.002 0-.37-.073-.672-.214-.907a1.615 1.615 0 0 0-.596-.572 4.52 4.52 0 0 0-.848-.364c-.315-.1-.635-.201-.961-.308-.708-.229-1.31-.498-1.804-.8-.489-.303-.866-.667-1.119-1.092-.252-.426-.382-.924-.382-1.496 0-.571.113-1.058.332-1.472.219-.415.511-.745.871-1.003a3.79 3.79 0 0 1 1.214-.571 5.068 5.068 0 0 1 1.343-.179c.444 0 .849.05 1.236.151.394.101.748.241 1.074.426.32.184.573.392.753.616.18.229.27.459.27.705 0 .247-.073.415-.214.543a.72.72 0 0 1-.5.196c-.225 0-.399-.067-.523-.207a3.593 3.593 0 0 0-.494-.425 4.397 4.397 0 0 0-.708-.443c-.248-.129-.585-.19-1.006-.19-.635 0-1.141.168-1.523.498a1.606 1.606 0 0 0-.574 1.271c-.011.583.197 1.031.63 1.35.427.319 1.079.622 1.944.896.383.118.77.246 1.158.386.388.14.753.325 1.085.544.331.224.601.52.803.896.203.375.304.856.304 1.444s-.118 1.076-.36 1.496c-.241.42-.551.756-.944 1.013-.393.258-.82.448-1.293.571-.472.124-.949.18-1.433.191ZM126.467 32.054a.826.826 0 0 1-.444-.112.619.619 0 0 1-.253-.308 1.214 1.214 0 0 1-.079-.448V21.062c0-.241.056-.448.175-.611.118-.162.314-.246.601-.246.286 0 .489.078.612.229.124.152.18.348.18.577v10.231c0 .23-.062.426-.18.577-.123.151-.326.23-.612.235Zm6.575 0a.789.789 0 0 1-.522-.168 2.915 2.915 0 0 1-.461-.481c-.287-.347-.59-.717-.922-1.109a87.55 87.55 0 0 0-1.006-1.176c-.343-.392-.691-.79-1.04-1.176a72.958 72.958 0 0 0-1.006-1.109c-.32-.347-.623-.666-.899-.946a149.12 149.12 0 0 0 2.338-2.548c.776-.868 1.551-1.719 2.327-2.565.18-.202.343-.353.494-.459a.806.806 0 0 1 .489-.157.74.74 0 0 1 .534.224.683.683 0 0 1 .231.504c0 .168-.04.314-.113.442-.073.129-.219.292-.427.493-.444.431-.888.874-1.332 1.322l-1.332 1.344c-.444.448-.893.896-1.349 1.338l.776.773c.287.286.584.594.899.918.315.325.624.656.928.986.309.33.606.655.899.974.292.32.55.611.787.885.168.179.292.336.37.476.079.14.118.291.118.459a.803.803 0 0 1-.196.521c-.135.157-.326.235-.585.235ZM142.405 32.105a5.387 5.387 0 0 1-1.562-.23c-.5-.151-.95-.353-1.343-.593a2.577 2.577 0 0 1-.596-.555 1.05 1.05 0 0 1-.23-.649.73.73 0 0 1 .207-.532c.135-.146.321-.213.557-.213.236 0 .438.078.584.229.146.152.326.314.523.482.191.157.433.314.731.465.297.151.713.229 1.253.229.393 0 .764-.067 1.129-.196.36-.128.652-.33.883-.599.225-.269.343-.605.343-1.002 0-.37-.073-.672-.214-.907a1.615 1.615 0 0 0-.596-.572 4.549 4.549 0 0 0-.848-.364c-.315-.1-.635-.201-.961-.308-.708-.229-1.31-.498-1.804-.8-.489-.303-.866-.667-1.119-1.092-.253-.426-.382-.924-.382-1.496 0-.571.113-1.058.332-1.472.219-.415.511-.745.871-1.003a3.78 3.78 0 0 1 1.214-.571 5.068 5.068 0 0 1 1.343-.179c.444 0 .849.05 1.236.151.394.101.748.241 1.074.426.32.184.573.392.753.616.18.229.27.459.27.705 0 .247-.073.415-.214.543a.72.72 0 0 1-.5.196c-.225 0-.399-.067-.523-.207a3.593 3.593 0 0 0-.494-.425 4.406 4.406 0 0 0-.709-.443c-.247-.129-.584-.19-1.005-.19-.636 0-1.141.168-1.524.498a1.608 1.608 0 0 0-.573 1.271c-.011.583.197 1.031.63 1.35.427.319 1.079.622 1.944.896.382.118.77.246 1.158.386.388.14.753.325 1.085.544.331.224.601.52.803.896.203.375.304.856.304 1.444s-.118 1.076-.36 1.496c-.242.42-.551.756-.944 1.013a4.325 4.325 0 0 1-1.293.571c-.472.124-.949.18-1.433.191ZM149.689 32.054c-.276 0-.472-.084-.596-.246-.124-.162-.18-.364-.18-.61v-10.03c0-.286.056-.504.174-.655.118-.151.321-.23.619-.23h3.192c.826 0 1.528.129 2.113.387.584.257 1.028.638 1.332 1.136.309.499.461 1.115.461 1.843 0 .655-.113 1.204-.332 1.652a3.027 3.027 0 0 1-.899 1.092c-.377.28-.793.481-1.253.599a5.478 5.478 0 0 1-1.422.179h-2.411v4.015a.959.959 0 0 1-.191.611c-.13.162-.326.246-.607.257Zm.792-6.199h2.428c.225 0 .466-.028.731-.089a2.56 2.56 0 0 0 .764-.308c.242-.146.444-.359.596-.639.151-.28.23-.644.23-1.097 0-.801-.23-1.35-.691-1.647-.461-.297-1.091-.442-1.894-.442h-1.793c-.135 0-.23.033-.287.095-.05.062-.078.168-.078.319l-.006 3.808ZM159.99 31.993c-.253 0-.461-.073-.618-.224-.157-.146-.236-.353-.236-.616V21.14c0-.263.067-.47.197-.627.135-.151.337-.23.612-.23h5.334c.191 0 .348.062.477.191.13.128.191.296.191.504a.71.71 0 0 1-.179.504.645.645 0 0 1-.484.19h-4.175c-.18 0-.293.034-.343.095-.045.062-.073.174-.073.331v3.292h3.776c.214 0 .371.056.484.174.112.118.168.286.168.504 0 .218-.05.386-.157.498-.107.112-.27.168-.495.168h-3.776v3.842h4.951c.242 0 .416.062.517.179.101.123.152.286.152.499a.852.852 0 0 1-.152.515c-.101.14-.27.213-.517.213l-5.654.011ZM170.708 32.105c-.36 0-.725-.051-1.096-.157a3.482 3.482 0 0 1-1.023-.482 2.75 2.75 0 0 1-.77-.784 1.863 1.863 0 0 1-.287-.543 1.61 1.61 0 0 1-.078-.498.81.81 0 0 1 .23-.538.757.757 0 0 1 .562-.224c.18 0 .32.045.421.135.102.089.18.19.248.308.062.117.123.229.174.347.118.252.287.481.517.689.23.207.596.308 1.102.308.477 0 .859-.079 1.14-.236.281-.156.495-.403.63-.728.135-.324.197-.733.197-1.215V21.05c0-.24.061-.442.179-.599.124-.157.321-.235.596-.235.275 0 .489.078.613.23.123.151.179.347.179.576v7.448c0 .527-.067 1.008-.196 1.445a3.229 3.229 0 0 1-.618 1.154 2.75 2.75 0 0 1-1.096.767c-.45.179-.989.269-1.624.269ZM180.481 20.289c1.028 0 1.933.117 2.72.358.787.235 1.45.599 1.984 1.075a4.661 4.661 0 0 1 1.225 1.804c.281.722.421 1.562.421 2.52 0 .957-.14 1.825-.421 2.564a4.87 4.87 0 0 1-1.225 1.865c-.534.504-1.197.891-1.984 1.148-.787.258-1.686.387-2.692.387h-2.366a.853.853 0 0 1-.596-.213c-.152-.14-.23-.342-.23-.594V21.129c0-.241.067-.443.208-.599.134-.157.342-.236.618-.236l2.338-.005Zm-1.602 10.584-.225-.286h1.939c1.09 0 1.978-.179 2.658-.537a3.285 3.285 0 0 0 1.501-1.568c.315-.684.478-1.501.478-2.453s-.163-1.775-.495-2.419a3.145 3.145 0 0 0-1.517-1.445c-.68-.319-1.563-.482-2.642-.482h-1.287c-.168 0-.281.034-.331.095-.051.062-.079.174-.079.331v8.764ZM190.276 31.993c-.253 0-.46-.073-.618-.224-.157-.146-.236-.353-.236-.616V21.14c0-.263.068-.47.197-.627.135-.151.337-.23.612-.23h5.334c.191 0 .348.062.477.191.13.128.192.296.192.504a.71.71 0 0 1-.18.504.645.645 0 0 1-.484.19h-4.175c-.18 0-.293.034-.343.095-.045.062-.073.174-.073.331v3.292h3.776c.214 0 .371.056.484.174.112.118.168.286.168.504 0 .218-.05.386-.157.498-.107.112-.27.168-.495.168h-3.776v3.842h4.951c.242 0 .416.062.517.179.101.123.152.286.152.499a.852.852 0 0 1-.152.515c-.101.14-.27.213-.517.213l-5.654.011ZM199.527 32.054c-.287 0-.489-.084-.613-.246-.123-.162-.18-.37-.18-.627v-10.03c0-.19.029-.353.079-.481a.544.544 0 0 1 .253-.292c.118-.061.275-.095.478-.095h3.175c.944 0 1.709.14 2.304.42.59.28 1.023.672 1.293 1.176.27.504.404 1.098.404 1.77 0 .672-.129 1.243-.387 1.708a3.013 3.013 0 0 1-1.046 1.109 4.326 4.326 0 0 1-1.466.571 5.457 5.457 0 0 0 .59 1.473c.224.392.477.767.77 1.131.292.364.646.644 1.073.845.214.107.393.213.54.325.146.112.224.303.224.577a.603.603 0 0 1-.236.504.88.88 0 0 1-.556.19c-.214 0-.422-.044-.63-.134a3.082 3.082 0 0 1-.612-.364 6.233 6.233 0 0 1-.601-.515c-.456-.431-.849-1.003-1.181-1.714a10 10 0 0 1-.736-2.206h-2.141v4.049c0 .24-.056.448-.174.61-.118.162-.315.246-.624.246Zm.781-6.227h2.332c.467 0 .888-.078 1.265-.229.376-.152.674-.387.899-.706.225-.319.332-.717.332-1.204 0-.37-.073-.711-.214-1.019-.14-.308-.399-.56-.759-.745-.365-.185-.871-.274-1.517-.274l-2.001-.017a.329.329 0 0 0-.247.089c-.056.056-.09.163-.09.308v3.797ZM210.261 32.054a.826.826 0 0 1-.444-.112.619.619 0 0 1-.253-.308 1.236 1.236 0 0 1-.078-.448V21.062c0-.241.056-.448.174-.611.118-.162.314-.246.601-.246s.489.078.613.229c.123.152.179.348.179.577v10.231c0 .23-.061.426-.179.577-.124.151-.326.23-.613.235Zm6.57 0a.791.791 0 0 1-.523-.168 2.999 2.999 0 0 1-.461-.481c-.286-.347-.59-.717-.921-1.109-.332-.392-.663-.784-1.006-1.176-.343-.392-.692-.79-1.04-1.176a78.647 78.647 0 0 0-1.006-1.109 41.86 41.86 0 0 0-.899-.946c.781-.835 1.562-1.68 2.338-2.548.775-.868 1.551-1.719 2.326-2.565a2.94 2.94 0 0 1 .495-.459.804.804 0 0 1 .489-.157c.202 0 .376.073.534.224.152.146.23.314.23.504a.874.874 0 0 1-.112.442c-.073.129-.219.292-.427.493-.444.431-.888.874-1.332 1.322l-1.332 1.344c-.444.448-.894.896-1.349 1.338l.776.773c.286.286.584.594.899.918.315.325.624.656.927.986.309.33.607.655.899.974.293.32.551.611.787.885.169.179.292.336.371.476.079.14.118.291.118.459a.799.799 0 0 1-.197.521c-.135.157-.326.235-.584.235ZM224.468 32.122c-.781 0-1.523-.14-2.214-.42a5.4 5.4 0 0 1-1.826-1.204 5.67 5.67 0 0 1-1.231-1.888c-.298-.739-.444-1.573-.444-2.497 0-.924.146-1.775.444-2.509a5.497 5.497 0 0 1 1.236-1.876 5.398 5.398 0 0 1 1.827-1.176 5.99 5.99 0 0 1 2.208-.403 6.05 6.05 0 0 1 2.215.403 5.235 5.235 0 0 1 1.815 1.176 5.68 5.68 0 0 1 1.231 1.876c.303.734.449 1.568.449 2.509 0 .941-.151 1.764-.449 2.497a5.655 5.655 0 0 1-1.237 1.888 5.495 5.495 0 0 1-1.815 1.204c-.691.28-1.422.42-2.209.42Zm0-1.395a4.01 4.01 0 0 0 2.063-.543c.624-.364 1.124-.89 1.501-1.574.376-.683.562-1.512.562-2.486 0-.974-.186-1.826-.562-2.509-.377-.683-.877-1.198-1.501-1.557a4.081 4.081 0 0 0-2.063-.537c-.747 0-1.41.179-2.04.537-.629.359-1.135.88-1.517 1.557-.382.678-.573 1.518-.573 2.509 0 .991.191 1.798.573 2.486.382.689.888 1.21 1.517 1.574.63.364 1.31.543 2.04.543ZM233.511 32.054c-.287 0-.489-.084-.613-.246-.123-.162-.179-.37-.179-.627v-10.03c0-.19.028-.353.078-.481a.544.544 0 0 1 .253-.292c.118-.061.276-.095.478-.095h3.175c.944 0 1.709.14 2.304.42.59.28 1.023.672 1.293 1.176.27.504.405 1.098.405 1.77 0 .672-.13 1.243-.388 1.708a3.019 3.019 0 0 1-1.045 1.109 4.34 4.34 0 0 1-1.467.571c.045.19.112.414.208.672.095.257.224.526.382.801.225.392.477.767.77 1.131.292.364.646.644 1.073.845.214.107.394.213.54.325.146.112.224.303.224.577a.603.603 0 0 1-.236.504.879.879 0 0 1-.556.19 1.56 1.56 0 0 1-.629-.134 3.06 3.06 0 0 1-.613-.364 6.233 6.233 0 0 1-.601-.515c-.456-.431-.849-1.003-1.181-1.714a10.053 10.053 0 0 1-.736-2.206h-2.141v4.049c0 .24-.056.448-.174.61-.118.162-.315.246-.624.246Zm.781-6.227h2.332c.467 0 .888-.078 1.265-.229.377-.152.674-.387.899-.706.225-.319.332-.717.332-1.204 0-.37-.073-.711-.214-1.019-.14-.308-.399-.56-.758-.745-.366-.185-.872-.274-1.518-.274l-2.001-.017a.33.33 0 0 0-.247.089c-.056.056-.09.163-.09.308v3.797ZM244.245 32.054c-.275 0-.472-.084-.596-.246-.123-.162-.179-.364-.179-.61v-10.03c0-.286.056-.504.174-.655.118-.151.32-.23.618-.23h3.192c.826 0 1.529.129 2.113.387.585.257 1.029.638 1.332 1.136.309.499.461 1.115.461 1.843 0 .655-.112 1.204-.331 1.652a3.02 3.02 0 0 1-.9 1.092c-.376.28-.792.481-1.253.599a5.478 5.478 0 0 1-1.422.179h-2.411v4.015a.959.959 0 0 1-.191.611c-.129.162-.326.246-.607.257Zm.793-6.199h2.427c.225 0 .467-.028.731-.089a2.56 2.56 0 0 0 .764-.308c.242-.146.444-.359.596-.639.152-.28.231-.644.231-1.097 0-.801-.231-1.35-.692-1.647-.461-.297-1.09-.442-1.894-.442h-1.792c-.135 0-.231.033-.287.095-.051.062-.079.168-.079.319l-.005 3.808ZM256.722 32.105c-.54 0-1.063-.079-1.563-.23-.5-.151-.95-.353-1.343-.593a2.577 2.577 0 0 1-.596-.555 1.057 1.057 0 0 1-.23-.649c0-.213.067-.387.208-.532.135-.146.32-.213.556-.213a.79.79 0 0 1 .585.229c.146.152.326.314.522.482.191.157.433.314.731.465.298.151.714.229 1.253.229.394 0 .765-.067 1.13-.196.36-.128.652-.33.882-.599.225-.269.343-.605.343-1.002 0-.37-.073-.672-.214-.907a1.612 1.612 0 0 0-.595-.572 4.559 4.559 0 0 0-.849-.364c-.315-.1-.635-.201-.961-.308a8.476 8.476 0 0 1-1.804-.8c-.489-.303-.865-.667-1.118-1.092-.253-.426-.382-.924-.382-1.496 0-.571.112-1.058.331-1.472.219-.415.512-.745.871-1.003a3.8 3.8 0 0 1 1.214-.571c.45-.123.899-.179 1.343-.179.444 0 .849.05 1.237.151a4.34 4.34 0 0 1 1.073.426c.32.184.573.392.753.616.18.229.27.459.27.705 0 .247-.073.415-.214.543a.72.72 0 0 1-.5.196c-.225 0-.399-.067-.522-.207a3.669 3.669 0 0 0-.495-.425 4.397 4.397 0 0 0-.708-.443c-.247-.129-.585-.19-1.006-.19-.635 0-1.141.168-1.523.498a1.608 1.608 0 0 0-.573 1.271c-.012.583.196 1.031.629 1.35.427.319 1.079.622 1.945.896.382.118.77.246 1.157.386.388.14.753.325 1.085.544.332.224.601.52.804.896.202.375.303.856.303 1.444s-.118 1.076-.36 1.496c-.241.42-.55.756-.944 1.013-.393.258-.82.448-1.292.571-.472.124-.95.18-1.433.191ZM83.721 51.055c-.685 0-1.259-.061-1.72-.179a7.019 7.019 0 0 1-1.23-.437c-.394-.201-.697-.425-.911-.677a1.408 1.408 0 0 1-.326-.936c0-.42.13-.772.382-1.058.253-.286.613-.426 1.079-.426.242 0 .473.056.68.168.208.112.411.23.602.359.253.157.511.319.77.476.258.157.573.235.944.235.225 0 .427-.039.618-.112.191-.073.349-.19.478-.347a.89.89 0 0 0 .191-.583c0-.212-.045-.392-.129-.537a1.068 1.068 0 0 0-.371-.37 2.765 2.765 0 0 0-.619-.263 14.61 14.61 0 0 0-.882-.224 7.643 7.643 0 0 1-1.871-.694 3.43 3.43 0 0 1-1.254-1.137c-.297-.465-.444-1.036-.444-1.725 0-.644.124-1.193.371-1.646a3.094 3.094 0 0 1 1.001-1.098 4.7 4.7 0 0 1 1.405-.627 6.315 6.315 0 0 1 1.601-.207c.36 0 .759.039 1.198.112a5.51 5.51 0 0 1 1.27.369c.41.174.741.403 1 .678.259.28.388.627.388 1.036 0 .476-.141.823-.427 1.041a1.53 1.53 0 0 1-.95.331c-.264 0-.483-.045-.658-.14a6.143 6.143 0 0 1-.5-.303 5.91 5.91 0 0 0-.652-.425c-.225-.123-.506-.191-.86-.191s-.629.096-.831.286a.92.92 0 0 0-.309.711c-.012.403.146.717.477.941.326.224.821.414 1.478.56.467.106.916.23 1.349.381a4.47 4.47 0 0 1 1.152.577c.332.235.596.548.787.935.191.386.287.868.287 1.445 0 .677-.141 1.248-.422 1.713a3.371 3.371 0 0 1-1.096 1.137 4.89 4.89 0 0 1-1.478.638 6.653 6.653 0 0 1-1.568.213ZM94.725 50.994c-.584 0-.989-.152-1.214-.46-.23-.308-.343-.683-.343-1.136v-2.991l-1.809-2.469-1.141-1.675a4.939 4.939 0 0 1-.557-1.069c-.118-.331-.157-.622-.129-.863.04-.403.219-.722.534-.963a1.736 1.736 0 0 1 1.085-.364c.41 0 .736.095.978.286.236.19.449.459.629.806.18.347.382.756.601 1.221l1.349 2.845 1.349-2.845c.23-.465.438-.868.613-1.21.174-.341.382-.61.629-.806.242-.196.568-.291.967-.291s.775.123 1.084.364c.315.24.489.565.534.963.034.241-.005.532-.118.862a4.373 4.373 0 0 1-.562 1.07l-1.124 1.674-1.793 2.47v2.99c0 .454-.112.835-.342 1.137-.231.308-.63.459-1.22.454ZM105.42 39.127c.944 0 1.815.101 2.619.308.804.207 1.506.532 2.102.98a4.55 4.55 0 0 1 1.405 1.781c.337.739.506 1.641.506 2.705s-.169 1.982-.501 2.744a4.826 4.826 0 0 1-1.399 1.876 5.837 5.837 0 0 1-2.096 1.069 9.281 9.281 0 0 1-2.58.342h-2.046c-.59 0-1.028-.162-1.303-.482-.276-.319-.411-.711-.411-1.164V40.79c0-.453.135-.845.411-1.17.275-.325.708-.487 1.303-.487l1.99-.006Zm-.663 9.615-.382-.554h1.365c.697 0 1.287-.101 1.765-.302.478-.202.837-.544 1.085-1.036.247-.493.371-1.165.371-2.033 0-.868-.135-1.467-.411-1.899a2.145 2.145 0 0 0-1.152-.901c-.489-.168-1.073-.252-1.736-.252h-.427c-.192 0-.315.039-.371.117-.057.079-.09.236-.09.465l-.017 6.395ZM117.896 51.055c-.685 0-1.259-.061-1.719-.179a7.03 7.03 0 0 1-1.231-.437c-.394-.201-.697-.425-.911-.677a1.408 1.408 0 0 1-.326-.936c0-.42.13-.772.383-1.058.253-.286.612-.426 1.079-.426.241 0 .472.056.68.168.208.112.41.23.601.359.253.157.511.319.77.476.258.157.573.235.944.235.225 0 .427-.039.618-.112.191-.073.349-.19.478-.347a.89.89 0 0 0 .191-.583c0-.212-.045-.392-.129-.537a1.06 1.06 0 0 0-.371-.37 2.776 2.776 0 0 0-.618-.263c-.248-.073-.54-.146-.883-.224a7.643 7.643 0 0 1-1.871-.694 3.427 3.427 0 0 1-1.253-1.137c-.298-.465-.444-1.036-.444-1.725 0-.644.123-1.193.371-1.646a3.082 3.082 0 0 1 1-1.098 4.7 4.7 0 0 1 1.405-.627 6.317 6.317 0 0 1 1.602-.207c.359 0 .758.039 1.197.112a5.51 5.51 0 0 1 1.27.369c.41.174.742.403 1 .678.259.28.388.627.388 1.036 0 .476-.141.823-.427 1.041a1.527 1.527 0 0 1-.95.331c-.264 0-.483-.045-.657-.14a5.996 5.996 0 0 1-.501-.303 5.91 5.91 0 0 0-.652-.425c-.224-.123-.505-.191-.859-.191s-.63.096-.832.286a.92.92 0 0 0-.309.711c-.012.403.146.717.477.941.326.224.821.414 1.478.56.467.106.917.23 1.349.381a4.47 4.47 0 0 1 1.152.577c.332.235.596.548.787.935.191.386.287.868.287 1.445 0 .677-.141 1.248-.422 1.713a3.371 3.371 0 0 1-1.096 1.137 4.89 4.89 0 0 1-1.478.638 6.653 6.653 0 0 1-1.568.213ZM126.276 50.91c-.573 0-.967-.157-1.192-.465-.224-.314-.331-.689-.331-1.131v-8.669c0-.431.112-.807.331-1.115.22-.308.624-.464 1.209-.464.41 0 .73.072.961.212.224.14.387.331.477.56.09.23.135.499.135.79v7.118c0 .24.135.364.399.364h2.383c.36 0 .641.078.849.229.208.151.354.336.438.555.084.218.129.425.129.627 0 .201-.045.392-.129.61a1.24 1.24 0 0 1-.444.555c-.213.151-.5.229-.86.229l-4.355-.005ZM135.515 50.91c-.59 0-1.028-.163-1.304-.482-.275-.319-.41-.717-.41-1.176V40.79c0-.453.135-.845.405-1.17.269-.325.708-.487 1.309-.487h4.524c.422 0 .736.129.944.386.208.258.309.577.309.958 0 .347-.101.649-.309.901s-.522.381-.944.381h-2.731c-.225 0-.36.039-.422.118-.056.078-.09.246-.09.498v1.395h2.366c.467 0 .793.117.984.358.191.235.287.526.287.862 0 .336-.096.633-.287.885-.191.252-.517.381-.984.381h-2.366v2.01h3.575c.466 0 .803.129 1.017.381.214.252.315.566.315.935 0 .348-.107.661-.315.936-.214.274-.551.408-1.017.408l-4.856-.016ZM147.407 51.055c-.686 0-1.259-.061-1.72-.179a7.03 7.03 0 0 1-1.231-.437c-.393-.201-.696-.425-.91-.677a1.403 1.403 0 0 1-.326-.936c0-.42.129-.772.382-1.058.253-.286.613-.426 1.079-.426.242 0 .472.056.68.168.208.112.411.23.602.359.253.157.511.319.77.476.258.157.573.235.944.235.225 0 .427-.039.618-.112a1.14 1.14 0 0 0 .478-.347.89.89 0 0 0 .191-.583c0-.212-.045-.392-.13-.537a1.056 1.056 0 0 0-.37-.37 2.765 2.765 0 0 0-.619-.263 14.61 14.61 0 0 0-.882-.224 7.643 7.643 0 0 1-1.871-.694 3.43 3.43 0 0 1-1.254-1.137c-.298-.465-.444-1.036-.444-1.725 0-.644.124-1.193.371-1.646a3.094 3.094 0 0 1 1.001-1.098c.415-.28.888-.487 1.405-.627a6.315 6.315 0 0 1 1.601-.207c.36 0 .759.039 1.197.112.439.072.866.196 1.27.369.411.174.742.403 1.001.678.258.28.388.627.388 1.036 0 .476-.141.823-.428 1.041a1.524 1.524 0 0 1-.949.331c-.264 0-.484-.045-.658-.14a5.977 5.977 0 0 1-.5-.303 6.006 6.006 0 0 0-.652-.425c-.225-.123-.506-.191-.86-.191s-.629.096-.832.286a.922.922 0 0 0-.309.711c-.011.403.146.717.478.941.326.224.821.414 1.478.56.467.106.916.23 1.349.381a4.47 4.47 0 0 1 1.152.577c.332.235.596.548.787.935.191.386.286.868.286 1.445 0 .677-.14 1.248-.421 1.713a3.371 3.371 0 0 1-1.096 1.137c-.45.291-.944.504-1.478.638a6.66 6.66 0 0 1-1.568.213ZM158.799 51.022c-.394 0-.708-.051-.95-.152a1.432 1.432 0 0 1-.601-.464 3.753 3.753 0 0 1-.439-.801c-.135-.319-.292-.7-.483-1.131l-2.67-6.424a5.024 5.024 0 0 1-.269-.789 2.684 2.684 0 0 1-.079-.599c0-.359.084-.661.247-.908.163-.246.377-.436.641-.571.264-.134.534-.196.809-.196.405 0 .725.079.967.235.242.157.438.387.59.684.146.296.27.638.365 1.03l1.383 5.141c.107.42.196.812.275 1.17.079.359.152.644.214.851.062-.212.135-.492.208-.851.073-.358.168-.75.286-1.17l1.366-5.141c.107-.392.23-.734.371-1.03.14-.297.337-.521.584-.684.248-.156.568-.235.961-.235.287 0 .557.067.815.196.259.129.472.319.641.571.169.247.253.549.253.908 0 .179-.028.38-.09.599a6.151 6.151 0 0 1-.275.789l-2.67 6.424c-.18.431-.337.806-.478 1.131-.14.325-.286.588-.444.801a1.412 1.412 0 0 1-.595.464c-.236.101-.551.152-.933.152ZM167.785 51.005c-.596 0-1-.157-1.231-.465-.23-.314-.342-.689-.342-1.131v-8.764c0-.431.112-.807.331-1.115.225-.308.63-.464 1.225-.464.399 0 .714.072.939.212.225.14.382.331.477.56.096.23.141.499.141.79v8.809c0 .431-.112.801-.332 1.109-.219.308-.623.459-1.208.459ZM177.592 51.005a6.81 6.81 0 0 1-2.366-.403 5.59 5.59 0 0 1-1.911-1.165 5.276 5.276 0 0 1-1.276-1.859c-.309-.734-.46-1.557-.46-2.476 0-.968.157-1.836.466-2.592a5.39 5.39 0 0 1 1.293-1.921 5.65 5.65 0 0 1 1.91-1.193 6.578 6.578 0 0 1 2.344-.409c.528 0 1.09.067 1.68.207.59.14 1.113.342 1.557.616.36.224.652.482.882.773.231.297.343.622.343.98 0 .403-.135.723-.404.958-.27.235-.613.358-1.023.358-.36.011-.635-.056-.832-.207-.197-.146-.382-.291-.562-.426a2.05 2.05 0 0 0-.416-.319 2.879 2.879 0 0 0-.556-.252 2.304 2.304 0 0 0-.748-.112c-.489 0-.91.095-1.275.275a2.434 2.434 0 0 0-.9.772c-.236.331-.41.712-.534 1.132a4.76 4.76 0 0 0-.179 1.344c0 .515.073.985.224 1.416.147.426.36.796.636 1.098.275.308.606.543 1 .711.393.168.832.252 1.321.252.297 0 .567-.028.814-.078.248-.051.461-.129.636-.23.174-.101.303-.218.387-.358l-.017-1.232h-.888c-.393 0-.685-.101-.887-.308-.203-.207-.304-.499-.304-.879 0-.381.101-.661.304-.868.202-.213.494-.314.887-.314h2.479c.41 0 .697.106.86.314.157.212.236.543.236.996v2.47c0 .476-.141.896-.427 1.254a3.641 3.641 0 0 1-1.13.924 5.653 5.653 0 0 1-1.523.56 8.176 8.176 0 0 1-1.641.191Z" style="fill: rgb(223, 218, 218); fill-opacity: 1;" class="fills"></path></g></svg> 