<?xml version="1.0" encoding="UTF-8"?> <svg xmlns="http://www.w3.org/2000/svg" width="103" height="103" fill="none"><g style="fill: rgb(0, 0, 0);"><path d="M10.553 103c-.122-.309 0-.612.032-.91.142-1.088.322-2.17.502-3.253.149-.909.329-1.813.477-2.717.109-.678.18-1.362.283-2.04.11-.696.238-1.391.348-2.087.103-.678.187-1.362.29-2.04.122-.791.251-1.576.38-2.378.727-.054 1.403-.095 2.079-.155.779-.065 1.558-.196 2.344-.196 1.326 0 2.633.16 3.728.951.406.298.715.684.895 1.13.367.886.521 1.784.38 2.759-.11.761-.232 1.511-.432 2.248a7.2 7.2 0 0 1-.959 2.111c-.74 1.118-1.887 1.737-3.239 2.04-.933.208-1.893.285-2.852.226-.547-.036-1.088-.119-1.687-.185-.09.553-.193 1.106-.283 1.665-.142.892-.277 1.784-.419 2.67-.006.054-.058.102-.083.155l-1.784.006Zm2.878-6.303c.065.035.129.101.206.113 1.075.142 2.157.22 3.239.017 1.191-.22 2.144-.749 2.646-1.813.67-1.41.985-2.866.696-4.407a1.714 1.714 0 0 0-.831-1.201c-.483-.291-1.011-.392-1.558-.434-.985-.071-1.958.036-2.936.113-.193.018-.322.089-.348.274l-.135.933c-.097.678-.18 1.362-.283 2.04-.11.696-.245 1.385-.355 2.081-.116.749-.219 1.505-.341 2.284ZM0 98.005c.039-.06.109-.113.122-.178.065-.363.11-.732.168-1.118.18 0 .328-.012.47 0 .695.065 1.384.166 2.086.208.895.053 1.79.035 2.653-.22.611-.185 1.094-.512 1.345-1.089.271-.63.103-1.177-.521-1.522-.477-.262-.998-.422-1.545-.529-.619-.125-1.224-.303-1.842-.422-1.14-.214-1.97-1.142-1.919-2.189.033-.636.065-1.248.393-1.825.522-.922 1.352-1.457 2.421-1.665.534-.107 1.095-.125 1.648-.143 1.198-.036 2.389.03 3.58.143.097.012.193.059.348.101a190.33 190.33 0 0 1-.296 1.635c-1.359-.273-2.698-.273-4.037-.208a3.013 3.013 0 0 0-1.539.494c-.335.22-.496.547-.56.897-.097.542.244.946.895 1.101.862.202 1.725.386 2.582.612.663.173 1.281.446 1.764.904.669.63.895 1.421.779 2.283-.122.904-.496 1.701-1.262 2.314-.631.505-1.41.725-2.196.88-1.178.232-2.382.148-3.58.107-.65-.024-1.3-.137-1.957-.208v-.363ZM33.977 103a34.422 34.422 0 0 1-.676-.22c.058-.523.122-1.064.187-1.617.553.059 1.094.142 1.635.154a4.78 4.78 0 0 0 1.127-.137c.702-.166.927-.719 1.062-1.284.135-.589.187-1.201.284-1.802.115-.696.251-1.385.36-2.081.103-.678.187-1.362.283-2.04.084-.6.174-1.201.271-1.802.109-.678.251-1.35.354-2.021.142-.887.264-1.778.406-2.724.334 0 .65-.006.959-.006h.934c0 .262.025.494 0 .72-.116.79-.245 1.587-.374 2.378-.161.964-.335 1.927-.489 2.89-.11.696-.18 1.398-.29 2.099-.154.964-.328 1.927-.489 2.896-.103.619-.148 1.249-.284 1.862-.154.689-.379 1.367-.933 1.902a2.685 2.685 0 0 1-1.43.72c-.07.012-.128.077-.186.113h-2.711ZM89.041 9.621c-.522-.065-1.005-.118-1.488-.184-1.146-.16-2.298-.131-3.451-.107-1.127.018-2.24.184-3.341.387a24.385 24.385 0 0 0-3.889 1.076 28.131 28.131 0 0 0-4.063 1.832 33.466 33.466 0 0 0-4.874 3.228c-1.14.922-2.292 1.838-3.252 2.938-.579.66-1.21 1.273-1.803 1.921-1.126 1.237-2.105 2.575-3.032 3.942a33.828 33.828 0 0 0-2.26 3.83 31.587 31.587 0 0 0-2.492 6.642c-.206.839-.316 1.695-.477 2.575h-2.317c.212-.791.392-1.6.637-2.396.934-3.003 1.874-6.006 3.039-8.944a291.364 291.364 0 0 1 2.369-5.828 203.126 203.126 0 0 1 2.325-5.215c.612-1.338 1.268-2.652 1.873-3.99.799-1.772 1.578-3.55 2.331-5.334.477-1.13.895-2.277 1.32-3.431.213-.571.374-1.16.567-1.778.354-.006.695-.018 1.03-.018 1.352 0 2.704-.012 4.05.024.715.018 1.429.154 2.151.202.637.042 1.261.149 1.886.244a26.11 26.11 0 0 1 3.754.85c1.828.553 3.548 1.303 5.112 2.349 1.951 1.308 3.38 2.979 4.288 5.043.013.035 0 .077.007.142ZM8.46 9.621c.31-.731.664-1.397 1.095-2.027 1.146-1.665 2.698-2.926 4.52-3.937 1.861-1.029 3.883-1.665 5.969-2.129 1.107-.249 2.247-.386 3.38-.535 2.427-.321 4.861-.184 7.224-.22.271.143.2.345.258.506.682 2.039 1.416 4.055 2.298 6.029.908 2.028 1.842 4.044 2.763 6.066.927 2.039 1.88 4.073 2.781 6.125.715 1.629 1.378 3.282 2.06 4.929.812 1.933 1.514 3.901 2.196 5.876.792 2.307 1.5 4.638 2.157 6.981.039.131.052.267.084.422h-2.312c-.058-.327-.135-.672-.186-1.017-.142-1.052-.413-2.075-.715-3.092-.689-2.313-1.674-4.519-2.891-6.642a39.028 39.028 0 0 0-3.561-5.168c-.85-1.041-1.719-2.063-2.71-2.991-.586-.547-1.127-1.142-1.732-1.665-2.067-1.802-4.308-3.401-6.78-4.71a27.797 27.797 0 0 0-5.357-2.164c-1.095-.315-2.209-.529-3.336-.714-1.545-.25-3.103-.256-4.655-.202-.824.03-1.635.178-2.55.279ZM60.788 66.167c-.071.101-.103.179-.155.232-1.307 1.332-2.691 2.587-4.346 3.556-1.68.987-3.483 1.731-5.434 2.099a11.3 11.3 0 0 1-3.69.054c-1.918-.274-3.67-.946-5.331-1.844-1.185-.636-2.253-1.409-3.258-2.277-.637-.553-1.191-1.172-1.841-1.772.141-.185.244-.357.38-.5.811-.838 1.461-1.79 2.079-2.753.947-1.475 1.636-3.063 2.228-4.674a27.956 27.956 0 0 0 1.191-4.192c.161-.785.348-1.57.483-2.361.09-.506.11-1.017.161-1.522.077-.821.168-1.642.232-2.462.026-.298 0-.595 0-.916.309-.125.631-.048.94-.065.303-.012.599 0 .934 0 .096.475.045.939.006 1.409-.019.196-.064.386-.064.583-.02.862-.155 1.718-.245 2.58-.161 1.529-.509 3.015-.934 4.49-.199.678-.463 1.344-.689 2.01-.18.523-.373 1.041-.528 1.57-.264.91-.07 1.778.342 2.61.727 1.475 1.667 2.831 2.736 4.115.348.423.708.845 1.101 1.225a7.7 7.7 0 0 0 1.108.892c.347.232.734.268 1.12-.006a8.606 8.606 0 0 0 1.365-1.141c.869-.904 1.616-1.879 2.318-2.89a14.928 14.928 0 0 0 1.487-2.67c.348-.821.322-1.636.052-2.456-.329-.993-.689-1.969-1.018-2.962a21.283 21.283 0 0 1-.772-3.08c-.161-.951-.309-1.897-.393-2.854-.09-1.041-.232-2.07-.225-3.116 0-.078.006-.155.019-.298.316 0 .631-.006.94-.006h.921c.019.102.038.173.045.244.084 1.017.116 2.04.219 3.057.096 1.017.244 2.028.431 3.027a31.98 31.98 0 0 0 1.005 3.93c.573 1.79 1.262 3.538 2.202 5.192.701 1.236 1.481 2.438 2.511 3.478.141.143.244.31.367.464ZM68.257 54.982c-.876-.357-1.584-.833-2.26-1.386-.928-.761-1.739-1.605-2.389-2.581-.663-.987-1.166-2.033-1.32-3.205-.039-.309-.103-.612-.161-.963.277-.107.528-.202.773-.303.47-.191.914-.411 1.287-.744.567-.505 1.146-.999 1.475-1.689a6.212 6.212 0 0 0 .521-1.617c.181-.969-.019-1.855-.412-2.729-.244-.542-.566-1.053-1.023-1.469-.226-.208-.451-.417-.689-.631 1.191-1.659 2.691-2.902 4.693-3.615a14.408 14.408 0 0 1 2.924-.708 10.637 10.637 0 0 1 1.841-.083c1.378.059 2.724.315 3.992.838.773.322 1.552.649 2.221 1.148.181.137.367.262.58.405-5.698 5.56-9.581 12.047-12.053 19.332ZM35.355 46.811c.077.66-.122 1.267-.296 1.861-.335 1.166-.934 2.218-1.745 3.17-.857 1.011-1.822 1.909-2.981 2.622-.316.191-.657.351-1.03.541-2.479-7.278-6.349-13.766-12.047-19.332.367-.428.875-.666 1.358-.921 1.018-.53 2.074-.97 3.22-1.214 1.171-.243 2.35-.392 3.541-.279 1.494.143 2.942.482 4.288 1.136 1.391.672 2.943 1.891 3.792 3.288-1.68 1.35-2.498 3.039-2.06 5.108.438 2.046 1.861 3.33 3.96 4.02ZM48.799.012c.605 1.326.908 2.646 1.223 3.954.148.607.206 1.237.29 1.862.129.993.245 1.986.367 2.973v.119c.045 1.302.109 2.604.135 3.907.02 1.225.013 2.456-.006 3.681-.02 1.123-.032 2.247-.142 3.365-.071.69-.064 1.374-.109 2.064-.084 1.177-.168 2.355-.258 3.526-.077.981-.167 1.956-.257 2.938-.084.939-.168 1.879-.258 2.818-.084.839-.161 1.683-.258 2.522-.109.993-.244 1.986-.347 2.979-.032.309 0 .63 0 .981-.232.012-.412.018-.618.03-.052-.149-.123-.274-.136-.405-.058-.624-.09-1.254-.154-1.885-.064-.624-.161-1.242-.232-1.867a55.91 55.91 0 0 1-.135-1.409c-.052-.69-.09-1.374-.155-2.064-.064-.66-.154-1.326-.231-1.986v-.119c-.052-.749-.091-1.492-.149-2.236-.064-.779-.154-1.558-.231-2.343v-.059c-.045-.844-.103-1.689-.136-2.539-.057-1.481-.038-2.962-.167-4.436-.129-1.422-.103-2.843-.058-4.264.026-.922.045-1.849.11-2.777.058-.862.128-1.724.251-2.581.289-2.093.656-4.18 1.41-6.184.064-.179.161-.351.251-.565ZM25.626 26.242c-.212-.089-.354-.131-.476-.19-1.745-.898-3.574-1.641-5.415-2.361-1.951-.767-3.947-1.409-6.021-1.832-.45-.089-.92-.118-1.384-.172-.232-.03-.463-.095-.689-.071-.573.053-1.165-.012-1.693.345-.67.452-1.359.886-2.08 1.254a8.426 8.426 0 0 1-2.698.839c-.083.012-.167 0-.232 0 .432-.541.87-1.071 1.288-1.606.535-.69.747-1.486.844-2.307.025-.214.077-.375.251-.511a6.248 6.248 0 0 1 3.316-1.368c.315-.036.631-.107.946-.095 1.211.047 2.389.249 3.529.66 2.118.767 4.024 1.861 5.769 3.205a48.162 48.162 0 0 1 2.298 1.879c.792.69 1.539 1.421 2.305 2.135.039.036.058.083.142.196ZM71.901 26.236c1.223-1.385 2.588-2.491 3.953-3.592a27.317 27.317 0 0 1 3.213-2.235c1.314-.774 2.685-1.44 4.185-1.844.567-.155 1.159-.226 1.739-.321.335-.054.676-.107 1.011-.095 1.455.053 2.794.428 3.959 1.249.303.214.516.452.535.874.032.725.296 1.427.734 2.039.425.589.901 1.142 1.365 1.719-.367.059-.747-.083-1.114-.172-1.352-.333-2.563-.964-3.657-1.743-.644-.458-1.307-.559-2.067-.464-.464.06-.927.078-1.391.137-1.519.196-2.962.63-4.397 1.112a56.904 56.904 0 0 0-5.666 2.254c-.76.345-1.52.684-2.402 1.082ZM80.722 87.563c.29-.042.56-.101.831-.125.927-.083 1.86-.184 2.787-.22.722-.03 1.443-.06 2.17.065.457.078.915.119 1.372.244 1.107.303 1.77.993 2.047 1.992.187.666.232 1.35.058 2.04-.096.38-.096.779-.161 1.165-.116.773-.257 1.546-.373 2.32-.103.677-.161 1.361-.29 2.039-.09.452-.058.934-.277 1.374h-1.867c0-.196-.026-.393 0-.577.116-.755.245-1.504.373-2.26.161-.945.348-1.885.477-2.836a26.27 26.27 0 0 0 .167-2.236c.039-.737-.431-1.172-1.114-1.415a2.894 2.894 0 0 0-.933-.161 61.112 61.112 0 0 0-2.569.006c-.316.006-.625.083-.998.143-.483 3.104-.972 6.214-1.455 9.33h-1.9c-.006-.113-.045-.25-.026-.375.168-1.106.335-2.206.516-3.306.148-.91.328-1.808.476-2.718.109-.695.18-1.403.29-2.099.122-.791.264-1.581.399-2.39ZM70.079 98.457h-1.958c.561-3.633 1.121-7.243 1.681-10.888.573-.048 1.146-.066 1.706-.149 1.082-.16 2.176-.125 3.258-.095a3.95 3.95 0 0 1 1.294.256c.683.267 1.114.761 1.282 1.451a4.194 4.194 0 0 1-.045 2.164h-1.739c0-.297-.013-.571 0-.838.058-.91-.373-1.297-1.41-1.374-.715-.054-1.449-.089-2.163.089-.116.03-.251.018-.432.03-.489 3.104-.978 6.196-1.474 9.354ZM31.492 84.78h-.966c.212-1.427.515-2.813.914-4.204h1.442c.297.636.155 1.397.496 2.128.341-.749.657-1.439.979-2.134h1.532c-.167 1.403-.077 2.795-.412 4.192h-.972c.032-.969.335-1.921.206-3.039-.341.755-.631 1.38-.914 1.998h-1.282c-.128-.63-.141-1.266-.347-1.879-.354.958-.412 1.963-.676 2.938ZM9.214 82.354c.856-.506 1.474-1.213 2.189-1.79h1.358c-.791.654-1.538 1.272-2.324 1.92.547.815 1.32 1.469 1.9 2.308h-.413c-.946 0-.94 0-1.487-.678-.341-.428-.695-.845-1.049-1.267-.052-.059-.123-.107-.251-.208-.116.726-.219 1.397-.335 2.087a2.037 2.037 0 0 1-1.037-.006c.206-1.391.412-2.759.618-4.156h.992c.058.588-.174 1.147-.161 1.79ZM23.443 80.558h1.005c-.065.44-.123.856-.181 1.272-.07.524-.167 1.047-.206 1.57-.032.47.02.529.541.636.264.054.548.048.824.054.206 0 .297-.119.322-.303.084-.66.174-1.32.271-1.98.058-.405.129-.803.199-1.231h1.024l-.612 4.097c-.927.172-1.828.208-2.73.012-.605-.131-.882-.434-.856-.993.026-.589.084-1.178.161-1.761.058-.446.155-.886.238-1.373ZM16.554 80.564h3.097v.678h-2.106c-.07.309-.135.588-.212.903.618.131 1.217.012 1.816.084v.654h-1.88l-.316 1.891h-.972c-.065-.72.193-1.398.251-2.093.058-.696.206-1.392.322-2.117ZM39.926 83.519h1.803c.084.333 0 1.076-.206 1.719h-1.874c0-.583.142-1.142.277-1.719Z" style="fill: rgb(223, 218, 218); fill-opacity: 1;" class="fills"></path><path d="M33.455 37.683c-.849-1.397-2.401-2.61-3.792-3.288-1.346-.654-2.794-.993-4.288-1.136-1.185-.113-2.37.036-3.541.279-1.153.244-2.209.678-3.22 1.214-.483.255-.991.493-1.358.921 5.698 5.56 9.568 12.054 12.047 19.332.373-.196.714-.35 1.03-.541 1.159-.713 2.124-1.611 2.981-2.622.805-.952 1.41-1.998 1.745-3.17.174-.6.373-1.201.296-1.861-2.093-.69-3.516-1.974-3.953-4.02-.438-2.069.379-3.758 2.053-5.108ZM11.403 80.564c-.715.577-1.333 1.278-2.189 1.79-.007-.631.225-1.19.167-1.778H8.39c-.206 1.397-.412 2.765-.618 4.156.36.095.682.089 1.036.006.11-.696.219-1.368.335-2.087.122.101.2.143.251.208.354.416.708.839 1.05 1.267.547.678.54.678 1.487.678h.412c-.58-.839-1.359-1.499-1.899-2.308l2.324-1.92-1.365-.012ZM25.156 26.046c.122.065.258.107.476.19-.083-.119-.103-.172-.141-.202-.766-.714-1.513-1.445-2.305-2.135a52.09 52.09 0 0 0-2.299-1.879c-1.738-1.344-3.644-2.444-5.769-3.205-1.133-.41-2.318-.613-3.528-.66-.316-.012-.631.059-.947.095a6.28 6.28 0 0 0-3.316 1.368c-.174.136-.225.303-.251.511-.09.827-.309 1.623-.843 2.307-.419.541-.85 1.065-1.288 1.606.064 0 .148.012.232 0a8.409 8.409 0 0 0 2.698-.839 20.328 20.328 0 0 0 2.079-1.254c.522-.357 1.121-.292 1.694-.345.225-.024.463.047.689.071.463.054.933.083 1.384.173 2.073.422 4.069 1.064 6.02 1.831 1.835.72 3.664 1.463 5.415 2.367ZM16.238 82.687c-.058.695-.315 1.373-.251 2.093h.973l.315-1.891h1.88v-.654c-.599-.072-1.197.047-1.816-.084.071-.315.136-.594.213-.903h2.105v-.678H16.56c-.116.731-.257 1.421-.322 2.117ZM65.668 44.111c-.328.69-.908 1.184-1.474 1.689-.374.333-.818.559-1.288.744-.245.101-.496.196-.773.303.058.345.123.654.161.963.155 1.172.657 2.218 1.32 3.205.651.976 1.462 1.82 2.389 2.581.67.553 1.384 1.035 2.26 1.386 2.479-7.291 6.361-13.778 12.066-19.338-.212-.149-.399-.274-.579-.405-.67-.499-1.449-.826-2.222-1.147-1.262-.524-2.607-.779-3.992-.839-.611-.03-1.223 0-1.841.083-1.011.137-1.97.369-2.923.708-2.003.714-3.503 1.956-4.694 3.615.238.22.457.429.689.631.457.422.779.927 1.024 1.469.392.874.598 1.76.412 2.729a6.362 6.362 0 0 1-.535 1.623ZM15.665 9.544c1.127.185 2.241.399 3.336.714a27.797 27.797 0 0 1 5.357 2.164c2.472 1.309 4.713 2.908 6.78 4.71.605.529 1.146 1.118 1.732 1.665.991.928 1.86 1.95 2.71 2.991a39.028 39.028 0 0 1 3.561 5.168c1.217 2.117 2.202 4.323 2.891 6.642.302 1.017.573 2.046.715 3.092.045.345.122.684.186 1.017h2.312c-.032-.155-.045-.291-.084-.422a127.492 127.492 0 0 0-2.157-6.981c-.682-1.975-1.384-3.943-2.196-5.876-.688-1.641-1.345-3.294-2.06-4.929-.901-2.052-1.854-4.086-2.781-6.125-.921-2.022-1.855-4.038-2.763-6.066-.882-1.968-1.616-3.99-2.298-6.029-.052-.161.013-.369-.258-.506-2.369.036-4.797-.101-7.224.22-1.133.149-2.273.291-3.38.535-2.086.464-4.108 1.106-5.969 2.129-1.822 1.005-3.38 2.266-4.52 3.937-.431.63-.785 1.296-1.095 2.027.908-.107 1.726-.249 2.55-.279 1.558-.054 3.11-.048 4.655.202ZM55.096 35.126a31.587 31.587 0 0 1 2.492-6.642 34.746 34.746 0 0 1 2.26-3.83c.927-1.367 1.906-2.705 3.032-3.942.593-.648 1.224-1.267 1.803-1.921.96-1.1 2.112-2.022 3.252-2.938a33.466 33.466 0 0 1 4.874-3.228 28.131 28.131 0 0 1 4.063-1.832 25.333 25.333 0 0 1 3.889-1.076c1.101-.203 2.214-.369 3.341-.387 1.153-.018 2.305-.053 3.451.107.483.072.966.119 1.488.184 0-.065.013-.107 0-.142-.902-2.064-2.338-3.735-4.288-5.043-1.565-1.046-3.284-1.802-5.113-2.349a27.825 27.825 0 0 0-3.754-.85c-.631-.095-1.249-.208-1.886-.244-.721-.048-1.429-.178-2.151-.202-1.352-.036-2.697-.024-4.05-.024-.334 0-.676.012-1.03.018-.199.618-.36 1.207-.566 1.778-.425 1.148-.844 2.295-1.32 3.431a226.232 226.232 0 0 1-2.331 5.334c-.605 1.338-1.262 2.652-1.874 3.99a226.27 226.27 0 0 0-2.324 5.215 274.379 274.379 0 0 0-2.37 5.828c-1.165 2.938-2.105 5.941-3.039 8.944-.244.79-.431 1.599-.637 2.396h2.318c.161-.88.27-1.736.47-2.575ZM26.624 84.673l.612-4.097h-1.024c-.071.428-.142.832-.2 1.231-.096.66-.18 1.32-.27 1.98-.026.178-.116.303-.322.303-.277 0-.56 0-.824-.054-.522-.107-.573-.16-.541-.636.039-.523.135-1.046.206-1.57.058-.416.116-.838.18-1.272h-1.004c-.09.487-.187.927-.245 1.367a22.988 22.988 0 0 0-.161 1.761c-.019.559.258.868.857.993.901.19 1.802.16 2.736-.006ZM46.99 20.825c.032.844.09 1.689.135 2.539v.059c.077.779.167 1.558.232 2.343.064.744.103 1.493.148 2.236v.119c.077.66.167 1.32.231 1.986.065.684.097 1.374.155 2.064.039.47.084.939.135 1.409.071.624.168 1.243.232 1.867.064.625.097 1.255.155 1.885.012.131.083.256.135.405.199-.012.386-.018.618-.03 0-.351-.026-.672 0-.981.103-.993.238-1.986.348-2.979.096-.839.173-1.677.257-2.522.09-.939.174-1.879.258-2.818.09-.982.18-1.957.257-2.938.09-1.177.181-2.349.258-3.526.045-.69.045-1.374.109-2.064.11-1.118.123-2.242.142-3.365.026-1.225.032-2.456.006-3.681-.019-1.303-.083-2.605-.135-3.907v-.119c-.122-.993-.238-1.986-.367-2.973-.084-.625-.142-1.249-.29-1.862-.315-1.308-.618-2.628-1.223-3.954-.109.232-.2.398-.27.577-.754 2.004-1.121 4.085-1.41 6.184a38.456 38.456 0 0 0-.252 2.581c-.064.922-.083 1.849-.109 2.777-.045 1.415-.071 2.836.058 4.264.129 1.474.109 2.955.187 4.424ZM87.882 87.527c-.451-.125-.915-.166-1.372-.244-.727-.125-1.448-.089-2.17-.065-.933.036-1.86.137-2.787.22-.271.024-.541.077-.831.125-.135.809-.277 1.599-.399 2.39-.11.696-.181 1.404-.29 2.099-.148.91-.328 1.814-.476 2.718-.181 1.1-.348 2.206-.516 3.306-.019.125.02.256.026.375h1.9c.489-3.116.972-6.226 1.455-9.33.373-.054.689-.131.998-.143a52.384 52.384 0 0 1 2.569-.006c.315.006.644.054.933.161.683.243 1.153.678 1.114 1.415-.038.749-.071 1.498-.167 2.236-.129.951-.316 1.891-.477 2.836-.128.756-.257 1.505-.373 2.26-.026.184 0 .381 0 .577h1.867c.219-.44.187-.916.277-1.374.129-.672.187-1.362.29-2.039.116-.774.251-1.547.373-2.32.058-.386.065-.785.161-1.165.174-.69.129-1.374-.058-2.04-.277-1.005-.933-1.689-2.047-1.992ZM76.067 87.581a3.987 3.987 0 0 0-1.294-.256c-1.089-.03-2.177-.071-3.258.095-.561.083-1.134.101-1.707.149-.566 3.645-1.12 7.255-1.68 10.888h1.957c.496-3.152.985-6.244 1.475-9.348.186-.012.315 0 .431-.03.715-.184 1.449-.149 2.163-.089 1.037.077 1.475.464 1.411 1.374-.02.273 0 .547 0 .838h1.738a4.184 4.184 0 0 0 .045-2.164c-.167-.69-.599-1.184-1.281-1.457ZM91.223 22.323c-.437-.612-.701-1.314-.734-2.039-.019-.429-.231-.666-.534-.874-1.172-.821-2.511-1.196-3.96-1.249-.335-.012-.676.041-1.011.095-.579.089-1.171.166-1.738.321-1.5.404-2.872 1.07-4.185 1.843a27.241 27.241 0 0 0-3.213 2.236c-1.372 1.1-2.73 2.206-3.954 3.592.883-.392 1.649-.731 2.402-1.076a59.585 59.585 0 0 1 5.666-2.254c1.43-.482 2.878-.916 4.398-1.112.463-.06.927-.083 1.391-.137.753-.095 1.423 0 2.066.464 1.095.785 2.299 1.409 3.658 1.742.367.09.746.232 1.113.173-.463-.577-.94-1.13-1.365-1.725ZM102.504 88.603c-.406-.547-.998-.844-1.648-1.046-1.14-.357-2.299-.315-3.471-.143-1.745.256-2.955 1.172-3.721 2.587-.992 1.837-1.333 3.8-.973 5.827.181.994.76 1.79 1.784 2.242.676.298 1.391.488 2.138.512.772.024 1.545.006 2.311 0 .831 0 1.636-.137 2.453-.262.097-.547.181-1.058.277-1.605-.315 0-.605-.048-.863.005-.946.191-1.912.036-2.858.191-.322.053-.67-.084-1.011-.084-.438 0-.85-.124-1.224-.285-.515-.22-.895-.577-1.049-1.124-.122-.434-.077-.856-.071-1.32 1.004-.089 1.945-.018 2.885-.119 1.191-.131 2.343-.363 3.444-.767.741-.274 1.352-.714 1.687-1.439.193-.422.316-.839.38-1.296.09-.696-.051-1.309-.47-1.874Zm-1.97 2.789a2.469 2.469 0 0 1-.902.536c-.837.273-1.693.481-2.594.511-.573.018-1.14.071-1.713.107-.142.006-.29 0-.47 0-.026-.422.122-.773.251-1.112.303-.815.779-1.522 1.59-1.998a3.312 3.312 0 0 1 1.674-.476c.49 0 .973-.024 1.456.107.553.143.946.399 1.12.928.174.547-.007 1.017-.412 1.397ZM52.72 82.812c-.238 1.504-.47 2.985-.702 4.483-.431 0-.766.042-1.075-.006a8.852 8.852 0 0 0-3.239.066c-1.596.327-2.788 1.201-3.56 2.551-.786 1.385-1.024 2.89-1.134 4.424-.025.369.058.743.104 1.112.09.743.386 1.397.94 1.956.779.791 1.79 1.124 2.897 1.184a23.22 23.22 0 0 0 3.902-.101c.457-.054.914-.09 1.391-.131.817-5.209 1.622-10.371 2.433-15.533l-1.957-.005Zm-2.157 13.807c-.167.161-.393.197-.631.197-.856 0-1.713.017-2.569 0a2.87 2.87 0 0 1-1.545-.482c-.496-.327-.728-.827-.773-1.362-.116-1.433.122-2.83.799-4.121.54-1.034 1.422-1.73 2.73-1.903.553-.071 1.081-.125 1.635-.006.264.054.554.012.831.036.225.018.444.071.695.119-.399 2.569-.786 5.043-1.172 7.522ZM33.385 82.704c-.342-.731-.194-1.498-.496-2.128h-1.442a32.446 32.446 0 0 0-.915 4.204h.966c.271-.969.328-1.974.683-2.932.206.613.219 1.249.347 1.879h1.282c.283-.624.573-1.249.914-1.998.129 1.118-.174 2.07-.206 3.039h.972c.335-1.398.245-2.795.412-4.192H34.37c-.322.701-.638 1.391-.985 2.128ZM39.926 83.519c-.128.577-.264 1.136-.27 1.719h1.874c.206-.643.289-1.386.206-1.719h-1.81ZM50.853 72.054c1.951-.363 3.754-1.112 5.434-2.099 1.655-.969 3.039-2.224 4.346-3.556.058-.053.09-.131.155-.232-.123-.154-.226-.327-.367-.464-1.03-1.04-1.81-2.242-2.511-3.478-.94-1.654-1.623-3.402-2.202-5.192a31.98 31.98 0 0 1-1.005-3.93 33.659 33.659 0 0 1-.431-3.027c-.097-1.017-.135-2.04-.219-3.057 0-.071-.026-.148-.045-.244h-.921c-.315 0-.624 0-.94.006-.006.143-.013.22-.019.298 0 1.046.135 2.075.225 3.116.084.957.232 1.909.393 2.854.18 1.047.444 2.069.772 3.08.329.993.689 1.969 1.018 2.962.27.82.29 1.635-.052 2.456-.393.939-.901 1.819-1.487 2.67-.702 1.011-1.449 1.992-2.318 2.89a9.28 9.28 0 0 1-1.365 1.141c-.393.274-.773.238-1.12.006a7.334 7.334 0 0 1-1.108-.892 15.548 15.548 0 0 1-1.101-1.225c-1.069-1.284-2.009-2.64-2.736-4.115-.412-.832-.606-1.7-.342-2.61.155-.529.348-1.047.528-1.57.232-.672.496-1.332.689-2.01.432-1.475.773-2.961.934-4.49.09-.856.225-1.712.245-2.58 0-.197.051-.387.064-.583.039-.464.09-.934-.006-1.409-.329 0-.631-.012-.934 0-.309.011-.631-.06-.94.059 0 .321.019.618 0 .916-.071.82-.155 1.641-.232 2.462-.051.511-.071 1.022-.161 1.522-.135.791-.322 1.57-.483 2.361a27.956 27.956 0 0 1-1.191 4.192c-.592 1.612-1.281 3.199-2.228 4.674-.618.969-1.262 1.915-2.079 2.753-.136.143-.239.309-.38.5.65.606 1.204 1.219 1.841 1.772a18.317 18.317 0 0 0 3.258 2.277c1.661.898 3.413 1.564 5.331 1.844a11.47 11.47 0 0 0 3.69-.048ZM31.839 87.337c-.888-.083-1.79-.095-2.678.095-.889.19-1.681.547-2.357 1.106-1.088.91-1.584 2.117-1.944 3.384-.283.999-.329 2.021-.277 3.044.019.369.051.749.148 1.106.27.993.921 1.713 1.945 2.111a5.749 5.749 0 0 0 2.099.405c1.062 0 2.131.083 3.193-.101.451-.078.921-.096 1.397-.149.078-.428.148-.815.206-1.195.02-.131 0-.268 0-.428-.244 0-.463-.036-.663.005-.592.137-1.191.072-1.783.113-.297.018-.586.072-.882.084-.232.012-.47.006-.702-.012-.213-.012-.419-.078-.625-.078-.508 0-.959-.154-1.391-.368-.45-.22-.734-.571-.901-1.017-.155-.422-.129-.85-.103-1.314 1.004-.06 1.957-.113 2.91-.167 1.088-.059 2.138-.291 3.155-.636.94-.321 1.758-.815 2.099-1.766.11-.297.232-.595.277-.898.097-.696.013-1.368-.425-1.974-.644-.892-1.622-1.261-2.698-1.35Zm.58 4.151c-.638.428-1.352.677-2.099.796-1.043.167-2.106.304-3.174.262-.103 0-.206-.012-.374-.018.155-.648.309-1.237.618-1.778.67-1.171 1.7-1.772 3.129-1.79.554 0 1.089.03 1.629.214 1.011.345 1.031 1.796.271 2.314ZM65.823 88.71c-.638-.903-1.623-1.266-2.698-1.373-.863-.083-1.745-.089-2.614.083-1.526.303-2.692 1.053-3.451 2.313-.805 1.326-1.185 2.765-1.198 4.282-.006.666-.058 1.338.129 2.004.29 1.023.927 1.76 1.97 2.17.65.256 1.333.399 2.041.399 1.088 0 2.176.059 3.265-.09.457-.065.92-.083 1.416-.202.019-.261 0-.523.077-.761.078-.267.129-.523.078-.809-.264 0-.496-.011-.728 0-.36.024-.715.072-1.075.096-.528.035-1.069-.036-1.591.101-.16.041-.341.017-.515 0-.334-.03-.676-.054-1.01-.107-1.063-.179-1.836-.577-2.067-1.57-.084-.357-.065-.738-.09-1.148 1.049-.071 1.989-.012 2.923-.119 1.056-.125 2.092-.303 3.097-.63 1.127-.363 1.983-.981 2.298-2.105.052-.191.136-.375.161-.565.097-.702.02-1.368-.418-1.969Zm-1.674 2.171a1.41 1.41 0 0 1-.779.821 7.337 7.337 0 0 1-2.112.618c-.882.119-1.764.232-2.666.226h-.56c.18-.684.322-1.267.637-1.814.676-1.165 1.707-1.766 3.142-1.772.535 0 1.05.024 1.565.202.824.286.985 1.166.773 1.719Z" style="fill: rgb(223, 218, 218); fill-opacity: 1;" class="fills"></path></g></svg> 